<svg width="24" height="24" viewBox="0 0 24 24" fill="none" xmlns="http://www.w3.org/2000/svg">
<path fill-rule="evenodd" clip-rule="evenodd" d="M1.56732 3.74828C1.9336 3.14065 3.9529 0.934887 5.39186 1.00148C5.82236 1.03834 6.20291 1.29756 6.51211 1.59959H6.5133C7.22207 2.29402 9.25565 4.91478 9.36981 5.46652C9.65166 6.8197 8.03788 7.59975 8.53141 8.96364C9.78961 12.0422 11.9576 14.2099 15.0377 15.4668C16.4005 15.9614 17.1806 14.349 18.534 14.6297C19.0858 14.745 21.708 16.7772 22.4013 17.487V17.487C22.7022 17.795 22.9638 18.1767 22.9995 18.6072C23.053 20.1233 20.7102 22.1697 20.2536 22.4313C19.1761 23.203 17.7705 23.1887 16.0568 22.3921C11.2749 20.4027 3.633 12.9055 1.60656 7.9434C0.831187 6.23943 0.778861 4.82441 1.56732 3.74828Z" stroke="white" stroke-width="1.5" stroke-linecap="round" stroke-linejoin="round"/>
<path d="M14.9727 1.28955C19.2593 1.76545 22.6438 5.1465 23.1255 9.43187" stroke="white" stroke-width="1.5" stroke-linecap="round" stroke-linejoin="round"/>
<path d="M14.9727 5.39185C17.0222 5.79132 18.6236 7.39269 19.023 9.44216" stroke="white" stroke-width="1.5" stroke-linecap="round" stroke-linejoin="round"/>
</svg>
