<svg width="36" height="36" viewBox="0 0 36 36" fill="none" xmlns="http://www.w3.org/2000/svg">
<path fill-rule="evenodd" clip-rule="evenodd" d="M1.87674 5.24734C2.4428 4.30828 5.56349 0.89937 7.78729 1.00228C8.4526 1.05925 9.04071 1.45987 9.51855 1.92664H9.52039C10.6158 2.99985 13.7585 7.05011 13.9349 7.9028C14.3705 9.99409 11.8765 11.1996 12.6392 13.3074C14.5837 18.0652 17.9341 21.4153 22.6942 23.3578C24.8003 24.1222 26.006 21.6303 28.0975 22.064C28.9502 22.2423 33.0027 25.3829 34.0742 26.48V26.48C34.5391 26.9559 34.9435 27.5458 34.9986 28.2111C35.0813 30.5541 31.4607 33.7168 30.755 34.1211C29.0899 35.3137 26.9175 35.2917 24.2692 34.0604C16.8792 30.986 5.0691 19.3994 1.93739 11.7307C0.739111 9.0973 0.658246 6.91045 1.87674 5.24734Z" stroke="white" stroke-width="1.6" stroke-linecap="round" stroke-linejoin="round"/>
<path d="M22.5879 1.44824C29.2125 2.18372 34.4432 7.40898 35.1876 14.0318" stroke="white" stroke-width="1.6" stroke-linecap="round" stroke-linejoin="round"/>
<path d="M22.5879 7.78711C25.7553 8.40448 28.2301 10.8793 28.8475 14.0467" stroke="white" stroke-width="1.6" stroke-linecap="round" stroke-linejoin="round"/>
</svg>
