<svg width="18" height="18" viewBox="0 0 18 18" fill="none" xmlns="http://www.w3.org/2000/svg">
<path d="M16.9476 5.7803V9.77219C16.9476 10.0317 16.9376 10.2812 16.9077 10.5207C16.6782 13.2152 15.0914 14.5525 12.1673 14.5525H11.7681C11.5186 14.5525 11.2791 14.6722 11.1294 14.8718L9.93187 16.4686C9.40294 17.1771 8.54467 17.1771 8.01575 16.4686L6.81817 14.8718C6.68843 14.7022 6.39904 14.5525 6.17948 14.5525H5.7803C2.59677 14.5525 1 13.7641 1 9.77219V5.7803C1 2.85624 2.34727 1.26946 5.03182 1.03993C5.27133 1.00999 5.52083 1 5.7803 1H12.1673C15.3509 1 16.9476 2.59677 16.9476 5.7803Z" stroke="#EF5A38" stroke-width="1.5" stroke-miterlimit="10" stroke-linecap="round" stroke-linejoin="round"/>
<path d="M12.4711 8.23531H12.48" stroke="#EF5A38" stroke-width="2" stroke-linecap="round" stroke-linejoin="round"/>
<path d="M8.98278 8.23531H8.99176" stroke="#EF5A38" stroke-width="2" stroke-linecap="round" stroke-linejoin="round"/>
<path d="M5.48668 8.23531H5.49566" stroke="#EF5A38" stroke-width="2" stroke-linecap="round" stroke-linejoin="round"/>
</svg>
