<svg width="68" height="80" viewBox="0 0 68 80" fill="none" xmlns="http://www.w3.org/2000/svg">
<path d="M63.6851 41.3972L63.6752 41.3873L63.6653 41.3774L63.5861 41.2736L63.1954 40.7592L62.8046 41.2736L62.7255 41.3774L62.7156 41.3873V41.3972C59.4362 46.2244 58.0117 49.2958 58.4766 50.5274C58.63 50.928 58.9168 51.0318 59.0059 51.0516L59.0652 51.0665H61.5977C60.7371 57.4714 57.057 62.4124 50.6615 65.7607C46.566 67.9023 42.5645 68.6937 41.2834 68.9014C39.2109 60.068 37.9496 39.4238 37.9694 27.7416H51.2946C51.8437 28.2114 52.5461 28.4736 53.2732 28.4736C54.9549 28.4736 56.325 27.1036 56.325 25.4219C56.325 23.7403 54.9549 22.3703 53.2732 22.3703C52.5461 22.3703 51.8437 22.6325 51.2946 23.1023H37.9941C38.009 21.307 38.0337 19.9419 38.0436 19.1555H39.0526V17.1227C39.6808 16.9447 40.2744 16.6529 40.2744 16.1039C40.2744 15.5549 39.6857 15.174 38.3206 14.9168V13.344L38.1821 13.2006C38.1821 13.2006 38.1475 13.166 38.0931 13.1116C40.0172 11.7713 41.1944 9.56043 41.1944 7.20124C41.1944 3.22968 37.9644 0 33.9926 0C30.0207 0 26.7908 3.22968 26.7908 7.20124C26.7908 9.56043 27.9631 11.7713 29.8872 13.1116C29.8328 13.166 29.7982 13.2006 29.7982 13.2006L29.6597 13.344V14.9168C28.2945 15.174 27.7059 15.54 27.7059 16.1039C27.7059 16.6677 28.2994 16.9397 28.9276 17.1227V19.1555H29.9416C29.9564 19.9369 29.9762 21.307 29.9911 23.1023H16.6905C16.1415 22.6325 15.4391 22.3703 14.712 22.3703C13.0303 22.3703 11.6602 23.7403 11.6602 25.4219C11.6602 27.1036 13.0303 28.4736 14.712 28.4736C15.4391 28.4736 16.1415 28.2114 16.6905 27.7416H30.0207C30.0455 39.4238 28.7792 60.073 26.7067 68.9014C25.4207 68.6887 21.4241 67.9023 17.3286 65.7607C10.9281 62.4124 7.25306 57.4714 6.39241 51.0665H8.9249L8.98425 51.0516C9.06834 51.0318 9.36017 50.928 9.5135 50.5274C9.97845 49.3008 8.55392 46.2294 5.27949 41.3972V41.3873L5.26466 41.3774L5.18551 41.2736L4.79476 40.7592L4.404 41.2736L4.32486 41.3774L4.31497 41.3873L4.30508 41.3972C1.04549 46.2244 -0.379039 49.2958 0.0859103 50.5224C0.239245 50.923 0.531075 51.0269 0.615161 51.0467L0.674516 51.0615H3.1526C2.95969 52.4612 2.72722 54.6918 4.67605 59.2074C6.10552 62.5113 8.41543 65.5629 11.5464 68.2832C15.4342 71.6612 20.603 74.5348 26.9145 76.8198C28.8237 77.4875 33.0281 78.4025 33.587 79.3175L34.0025 80L34.418 79.3175C34.9769 78.4025 39.1812 77.4924 41.0855 76.8247C47.4019 74.5397 52.5708 71.6662 56.4586 68.2881C59.5895 65.5679 61.8995 62.5162 63.3289 59.2124C65.2827 54.6968 65.0502 52.4711 64.8524 51.0665H67.3255L67.3849 51.0516C67.4689 51.0318 67.7608 50.928 67.9141 50.5274C68.3791 49.3008 66.9545 46.2294 63.6801 41.3972H63.6851ZM29.7289 2.52736C29.6696 2.56198 29.6399 2.58671 29.6399 2.58671C29.6399 2.58671 29.6646 2.55703 29.7141 2.50757C29.7635 2.45811 29.8328 2.38393 29.9317 2.29985C30.0306 2.21082 30.1543 2.1119 30.2977 2.00309C30.4461 1.89923 30.6143 1.77558 30.8121 1.66677C30.9111 1.61236 31.01 1.54807 31.1188 1.49366C31.2276 1.4442 31.3414 1.3898 31.4601 1.33539C31.5739 1.27604 31.7025 1.23648 31.8311 1.18702C31.9597 1.1425 32.0883 1.0881 32.2268 1.05348C32.5038 0.984235 32.7857 0.895209 33.0874 0.870479C33.2358 0.855641 33.3842 0.82102 33.5375 0.816074L33.9926 0.801237H34.2201L34.4476 0.825966C34.601 0.840804 34.7494 0.860587 34.8978 0.875425C35.0462 0.885317 35.1896 0.934776 35.333 0.964451C35.4765 0.999073 35.615 1.03369 35.7535 1.06832C36.0255 1.1524 36.2778 1.26615 36.5152 1.36012C36.6388 1.40464 36.7477 1.46399 36.8565 1.52334C36.9604 1.58269 37.0642 1.64204 37.1632 1.69645C37.3561 1.8102 37.5391 1.90417 37.6776 2.02782C37.821 2.14158 37.9447 2.23555 38.0485 2.31963C38.2513 2.48284 38.3601 2.57682 38.3601 2.57682C38.3601 2.57682 38.2266 2.51252 37.9941 2.39876C37.8804 2.33941 37.7419 2.27017 37.5836 2.18609C37.4303 2.09212 37.2373 2.03277 37.0395 1.94869C36.9406 1.90912 36.8367 1.86461 36.7279 1.82009C36.6191 1.77558 36.5102 1.72612 36.3915 1.69645C36.1541 1.63215 35.9068 1.54807 35.6496 1.47883C35.3874 1.43431 35.1154 1.37002 34.8384 1.33539C34.6999 1.3255 34.5565 1.31066 34.418 1.30077L34.2053 1.28099H33.9926L33.5672 1.29088C33.4287 1.29088 33.2853 1.32056 33.1468 1.33045C32.8698 1.35023 32.5977 1.40958 32.3356 1.46399C32.202 1.48377 32.0784 1.53323 31.9547 1.56291C31.8311 1.59753 31.7074 1.62226 31.5887 1.66677C31.3562 1.75085 31.1336 1.82009 30.9358 1.90912C30.733 1.98825 30.5549 2.08223 30.3917 2.15147C30.2334 2.23555 30.0949 2.29985 29.9812 2.36909C29.8674 2.43338 29.7784 2.48284 29.724 2.51747L29.7289 2.52736ZM29.9762 7.20124C29.9762 4.98053 31.7816 3.17527 34.0025 3.17527C36.2234 3.17527 38.0287 4.98053 38.0287 7.20124C38.0287 8.80866 37.0593 10.2578 35.5952 10.8958C34.6851 10.2232 34.2696 10.1292 34.0025 10.1292C33.7354 10.1292 33.3199 10.2182 32.4098 10.8958C30.9457 10.2628 29.9762 8.80866 29.9762 7.20124ZM4.70078 41.6841C4.72057 41.5802 4.76508 41.4219 4.76508 41.4219L4.9382 41.7236C10.2208 50.0526 8.79629 50.4779 8.79629 50.4779L5.96208 50.5175H5.7395C7.04037 66.1366 24.6689 69.3811 27.4932 69.8016L27.5328 69.5889C29.9713 59.89 30.5352 31.5252 30.4659 27.7416C30.461 27.4646 30.9358 27.4547 30.9457 27.7416C31.099 31.5648 31.1534 59.8751 28.8732 69.6037C28.8732 69.6037 28.4577 71.4832 29.813 73.2785C30.1048 73.6643 31.4057 74.3864 31.4057 74.3864C-0.581834 67.8479 4.27045 43.8949 4.70078 41.6841ZM15.8398 24.6108C15.8052 24.69 15.7656 24.774 15.731 24.8532C15.6815 24.962 15.637 25.0757 15.5925 25.1845C15.5727 25.2389 15.5529 25.2983 15.5381 25.3379C15.5381 25.3577 15.5282 25.3725 15.5232 25.3873V25.4368L15.5133 25.4615C15.5133 25.5209 15.5529 25.6445 15.5925 25.7434C15.637 25.8522 15.6815 25.966 15.731 26.0748C15.8299 26.2924 15.9239 26.4952 16.003 26.6782C16.1613 27.0343 16.2503 27.2964 16.2503 27.2964C16.2503 27.2964 16.0327 27.1332 15.7705 26.8266C15.7062 26.7524 15.632 26.6683 15.5677 26.5743C15.4985 26.4804 15.4243 26.3864 15.36 26.2776C15.2907 26.1688 15.2215 26.06 15.1671 25.9314C15.1127 25.7978 15.0484 25.6841 15.0335 25.4665V25.4368V25.4318V25.4219V25.3972V25.3478C15.0484 25.3032 15.0632 25.2538 15.0731 25.2093C15.0978 25.1301 15.1275 25.0658 15.1572 25.0015C15.2166 24.873 15.2858 24.7592 15.3501 24.6553C15.4144 24.5465 15.4886 24.4476 15.5578 24.3586C15.6271 24.2646 15.6963 24.1805 15.7606 24.1063C16.0178 23.8096 16.2305 23.6464 16.2404 23.6414H30.5005C30.4313 22.0587 30.4362 19.1802 30.4362 19.1802L30.5203 19.1604L30.8814 19.1505C30.8567 18.5274 30.8814 17.7904 30.8715 17.1722C30.7132 17.0535 30.5698 16.91 30.4461 16.732C30.3027 16.5193 30.2186 16.2423 30.2334 15.9753C30.2483 15.7082 30.3521 15.4609 30.4807 15.2581C30.545 15.1543 30.6192 15.0603 30.6984 14.9713C30.7379 14.9267 30.7775 14.8822 30.822 14.8427C30.8418 14.8229 30.8567 14.808 30.8764 14.7932L30.9012 13.4776V13.3935L30.9556 13.3391C31.9349 12.3747 32.9242 11.4201 33.953 10.51C33.1023 11.5536 32.207 12.5577 31.3018 13.5567L31.3266 14.902V15.0059L31.2425 15.085C31.2128 15.1097 31.1732 15.1444 31.1435 15.179C31.1089 15.2136 31.0792 15.2482 31.0446 15.2878C30.9803 15.362 30.9259 15.4362 30.8764 15.5202C30.7775 15.6785 30.7132 15.8516 30.7083 16.0148C30.6885 16.3413 30.921 16.643 31.2375 16.8705L31.3364 16.9397V17.0584C31.3513 17.7904 31.3562 18.5224 31.3562 19.2544V19.477L31.1386 19.472L30.8666 19.4621C30.8171 20.476 30.8666 22.5583 30.7973 23.6464H51.7448C51.7448 23.6464 51.9673 23.8195 52.2245 24.1162C52.2888 24.1904 52.363 24.2745 52.4273 24.3685C52.4966 24.4624 52.5708 24.5564 52.6351 24.6652C52.6994 24.774 52.7736 24.8878 52.828 25.0114C52.8824 25.145 52.9467 25.2587 52.9615 25.4764V25.506V25.511V25.5209V25.5456V25.5951C52.9467 25.6396 52.9319 25.689 52.922 25.7335C52.8972 25.8127 52.8676 25.877 52.8379 25.9413C52.7785 26.0699 52.7093 26.1836 52.64 26.2875C52.5757 26.3963 52.5015 26.4952 52.4323 26.5842C52.363 26.6782 52.2938 26.7573 52.2295 26.8365C51.9673 27.1382 51.7497 27.3063 51.7497 27.3063C51.7497 27.3063 51.8338 27.0442 51.9921 26.6881C52.0712 26.51 52.1652 26.3023 52.2641 26.0847C52.3136 25.9759 52.3581 25.8621 52.4026 25.7533C52.4224 25.6989 52.4422 25.6396 52.457 25.5951C52.457 25.5753 52.4669 25.5604 52.4719 25.5456V25.4961L52.4818 25.4714C52.4818 25.4121 52.4422 25.2884 52.4026 25.1895C52.3581 25.0807 52.3136 24.9669 52.2641 24.8581C52.2245 24.774 52.1899 24.6949 52.1503 24.6158H15.8398V24.6108ZM63.2448 49.9338C63.2349 50.0476 63.1459 50.3543 63.1162 50.5224C61.8599 58.055 57.1758 66.6609 41.5604 69.6383H41.506C46.1802 68.7481 61.0536 64.821 62.2407 50.5224H62.0182L59.1839 50.4779C59.1839 50.4779 57.7644 50.0476 63.042 41.7236L63.2152 41.4219C63.2152 41.4219 63.2597 41.5802 63.2795 41.6841C63.2795 41.6841 60.6134 45.8485 60.0298 49.5629C59.9704 49.9487 63.2795 49.5036 63.2399 49.9338H63.2448Z" fill="white"/>
</svg>
