<svg width="62" height="62" viewBox="0 0 62 62" fill="none" xmlns="http://www.w3.org/2000/svg">
<g opacity="0.9">
<path d="M33.9867 31.0118C33.9867 32.6604 32.6475 33.9996 30.9988 33.9996C29.3502 33.9996 28.011 32.6604 28.011 31.0118C28.011 29.3631 29.3502 28.0239 30.9988 28.0239C32.6475 28.0239 33.9867 29.3631 33.9867 31.0118Z" fill="white"/>
<path d="M30.9995 37.5273C27.404 37.5273 24.4836 34.6014 24.4836 31.0115C24.4836 27.4216 27.4096 24.4956 30.9995 24.4956C34.5894 24.4956 37.521 27.4216 37.521 31.0115C37.521 34.6014 34.595 37.5273 30.9995 37.5273ZM30.9995 26.1555C28.3211 26.1555 26.1436 28.3331 26.1436 31.0115C26.1436 33.6898 28.3211 35.8674 30.9995 35.8674C33.6779 35.8674 35.8555 33.6898 35.8555 31.0115C35.8555 28.3331 33.6779 26.1555 30.9995 26.1555Z" fill="white"/>
<path d="M31.0002 46.7663C22.3124 46.7663 15.2395 39.699 15.2395 31.0056C15.2395 22.3122 22.3068 15.2449 31.0002 15.2449C39.6937 15.2449 46.761 22.3122 46.761 31.0056C46.761 39.699 39.6937 46.7663 31.0002 46.7663ZM31.0002 19.1274C24.4506 19.1274 19.122 24.456 19.122 31.0056C19.122 37.5552 24.4506 42.8838 31.0002 42.8838C37.5499 42.8838 42.8785 37.5552 42.8785 31.0056C42.8785 24.456 37.5499 19.1274 31.0002 19.1274Z" fill="white"/>
<path d="M30.2184 12.5442H30.3197V25.2777C30.5448 25.2495 30.7698 25.2326 31.0005 25.2326C31.2312 25.2326 31.4563 25.2495 31.6814 25.2777V12.5442H31.7827C32.0865 12.5442 32.3341 12.2966 32.3341 11.9871V10.3047C32.3341 10.0008 32.0865 9.74762 31.7827 9.74762H31.6814V9.08366H31.6926C32.0021 9.08366 32.2497 8.83608 32.2497 8.5266V7.85701C32.2497 7.55316 32.0021 7.29996 31.6926 7.29996H31.6814V5.85949C32.019 5.66817 32.2497 5.31369 32.2497 4.8973V1.34115C32.2497 0.727823 31.7545 0.232666 31.1412 0.232666H30.8655C30.2522 0.232666 29.757 0.727823 29.757 1.34115V4.8973C29.757 5.31369 29.9877 5.66817 30.3253 5.85949V7.29996H30.3141C30.0102 7.29996 29.7626 7.54753 29.7626 7.85701V8.5266C29.7626 8.83045 30.0102 9.08366 30.3141 9.08366H30.3253V9.74762H30.224C29.9202 9.74762 29.667 9.99521 29.667 10.3047V11.9871C29.667 12.2909 29.9146 12.5442 30.224 12.5442H30.2184Z" fill="white"/>
<path d="M25.2214 31.0111C25.2214 30.7804 25.2383 30.5553 25.2664 30.3302H12.5329V30.2289C12.5329 29.9251 12.2853 29.6719 11.9815 29.6719H10.2991C9.98958 29.6719 9.74762 29.9195 9.74762 30.2289V30.3302H9.08366V30.319C9.08366 30.0151 8.83608 29.7619 8.53223 29.7619H7.86264C7.55879 29.7619 7.31121 30.0095 7.31121 30.319V30.3302H5.87074C5.67943 29.9926 5.32494 29.7619 4.90856 29.7619H1.34115C0.727826 29.7619 0.232666 30.2571 0.232666 30.8704V31.1461C0.232666 31.7594 0.727826 32.2546 1.34115 32.2546H4.8973C5.31369 32.2546 5.66818 32.0239 5.85949 31.6863H7.29996V31.6975C7.29996 32.0014 7.54754 32.2546 7.85138 32.2546H8.52098C8.82483 32.2546 9.07241 32.007 9.07241 31.6975V31.6863H9.73637V31.7876C9.73637 32.0914 9.98395 32.3446 10.2878 32.3446H11.9702C12.2741 32.3446 12.5216 32.097 12.5216 31.7876V31.6863H25.2495C25.2214 31.4612 25.2045 31.2361 25.2045 31.0054L25.2214 31.0111Z" fill="white"/>
<path d="M31.7761 49.4784H31.6748V36.7505C31.4497 36.7786 31.2247 36.7955 30.994 36.7955C30.7633 36.7955 30.5382 36.7786 30.3131 36.7505V49.4784H30.2118C29.908 49.4784 29.6548 49.7259 29.6548 50.0298V51.7122C29.6548 52.0161 29.9024 52.2636 30.2118 52.2636H30.3131V52.9276H30.3019C29.998 52.9276 29.7504 53.1752 29.7504 53.479V54.1486C29.7504 54.4525 29.998 54.7001 30.3019 54.7001H30.3131V56.1405C29.9755 56.3318 29.7448 56.6863 29.7448 57.1027V60.6589C29.7448 61.2722 30.24 61.7673 30.8533 61.7673H31.129C31.7423 61.7673 32.2375 61.2722 32.2375 60.6589V57.1027C32.2375 56.6863 32.0068 56.3318 31.6692 56.1405V54.7001H31.6804C31.9899 54.7001 32.2375 54.4525 32.2375 54.1486V53.479C32.2375 53.1752 31.9899 52.9276 31.6804 52.9276H31.6692V52.2636H31.7705C32.0743 52.2636 32.3219 52.0161 32.3219 51.7122V50.0298C32.3219 49.7259 32.0743 49.4784 31.7705 49.4784H31.7761Z" fill="white"/>
<path d="M60.6594 29.7619H57.1032C56.6868 29.7619 56.3324 29.9926 56.141 30.3302H54.7062V30.319C54.7062 30.0151 54.4586 29.7619 54.1491 29.7619H53.4795C53.1701 29.7619 52.9225 30.0095 52.9225 30.319V30.3302H52.2585V30.2289C52.2585 29.9251 52.011 29.6719 51.7071 29.6719H50.0247C49.7208 29.6719 49.4676 29.9195 49.4676 30.2289V30.3302H36.7397C36.7679 30.5553 36.7848 30.7804 36.7848 31.0111C36.7848 31.2418 36.7679 31.4668 36.7397 31.6919H49.4676V31.7932C49.4676 32.097 49.7152 32.3502 50.0247 32.3502H51.7071C52.011 32.3502 52.2585 32.1027 52.2585 31.7932V31.6919H52.9225V31.7032C52.9225 32.007 53.1701 32.2602 53.4795 32.2602H54.1491C54.453 32.2602 54.7062 32.0126 54.7062 31.7032V31.6919H56.141C56.3324 32.0295 56.6868 32.2602 57.1032 32.2602H60.6594C61.2727 32.2602 61.7679 31.7651 61.7679 31.1517V30.876C61.7679 30.2627 61.2727 29.7675 60.6594 29.7675V29.7619Z" fill="white"/>
<path d="M11.6612 13.4385C11.9538 13.7311 12.3645 13.8211 12.7415 13.7198L13.76 14.7383L13.7487 14.7495C13.5349 14.9634 13.5349 15.3178 13.7487 15.5317L14.2214 16.0043C14.3114 16.0944 19.7638 21.5467 26.1278 27.9107C26.5779 27.2017 27.18 26.5996 27.8946 26.1439C21.5306 19.7799 16.0783 14.3275 15.9882 14.2375L15.5156 13.7648C15.3018 13.5454 14.9473 13.551 14.7278 13.7648H14.7222L13.7037 12.7576C13.805 12.3863 13.7206 11.9699 13.4224 11.6773L10.9072 9.16211C10.4739 8.72884 9.77058 8.72884 9.33732 9.16211L9.14038 9.35904C8.70711 9.79231 8.70711 10.4957 9.14038 10.9289L11.6556 13.4441L11.6612 13.4385Z" fill="white"/>
<path d="M35.8679 27.9053C42.2318 21.5414 47.6842 16.089 47.7743 15.999L48.2469 15.5263C48.4607 15.3069 48.4607 14.958 48.2469 14.7442L48.2357 14.7329L49.2541 13.7145C49.6255 13.8158 50.0419 13.7257 50.3345 13.4331L52.8497 10.9179C53.2829 10.4847 53.2829 9.78133 52.8497 9.34806L52.6527 9.15112C52.2195 8.71786 51.5161 8.71786 51.0828 9.15112L48.5677 11.6663C48.2751 11.9589 48.185 12.3753 48.2863 12.7467L47.2679 13.7651H47.2566C47.0428 13.54 46.6883 13.54 46.4745 13.7595L46.0018 14.2321C45.9118 14.3222 40.4594 19.7746 34.0955 26.1385C34.8044 26.5943 35.4065 27.1963 35.8623 27.9053H35.8679Z" fill="white"/>
<path d="M50.3403 48.5833C50.0477 48.2907 49.6313 48.2007 49.26 48.3019L48.2415 47.2835H48.2528C48.4666 47.0584 48.4666 46.7095 48.2528 46.4901L47.7801 46.0174C47.6901 45.9274 42.2377 40.475 35.8738 34.1111C35.4236 34.8201 34.8159 35.4221 34.1069 35.8779C40.4709 42.2418 45.9233 47.6942 46.0133 47.7843L46.4859 48.2569C46.6998 48.4707 47.0543 48.4707 47.2681 48.2569L47.2793 48.2457L48.2978 49.2641C48.1965 49.6355 48.2809 50.0519 48.5791 50.3445L51.0943 52.8597C51.5276 53.2929 52.2309 53.2929 52.6642 52.8597L52.8611 52.6627C53.2944 52.2295 53.2944 51.5261 52.8611 51.0928L50.3459 48.5777L50.3403 48.5833Z" fill="white"/>
<path d="M26.1334 34.1172C19.7694 40.4811 14.317 45.9335 14.227 46.0235L13.7544 46.4962C13.5405 46.7156 13.5405 47.0645 13.7544 47.2783H13.7656L12.7471 48.3024C12.3758 48.2011 11.9594 48.2912 11.6668 48.5838L9.15161 51.0989C8.71834 51.5322 8.71834 52.2356 9.15161 52.6688L9.34855 52.8658C9.78181 53.299 10.4852 53.299 10.9184 52.8658L13.4336 50.3506C13.7262 50.058 13.8162 49.6416 13.715 49.2702L14.7334 48.2518V48.263C14.9585 48.4768 15.3074 48.4768 15.5268 48.263L15.9995 47.7904C16.0895 47.7003 21.5419 42.2479 27.9058 35.884C27.1968 35.4282 26.5948 34.8262 26.139 34.1172H26.1334Z" fill="white"/>
<path d="M31 13.8668C40.4531 13.8668 48.1449 21.5587 48.1449 31.0117C48.1449 40.4648 40.4531 48.1567 31 48.1567C21.5469 48.1567 13.8551 40.4648 13.8551 31.0117C13.8551 21.5587 21.5469 13.8668 31 13.8668ZM31 12.7583C20.9224 12.7583 12.7466 20.9285 12.7466 31.0117C12.7466 41.095 20.9167 49.2651 31 49.2651C41.0833 49.2651 49.2534 41.095 49.2534 31.0117C49.2534 20.9285 41.0833 12.7583 31 12.7583Z" fill="white"/>
</g>
</svg>
