<svg width="81" height="80" viewBox="0 0 81 80" fill="none" xmlns="http://www.w3.org/2000/svg">
<path d="M77.9167 38.4843C76.1105 38.3822 71.234 39.3862 70.5898 39.2428L69.3938 38.5937L69.0583 38.9097L68.3339 38.8684V38.5864L66.7319 38.5718L66.7246 38.3506H66.5253C66.1728 32.3851 63.8512 26.9592 60.2097 22.6783L60.3069 22.5786L60.2194 22.4814L61.3668 21.3632L61.1869 21.1735L61.6755 20.6412L62.1301 20.6266L62.558 19.3041C62.9177 18.7718 67.116 16.1026 68.3533 14.7559C69.5931 13.4213 68.8322 12.2568 68.5527 11.987C68.2731 11.6807 67.1281 10.915 65.7571 12.1086C64.386 13.324 61.6318 17.498 61.1115 17.8504L59.7915 18.2564L59.7526 18.694L59.23 19.1729L59.0355 18.9881L57.8808 20.1185L57.6183 19.8535L57.5283 19.9508C53.3277 16.2363 47.9115 13.8199 41.9678 13.3508V13.3143H41.9362L41.9508 11.7366H41.6616L41.6348 10.9927L41.9606 10.6621L41.3164 9.44667C41.2045 8.80733 42.2863 3.94787 42.2037 2.11494C42.1137 0.318472 40.7645 0.00487712 40.3586 1.52318e-05C39.9696 -0.00241571 38.5913 0.284435 38.5086 2.0809C38.3871 3.91141 39.3765 8.78788 39.2646 9.42722L38.5986 10.6305L38.9049 10.9684L38.8611 11.7074L38.5888 11.7026L38.5742 13.2803L38.178 13.2949V13.3119L36.0169 13.5428C30.89 14.3134 26.2737 16.5815 22.5252 19.8341L21.368 18.6575L21.1638 18.8398L20.6485 18.3512L20.6339 17.9112L19.3114 17.4834C18.7766 17.1236 16.1172 12.9035 14.7559 11.6613C13.431 10.4434 12.2617 11.1872 11.9749 11.4911C11.6856 11.7561 10.9004 12.9083 12.1207 14.2624C13.3289 15.631 17.4907 18.3755 17.8359 18.9128L18.2491 20.2425L18.7013 20.2644L19.1802 20.8065L18.9784 20.9937L20.1282 22.1435C16.2728 26.4292 13.8661 31.984 13.431 38.1051L11.7269 38.0905V38.3725L11 38.3992L10.6694 38.0783L9.43938 38.7055C8.81705 38.8368 3.93328 37.7477 2.12223 37.8182C0.306315 37.8887 0.00487764 39.2622 1.57522e-05 39.6852C-0.00241519 40.0571 0.274713 41.4355 2.0882 41.5327C3.89682 41.6348 8.79761 40.6527 9.4175 40.7743L10.6354 41.4233L10.9733 41.1049L11.6953 41.1632V41.433L13.3994 41.4452C13.73 47.5736 16.0904 53.1186 19.8657 57.4773L18.6454 58.6539L18.8447 58.8605L18.3561 59.388L17.9039 59.405L17.4688 60.708C17.1139 61.2258 12.9059 63.9266 11.671 65.2612C10.4288 66.5957 11.1921 67.7772 11.4789 68.047C11.7634 68.3217 12.9156 69.1045 14.2624 67.9036C15.6456 66.6906 18.378 62.5482 18.9201 62.169L20.2498 61.7946L20.2717 61.34L20.7968 60.8368L20.9985 61.024L22.2043 59.8499C26.4949 63.7078 31.9961 66.1655 38.1099 66.6006L38.0929 68.2974H38.3652L38.3968 69.0218L38.0808 69.3573L38.7298 70.5704C38.8271 71.2121 37.755 76.0862 37.8425 77.9167C37.8936 79.7301 39.2695 79.9951 39.656 80C40.0596 80.0024 41.4136 79.7617 41.5351 77.9483C41.6518 76.1202 40.6527 71.2291 40.7791 70.5922L41.4428 69.3889L41.1267 69.0462L41.1656 68.3266H41.4525L41.4671 66.7319H41.4987V66.7149C47.4496 66.3502 52.9071 64.0457 57.1734 60.3896L57.2609 60.4722L57.5259 60.2194L58.6636 61.3571L58.8629 61.1747L59.3783 61.6877L59.4075 62.1423L60.7202 62.5385C61.2331 62.9275 63.9144 67.116 65.2636 68.3533C66.6103 69.5737 67.7699 68.8152 68.0543 68.5454C68.3387 68.278 69.1239 67.1111 67.906 65.7571C66.6906 64.403 62.5385 61.6269 62.1885 61.1018L61.7849 59.7891L61.3279 59.7672L60.849 59.2276L61.0338 59.0234L59.9179 57.893L59.986 57.8249L59.9009 57.7082C63.6178 53.5051 66.0342 48.1036 66.4888 42.1429H66.6906L66.7027 41.9119L68.3071 41.9265V41.6567L69.034 41.6129L69.3646 41.9362L70.5776 41.3091C71.2218 41.1997 76.0789 42.2669 77.8875 42.1964C79.7277 42.1283 80.0219 40.7548 80.0243 40.3829C80.0292 39.9623 79.7593 38.5815 77.9191 38.4843H77.9167ZM60.1246 41.9922L59.1473 42.0797C58.7219 45.8525 57.2512 49.268 54.9856 52.0733L55.6273 52.8512C54.7814 53.8698 53.8649 54.7984 52.8342 55.6322L52.0709 54.9929C49.2655 57.2658 45.8501 58.7584 42.0748 59.1887L41.9776 60.1173L39.8286 60.2145L38.0322 60.1173L37.9519 59.2227C34.111 58.8483 30.6299 57.3995 27.776 55.1363L27.1877 55.6225C26.1716 54.7911 25.2211 53.8576 24.3897 52.8269L24.8516 52.2799C22.4814 49.4187 20.9402 45.9108 20.5172 42.0311L19.8827 41.9727L19.7855 39.8554L19.9022 38.0419L20.5002 37.986C20.8867 34.0503 22.3939 30.4914 24.7568 27.5985L24.414 27.1828C25.26 26.1643 26.1764 25.2186 27.1877 24.3994L27.6156 24.7446C30.5132 22.4085 34.0721 20.9037 37.9908 20.5293L38.0443 19.8924L40.1811 19.7928L41.9727 19.8924L42.0432 20.5658C45.9035 21.0082 49.3968 22.5495 52.241 24.9002L52.8488 24.4043C53.8527 25.2357 54.8032 26.1667 55.6322 27.2023L55.0974 27.827C57.3557 30.681 58.7997 34.1475 59.1789 37.9617L60.1197 38.0565L60.2242 40.2078L60.1246 41.9873V41.9922Z" fill="white"/>
<path d="M59.1787 37.9691C58.515 37.9351 57.776 38.0007 56.969 38.4383C54.9416 39.5322 52.428 38.448 51.9636 38.0907C51.6792 36.2262 50.9524 34.454 49.8196 32.9006C49.9119 32.3002 50.9256 29.8036 53.1159 29.1521C54.0688 28.8653 54.645 28.3499 55.0971 27.837C54.2487 26.7601 53.2958 25.7877 52.2408 24.9101C51.7035 25.355 51.1639 25.9335 50.8649 26.901C50.2061 29.1108 47.6609 30.1269 47.1115 30.1926L46.2412 29.5994C44.8556 28.8093 43.3946 28.294 41.9409 28.0485C41.5568 27.572 40.5188 25.0973 41.5957 23.0723C42.1013 22.134 42.1232 21.2953 42.0405 20.5782L40.0034 20.3594L37.9906 20.5417C37.9031 21.2661 37.9128 22.1169 38.4354 23.0796C39.5123 25.1119 38.4452 27.5987 38.0708 28.0509C36.2208 28.3523 34.4365 29.0719 32.9026 30.2047C32.2973 30.1172 29.8202 29.1059 29.1492 26.9132C28.8356 25.8241 28.2084 25.1994 27.6153 24.7545C26.5603 25.6102 25.6122 26.5583 24.7541 27.606C25.1941 28.2016 25.8261 28.8239 26.9128 29.1594C29.1055 29.8182 30.124 32.3634 30.1872 32.9347L29.6281 33.8049C28.7894 35.1541 28.2789 36.6321 28.0431 38.1004C27.5521 38.4675 25.0701 39.4885 23.067 38.4262C22.0898 37.9059 21.2219 37.8913 20.4951 37.991L20.303 39.734C20.2957 40.5192 20.4319 41.2752 20.5145 42.0385C21.2414 42.1358 22.0898 42.1139 23.0767 41.5864C25.0798 40.5143 27.608 41.5937 28.0431 41.934C28.3446 43.8034 29.086 45.5902 30.1775 47.1411C30.1022 47.744 29.0836 50.2211 26.903 50.875C25.9015 51.1789 25.2937 51.7429 24.8465 52.2874C25.7216 53.3376 26.6891 54.2954 27.7684 55.1438C28.3008 54.7013 28.8478 54.1009 29.1492 53.0969C29.808 50.9188 32.3508 49.8978 32.905 49.8346L33.7777 50.4132C35.1634 51.2348 36.6171 51.7502 38.0927 51.9811C38.4573 52.4722 39.4953 54.9517 38.416 56.9597C37.9638 57.8032 37.9079 58.5568 37.942 59.2326L39.6509 59.4222C40.4774 59.4295 41.2675 59.2934 42.0624 59.1986C42.0989 58.5398 42.0381 57.8105 41.5762 56.9889C40.4969 54.9444 41.5835 52.4357 41.9384 51.9665C43.8005 51.6797 45.5605 50.9407 47.1285 49.8151C47.7168 49.9391 50.1915 50.9334 50.8649 53.1212C51.1274 54.0061 51.5844 54.5603 52.0584 55.0028C53.1354 54.1301 54.1053 53.1626 54.9756 52.0832C54.5331 51.6116 53.974 51.157 53.1159 50.8896C50.9281 50.2187 49.8876 47.6856 49.8244 47.1168L50.4005 46.2441C51.2246 44.873 51.723 43.4023 51.9758 41.9462C52.462 41.5597 54.9391 40.5411 56.9446 41.6034C57.759 42.0483 58.4834 42.1163 59.1374 42.0896L59.3537 40.0816L59.1714 37.9789L59.1787 37.9691ZM47.2257 44.3309C44.8531 48.308 39.6874 49.5891 35.7079 47.2213C31.7139 44.8317 30.4303 39.7 32.8054 35.7059C35.1707 31.7119 40.3462 30.4138 44.3135 32.801C48.2929 35.1881 49.6081 40.3393 47.2257 44.3309Z" fill="white"/>
</svg>
