<svg width="70" height="70" viewBox="0 0 70 70" fill="none" xmlns="http://www.w3.org/2000/svg">
<path d="M35.5 68C31.113 68 26.8567 67.1406 22.8492 65.4455C18.979 63.8086 15.5034 61.4654 12.519 58.481C9.53469 55.4966 7.19144 52.0211 5.55451 48.1509C3.85945 44.1433 3 39.887 3 35.5C3 31.1131 3.85945 26.8568 5.55451 22.8492C7.19144 18.979 9.53469 15.5034 12.519 12.519C15.5034 9.53469 18.979 7.19144 22.8492 5.55451C26.8567 3.85945 31.113 3 35.5 3C39.887 3 44.1433 3.85945 48.1509 5.55451C52.0211 7.19144 55.4966 9.53469 58.481 12.519C61.4653 15.5034 63.8086 18.979 65.4455 22.8492C67.1405 26.8567 68 31.1131 68 35.5C68 39.887 67.1405 44.1433 65.4455 48.1509C63.8086 52.0211 61.4654 55.4966 58.481 58.481C55.4966 61.4653 52.0211 63.8086 48.1509 65.4455C44.1433 67.1406 39.8869 68 35.5 68ZM35.5 5.41879C31.4386 5.41879 27.4992 6.21397 23.7914 7.78226C20.2095 9.29727 16.9924 11.4664 14.2294 14.2295C11.4664 16.9924 9.29727 20.2096 7.78219 23.7915C6.21397 27.4993 5.41872 31.4386 5.41872 35.5001C5.41872 39.5616 6.2139 43.5009 7.78219 47.2087C9.2972 50.7906 11.4664 54.0078 14.2294 56.7708C16.9924 59.5337 20.2095 61.7029 23.7914 63.218C27.4992 64.7862 31.4386 65.5814 35.5 65.5814C39.5615 65.5814 43.5008 64.7862 47.2086 63.218C50.7905 61.7029 54.0077 59.5338 56.7707 56.7708C59.5336 54.0077 61.7028 50.7906 63.2179 47.2087C64.7862 43.5009 65.5813 39.5616 65.5813 35.5001C65.5813 31.4386 64.7862 27.4993 63.2179 23.7915C61.7028 20.2096 59.5337 16.9925 56.7707 14.2295C54.0077 11.4664 50.7905 9.29734 47.2086 7.78226C43.5008 6.21397 39.5615 5.41879 35.5 5.41879Z" fill="white"/>
<path d="M38.5587 10.9873C37.8855 11.7685 36.7991 12.0093 35.8119 12.3076C34.8247 12.6059 33.7575 13.1154 33.4412 14.0968C33.3907 14.2523 33.3611 14.4171 33.2804 14.5587C33.0047 15.0427 32.2944 15.0415 31.7791 14.8309C30.446 14.2871 29.6364 12.6987 29.9794 11.3007C30.0549 10.9936 30.1791 10.6936 30.1884 10.3774C30.197 10.0617 30.0526 9.70935 29.7542 9.6043C29.6022 9.55035 29.4351 9.56831 29.2754 9.54393C28.7345 9.46148 28.3759 8.89334 28.3428 8.34727C28.3225 8.01648 28.3933 7.69266 28.4984 7.37635C30.7402 6.81982 33.086 6.52441 35.5002 6.52441C36.6226 6.52441 37.7299 6.58828 38.8186 6.71245C39.0136 7.41521 39.2028 8.12617 39.222 8.85448C39.2418 9.61598 39.0566 10.4105 38.5587 10.9873Z" fill="white"/>
<path d="M32.5874 46.913C32.3622 47.3877 32.0558 47.8224 31.8614 48.3105C31.5764 49.0278 31.5375 49.8507 31.1005 50.4868C30.638 51.1606 29.8174 51.4954 29.2655 52.0984C28.4478 52.9927 28.3387 54.3245 27.7218 55.3675C27.1402 56.3511 26.1357 57.0308 25.5658 58.0208C24.7806 59.3852 24.9582 61.0479 25.2757 62.6195C24.3773 62.2812 23.5004 61.8987 22.6472 61.4751C21.7222 58.708 20.9399 56.1991 21.1099 53.1239C21.1534 52.3433 21.2184 51.5204 20.8754 50.8182C20.1668 49.365 18.1275 49.13 17.0985 47.8834C16.286 46.8991 16.2663 45.4842 16.4839 44.2272C16.6435 43.3027 16.9099 42.3835 17.0045 41.456C17.0428 41.0783 16.8107 40.7219 16.4497 40.6058C16.0812 40.4868 15.7307 40.3017 15.4097 40.0841C14.8555 39.7092 14.3732 39.2397 13.8707 38.7981C13.4528 38.4307 13.006 38.0732 12.4755 37.9061C12.0356 37.7674 11.5655 37.768 11.11 37.7001C9.90107 37.5196 8.80133 36.8487 7.95172 35.9707C7.40154 35.4019 6.94774 34.7502 6.56006 34.0596C7.12471 22.5183 14.4429 12.7511 24.6465 8.62598C25.2565 8.90977 25.7927 9.35606 26.1044 9.94804C26.4938 10.6862 26.4758 11.6595 25.9477 12.3066C25.4201 12.9531 24.3645 13.1429 23.7122 12.6217C23.53 12.476 23.3657 12.2764 23.1342 12.2457C22.7442 12.194 22.4923 12.6241 22.2683 12.9473C21.396 14.2044 19.6318 14.4377 18.4392 15.3952C17.8664 15.8554 17.4137 16.5681 17.5368 17.2929C17.6262 17.8182 17.9947 18.2464 18.3516 18.6416C18.7665 19.1007 19.2894 19.5963 19.9029 19.5168C20.3172 19.4628 20.6562 19.1448 20.861 18.7804C21.0653 18.4165 21.1616 18.0038 21.2864 17.6051C21.5487 16.7671 21.9625 15.9494 22.6311 15.3807C23.3002 14.8114 24.2584 14.5316 25.0848 14.8282C25.8636 15.1085 26.3969 15.8316 26.7608 16.5745C27.1246 17.3179 27.3707 18.1228 27.8251 18.814C28.1368 19.2876 28.5615 19.76 28.525 20.3258C28.4919 20.8412 28.0636 21.2584 27.5895 21.4627C27.1148 21.667 26.589 21.7088 26.0806 21.8023C25.6819 21.8759 25.2159 21.9787 25.022 22.3345C24.8584 22.6345 24.9576 22.8974 25.1427 23.1087C25.4126 23.4168 25.3082 23.8974 24.9303 24.057C23.4098 24.6994 22.0019 25.538 20.9492 26.7904C20.1553 27.7346 19.5557 28.9161 18.4636 29.489C17.8118 29.8308 16.9176 30.0485 16.7765 30.771C16.7133 31.0942 16.8374 31.4209 16.8844 31.7471C16.9372 32.1092 16.845 32.5584 16.4584 32.6472C16.2895 32.686 16.1143 32.6379 15.971 32.5398C15.657 32.3245 15.5258 31.9722 15.3222 31.6716C14.5886 30.5945 12.9045 30.4273 11.8494 31.1928C11.1199 31.7221 10.7334 32.7504 10.6713 33.7522C10.6255 34.4921 11.2708 35.0945 12.0044 34.9883C12.0084 34.9877 12.013 34.9871 12.0171 34.9865C12.5511 34.907 13.0855 34.7364 13.6194 34.8147C14.1534 34.8931 14.6913 35.3417 14.6194 35.8762C14.5829 36.1495 14.3948 36.4089 14.4586 36.677C14.5422 37.0247 14.9728 37.1372 15.2357 37.3787C15.4911 37.6137 15.5827 37.9706 15.7104 38.2927C15.8387 38.6154 16.0574 38.9519 16.3993 39.0088C16.6419 39.0495 16.8804 38.9375 17.1073 38.8429C18.4183 38.2933 19.8959 38.2422 21.3009 38.4581C22.7065 38.674 24.8322 39.8945 26.0342 40.6245C26.6226 40.982 27.0079 41.5653 27.3022 42.2245C27.5506 42.7822 28.0398 43.1966 28.6277 43.3626C29.3136 43.5558 29.9996 43.7496 30.685 43.9429C31.5422 44.1849 32.5236 44.5413 32.7951 45.3892C32.9553 45.8893 32.8125 46.4388 32.5874 46.913Z" fill="white"/>
<path d="M64.4403 34.0654C64.0648 34.0717 63.6922 34.0428 63.3353 33.9313C62.7317 33.7427 62.1758 33.2581 62.0991 32.6302C62.0696 32.3875 62.1444 32.0962 62.3719 32.0057C62.4734 31.9651 62.5878 31.9727 62.6969 31.9814C63.2238 32.022 63.7508 32.0626 64.2777 32.1032C63.1913 22.798 57.696 14.8391 49.9362 10.3716C49.2061 10.5585 48.5219 10.942 47.9491 11.4371C47.1174 12.1561 46.5029 13.0969 46.0194 14.0846C45.6289 14.8832 45.3416 15.911 45.8999 16.6027C46.4031 17.226 47.3292 17.2464 48.1302 17.2133C48.7459 17.1877 49.5032 17.0618 49.6959 16.4769C49.8514 16.0068 49.5555 15.4044 49.9089 15.0452C50.0911 14.8606 50.3743 14.8293 50.6106 14.9361C50.9878 15.1062 51.1532 15.5112 51.1874 15.9018C51.2618 16.7503 50.7818 17.5848 50.0952 18.0891C49.4093 18.5935 48.5451 18.8047 47.6949 18.8569C46.9881 18.9004 46.2012 18.8679 45.6713 19.338C45.1919 19.7629 45.0846 20.4663 44.7201 20.9926C44.3945 21.4621 43.8705 21.7807 43.6046 22.2862C43.3441 22.7829 43.3818 23.3459 43.5315 23.9007C43.6911 24.4904 43.1931 25.0527 42.5867 24.9802C42.0881 24.9209 41.6094 24.8949 41.3157 25.3539C41.1741 25.5745 41.1265 25.842 41.1584 26.1026C41.2234 26.6394 41.2025 27.2429 41.5606 27.6997C41.6761 27.8471 41.8298 27.9637 42.0092 28.0172C42.5019 28.1652 42.871 27.8082 43.1803 27.4792C43.7084 26.9174 44.2365 26.3556 44.7646 25.7939C45.2132 25.3169 45.7472 24.8793 46.3994 24.819C47.0355 24.7604 47.4852 25.0662 47.7685 25.4034C47.9675 25.6402 48.4637 26.2745 48.8027 26.7701C48.9518 26.9889 49.2281 27.0823 49.4805 27.0023L49.4892 26.9999C49.8229 26.8932 49.9935 26.5217 49.8571 26.1991C49.737 25.9124 49.524 25.4934 49.3458 25.1533C49.1647 24.8068 49.2651 24.3779 49.5849 24.1522C49.5901 24.1481 49.5948 24.1447 49.6 24.1412C49.9441 23.8998 50.4223 23.9746 50.6718 24.3124C51.2127 25.0448 51.605 25.8874 51.811 26.7742C51.9091 27.1973 52.1082 27.7486 52.5411 27.7103C53.013 27.6685 53.2131 26.9083 53.685 26.9541C54.0581 26.9901 54.1591 27.477 54.3826 27.7782C54.9118 28.4943 56.2303 28.1745 56.726 28.9144C57.1299 29.518 56.5972 30.3833 55.9054 30.6038C55.213 30.8244 54.4679 30.616 53.7616 30.4477C53.0553 30.2788 52.2655 30.1616 51.6399 30.5307C51.3212 30.7187 51.0613 31.0257 50.7003 31.1064C50.2035 31.2173 49.7224 30.8528 49.4247 30.4402C49.127 30.0281 48.9215 29.5401 48.5409 29.2034C47.8554 28.5987 46.83 28.6533 45.9206 28.7432C44.8301 28.8511 43.7396 28.9597 42.6486 29.0676C42.2412 29.1077 41.799 29.164 41.5094 29.4536C41.2738 29.6886 41.1891 30.0304 41.0898 30.3484C40.5118 32.2009 39.1416 33.7493 38.7012 35.6389C38.4377 36.7694 38.5346 37.9916 39.0319 39.0403C39.5293 40.0895 40.4352 40.9508 41.5303 41.3361C42.9893 41.8486 44.5765 41.5021 46.1342 41.4208C46.6704 41.3929 47.1521 41.747 47.2908 42.2664C47.5751 43.3325 48.1677 44.3788 48.3291 45.485C48.5868 47.2539 47.7238 48.9909 47.628 50.776C47.5601 52.0382 47.8793 53.2889 48.2722 54.4902C48.5704 55.4007 48.9784 56.3746 49.8275 56.8185C50.6585 57.2538 51.7101 57.0408 52.4941 56.5261C53.2788 56.0113 53.8533 55.24 54.4104 54.4856C55.2954 53.2866 56.181 52.087 57.0661 50.8881C57.7155 50.0083 58.3858 49.0785 58.5349 47.995C58.6428 47.2116 58.4659 46.413 58.5366 45.6255C58.684 43.9768 59.8679 42.6309 61.0159 41.4377C61.4128 41.0251 61.8452 40.486 61.6618 39.9434C61.4726 39.3839 60.7774 39.2336 60.2278 39.0171C58.5222 38.3468 57.6818 36.4665 57.0092 34.7615C56.82 34.281 56.6731 33.6327 57.0928 33.3303C57.4398 33.079 57.9361 33.2746 58.261 33.5537C59.0527 34.2357 59.3684 35.2994 59.8489 36.2268C60.3288 37.1542 61.197 38.0671 62.2347 37.947C62.999 37.8582 63.7215 37.2215 64.4278 37.1687C64.4591 36.6168 64.4748 36.0602 64.4748 35.5002C64.475 35.0189 64.4634 34.5407 64.4403 34.0654ZM58.367 24.9662C58.3635 24.968 58.3606 24.9697 58.3571 24.972C58.1372 25.1043 57.8772 25.1502 57.6219 25.1745C56.7154 25.2605 55.8054 25.1008 54.9088 24.9424C54.7375 24.9122 54.5623 24.8803 54.4143 24.7897C54.2658 24.6998 54.1491 24.5361 54.1647 24.3637C54.1798 24.2006 54.304 24.0706 54.4282 23.965C55.0764 23.412 55.9405 23.1189 56.7914 23.1624C57.3416 23.1908 57.8824 23.3598 58.3548 23.6418C58.8492 23.9373 58.8568 24.6644 58.367 24.9662Z" fill="white"/>
<path d="M44.5512 18.5655C44.4537 18.9862 44.1426 19.3211 43.8258 19.6136C43.434 19.9739 43.0104 20.306 42.5333 20.5415C42.2739 20.6698 41.9548 20.7661 41.7052 20.6193C41.4753 20.4853 41.3906 20.18 41.4388 19.9177C41.4876 19.6559 41.6413 19.4273 41.7968 19.2108C41.9524 18.9937 42.1166 18.7755 42.1909 18.5202C42.3806 17.8685 41.9454 17.1645 42.1079 16.5058C42.1955 16.1541 42.4596 15.8506 42.7968 15.7171C42.8171 15.709 42.8386 15.7015 42.8595 15.6945C43.3302 15.5402 43.8409 15.7955 44.0283 16.254C44.1699 16.5999 44.2854 16.9614 44.3944 17.3137C44.5204 17.7205 44.6475 18.1512 44.5512 18.5655Z" fill="white"/>
<path d="M41.3962 18.7853C41.3334 18.9269 41.2558 19.0702 41.125 19.1513C40.9286 19.2723 40.662 19.213 40.4798 19.0714C40.2983 18.9298 40.1818 18.7226 40.071 18.5198C39.9762 18.3463 39.8792 18.155 39.9163 17.9609C39.9466 17.801 40.0637 17.6726 40.1835 17.5623C40.3559 17.4013 40.5489 17.2562 40.7722 17.1787C40.8538 17.1513 40.94 17.133 41.0262 17.1273C41.2797 17.1113 41.5161 17.2752 41.5772 17.5213C41.5777 17.5224 41.5777 17.5235 41.5783 17.5247C41.6811 17.9449 41.5721 18.3902 41.3962 18.7853Z" fill="white"/>
</svg>
