<svg width="87" height="80" viewBox="0 0 87 80" fill="none" xmlns="http://www.w3.org/2000/svg">
<path fill-rule="evenodd" clip-rule="evenodd" d="M72.1081 9.36476C69.4378 9.76497 20.695 76.0435 20.695 76.0435C20.695 76.0435 19.7153 81.6113 24.0024 79.5366C25.0173 79.0435 74.8071 12.2207 74.8071 12.2207C74.8071 12.2207 75.2809 8.88771 72.1081 9.36156V9.36476Z" fill="white"/>
<path fill-rule="evenodd" clip-rule="evenodd" d="M66.9502 21.605L73.5073 55.9241C73.5073 55.9241 77.1284 57.1344 77.3525 54.5954C77.5767 52.0629 69.4475 17.2251 69.4475 17.2251L66.9502 21.6082V21.605Z" fill="white"/>
<path fill-rule="evenodd" clip-rule="evenodd" d="M49.8815 0L21.0117 37.4152L25.4365 36.7172L51.7897 2.54216C51.7897 2.54216 52.2668 0.160085 49.8847 0.00320178L49.8815 0Z" fill="white"/>
<path fill-rule="evenodd" clip-rule="evenodd" d="M4.3146 61.5977L22.8909 73.0726L21.2132 75.3426L2.72656 63.5059L4.3146 61.5977Z" fill="white"/>
<path fill-rule="evenodd" clip-rule="evenodd" d="M11.778 48.5796C11.778 48.5796 2.09283 61.1207 0.504788 63.3459C-1.08326 65.5711 1.39488 67.4184 3.52081 65.094C5.1793 63.2786 14.2529 50.3501 14.2529 50.3501L11.7748 48.5796H11.778Z" fill="white"/>
<path fill-rule="evenodd" clip-rule="evenodd" d="M27.1786 53.027C27.1786 53.027 24.3226 56.1647 27.8125 57.3749L34.7986 55.1978L37.8114 50.9619L27.1754 53.027H27.1786Z" fill="white"/>
<path fill-rule="evenodd" clip-rule="evenodd" d="M47.717 49.412L45.1172 53.5806L66.3477 50.0491L62.3776 47.7759L47.717 49.412Z" fill="white"/>
<path fill-rule="evenodd" clip-rule="evenodd" d="M76.468 45.7782L77.3901 49.0183L86.0988 47.632C86.0988 47.632 86.6527 44.6416 84.2738 44.9073C82.2311 45.1379 76.4648 45.7782 76.4648 45.7782H76.468Z" fill="white"/>
<path fill-rule="evenodd" clip-rule="evenodd" d="M54.1299 42.2467L72.0819 51.6629L71.6016 48.6885L55.4138 39.9927L54.1299 42.2467Z" fill="white"/>
<path fill-rule="evenodd" clip-rule="evenodd" d="M7.84668 46.6361L9.99181 47.7759C9.99181 47.7759 10.3376 42.3202 18.6076 43.3416C25.0366 44.1324 34.9587 36.3554 38.6119 30.7172C42.265 25.0822 50.0516 11.5934 51.8285 7.69695C52.6898 5.80794 54.4891 3.88692 54.4891 3.88692C54.4891 3.88692 54.0089 2.89118 51.8285 3.09289C51.8285 3.09289 50.122 4.6105 47.7207 9.31701C45.1209 14.4045 41.0868 22.2199 39.0089 25.332C37.2928 27.9029 32.5863 34.7386 28.6866 37.4664C26.0804 39.2946 23.0516 41.9104 16.3024 42.3875C9.55636 42.8645 8.20527 42.4675 7.84988 46.6361H7.84668Z" fill="white"/>
<path fill-rule="evenodd" clip-rule="evenodd" d="M13.7694 50.0011C13.7694 50.0011 12.652 46.1975 19.8751 45.7204C27.1013 45.2465 28.1195 44.1804 29.9572 43.5785C34.3244 42.1505 37.7374 38.3405 39.9594 35.6414C42.1846 32.9424 46.1003 27.2722 48.1365 24.0512C50.1536 20.8655 52.9999 15.048 54.4887 11.1099C55.6958 7.92104 57.3446 5.07792 59.9636 5.87195C62.5826 6.66597 62.2689 7.06298 62.2689 7.06298C62.2689 7.06298 59.6819 7.51122 56.3137 16.0342C54.0085 21.8677 50.5987 26.7535 48.2198 30.6404C45.636 34.857 40.9967 42.0897 34.8046 44.6606C34.8046 44.6606 28.2956 46.9114 23.5314 47.0715C18.7673 47.2316 16.2283 48.1825 16.2283 51.5571L13.7726 50.0011H13.7694Z" fill="white"/>
<path fill-rule="evenodd" clip-rule="evenodd" d="M21.0665 53.1836C21.0665 53.1836 19.9555 48.0929 27.6556 48.6147C35.3557 49.1366 40.8338 45.1857 41.6279 44.6606C42.4219 44.1324 51.63 33.9733 53.0579 31.1142C54.4859 28.2583 62.0227 15.4354 62.8392 12.8581C63.6076 10.4408 65.2404 8.59339 66.4731 8.57418C68.3781 8.54216 69.2522 9.04803 69.1721 10.1622C69.0921 11.2732 65.4421 11.7503 63.7292 18.9733C62.0163 26.2028 51.4539 34.8602 51.4539 34.8602C51.4539 34.8602 42.5787 46.9851 39.3258 48.6179C36.0697 50.2508 30.5147 48.3458 26.4645 50.3309C22.4176 52.3127 23.7655 54.1697 23.7655 54.1697L21.0665 53.1868V53.1836Z" fill="white"/>
<path fill-rule="evenodd" clip-rule="evenodd" d="M30.351 36.1091C30.351 36.1091 8.93798 39.8871 5.46733 40.9597C4.57085 41.235 2.51214 44.203 6.29976 45.7206C10.0874 47.2382 3.79925 43.3386 7.84621 42.3876C11.8932 41.4335 25.0746 39.8871 25.0746 39.8871L30.796 35.6929" fill="white"/>
<path fill-rule="evenodd" clip-rule="evenodd" d="M42.021 9.31983C42.021 9.31983 38.0925 3.85131 38.8065 13.7126L42.021 9.31983Z" fill="white"/>
<path fill-rule="evenodd" clip-rule="evenodd" d="M43.1706 14.187V17.6993L40.3691 21.6694V17.9298L43.1706 14.187Z" fill="white"/>
</svg>
