<svg width="70" height="70" viewBox="0 0 70 70" fill="none" xmlns="http://www.w3.org/2000/svg">
<g opacity="0.9">
<path d="M38.3973 35.0129C38.3973 36.8883 36.8739 38.4117 34.9985 38.4117C33.123 38.4117 31.5996 36.8883 31.5996 35.0129C31.5996 33.1374 33.123 31.614 34.9985 31.614C36.8739 31.614 38.3973 33.1374 38.3973 35.0129Z" fill="#0A2B50"/>
<path d="M34.9991 42.425C30.909 42.425 27.5869 39.0965 27.5869 35.0128C27.5869 30.9291 30.9154 27.6006 34.9991 27.6006C39.0828 27.6006 42.4177 30.9291 42.4177 35.0128C42.4177 39.0965 39.0892 42.425 34.9991 42.425ZM34.9991 29.4889C31.9523 29.4889 29.4752 31.966 29.4752 35.0128C29.4752 38.0596 31.9523 40.5367 34.9991 40.5367C38.0459 40.5367 40.523 38.0596 40.523 35.0128C40.523 31.966 38.0459 29.4889 34.9991 29.4889Z" fill="#0A2B50"/>
<path d="M35.0001 52.9348C25.1172 52.9348 17.0713 44.8954 17.0713 35.0061C17.0713 25.1169 25.1108 17.0774 35.0001 17.0774C44.8894 17.0774 52.9288 25.1169 52.9288 35.0061C52.9288 44.8954 44.8894 52.9348 35.0001 52.9348ZM35.0001 21.494C27.5495 21.494 21.4879 27.5556 21.4879 35.0061C21.4879 42.4567 27.5495 48.5183 35.0001 48.5183C42.4506 48.5183 48.5122 42.4567 48.5122 35.0061C48.5122 27.5556 42.4506 21.494 35.0001 21.494Z" fill="#0A2B50"/>
<path d="M34.1107 14.0051H34.2259V28.4901C34.4819 28.4581 34.738 28.4389 35.0004 28.4389C35.2628 28.4389 35.5189 28.4581 35.7749 28.4901V14.0051H35.8901C36.2358 14.0051 36.5174 13.7234 36.5174 13.3714V11.4575C36.5174 11.1119 36.2358 10.8239 35.8901 10.8239H35.7749V10.0686H35.7877C36.1397 10.0686 36.4214 9.78692 36.4214 9.43488V8.67318C36.4214 8.32753 36.1397 8.0395 35.7877 8.0395H35.7749V6.40088C36.159 6.18325 36.4214 5.78001 36.4214 5.30635V1.26102C36.4214 0.56333 35.8581 6.10352e-05 35.1604 6.10352e-05H34.8468C34.1491 6.10352e-05 33.5858 0.56333 33.5858 1.26102V5.30635C33.5858 5.78001 33.8482 6.18325 34.2323 6.40088V8.0395H34.2195C33.8738 8.0395 33.5922 8.32113 33.5922 8.67318V9.43488C33.5922 9.78052 33.8738 10.0686 34.2195 10.0686H34.2323V10.8239H34.1171C33.7714 10.8239 33.4834 11.1055 33.4834 11.4575V13.3714C33.4834 13.717 33.765 14.0051 34.1171 14.0051H34.1107Z" fill="#0A2B50"/>
<path d="M28.4262 35.0126C28.4262 34.7502 28.4454 34.4942 28.4774 34.2381H13.9923V34.1229C13.9923 33.7773 13.7106 33.4892 13.365 33.4892H11.4511C11.0991 33.4892 10.8238 33.7709 10.8238 34.1229V34.2381H10.0685V34.2253C10.0685 33.8797 9.78689 33.5916 9.44125 33.5916H8.67955C8.3339 33.5916 8.05227 33.8733 8.05227 34.2253V34.2381H6.41365C6.19602 33.8541 5.79277 33.5916 5.3191 33.5916H1.26097C0.563275 33.5916 0 34.1549 0 34.8526V35.1662C0 35.8639 0.563275 36.4272 1.26097 36.4272H5.3063C5.77996 36.4272 6.18322 36.1648 6.40085 35.7807H8.03946V35.7935C8.03946 36.1392 8.3211 36.4272 8.66675 36.4272H9.42845C9.77409 36.4272 10.0557 36.1456 10.0557 35.7935V35.7807H10.811V35.8959C10.811 36.2416 11.0927 36.5296 11.4383 36.5296H13.3522C13.6978 36.5296 13.9794 36.248 13.9794 35.8959V35.7807H28.4582C28.4262 35.5247 28.407 35.2687 28.407 35.0062L28.4262 35.0126Z" fill="#0A2B50"/>
<path d="M35.8828 56.02H35.7676V41.5414C35.5116 41.5734 35.2556 41.5926 34.9931 41.5926C34.7307 41.5926 34.4747 41.5734 34.2186 41.5414V56.02H34.1034C33.7578 56.02 33.4697 56.3017 33.4697 56.6473V58.5612C33.4697 58.9068 33.7514 59.1885 34.1034 59.1885H34.2186V59.9438H34.2058C33.8602 59.9438 33.5785 60.2254 33.5785 60.571V61.3327C33.5785 61.6784 33.8602 61.96 34.2058 61.96H34.2186V63.5986C33.8346 63.8162 33.5721 64.2195 33.5721 64.6932V68.7385C33.5721 69.4362 34.1354 69.9994 34.8331 69.9994H35.1467C35.8444 69.9994 36.4077 69.4362 36.4077 68.7385V64.6932C36.4077 64.2195 36.1453 63.8162 35.7612 63.5986V61.96H35.774C36.1261 61.96 36.4077 61.6784 36.4077 61.3327V60.571C36.4077 60.2254 36.1261 59.9438 35.774 59.9438H35.7612V59.1885H35.8764C36.2221 59.1885 36.5037 58.9068 36.5037 58.5612V56.6473C36.5037 56.3017 36.2221 56.02 35.8764 56.02H35.8828Z" fill="#0A2B50"/>
<path d="M68.7393 33.5916H64.694C64.2203 33.5916 63.817 33.8541 63.5994 34.2381H61.9672V34.2253C61.9672 33.8797 61.6856 33.5916 61.3335 33.5916H60.5718C60.2198 33.5916 59.9381 33.8733 59.9381 34.2253V34.2381H59.1828V34.1229C59.1828 33.7773 58.9012 33.4892 58.5556 33.4892H56.6417C56.2961 33.4892 56.008 33.7709 56.008 34.1229V34.2381H41.5293C41.5613 34.4942 41.5805 34.7502 41.5805 35.0126C41.5805 35.2751 41.5613 35.5311 41.5293 35.7871H56.008V35.9023C56.008 36.248 56.2896 36.536 56.6417 36.536H58.5556C58.9012 36.536 59.1828 36.2544 59.1828 35.9023V35.7871H59.9381V35.7999C59.9381 36.1456 60.2198 36.4336 60.5718 36.4336H61.3335C61.6792 36.4336 61.9672 36.152 61.9672 35.7999V35.7871H63.5994C63.817 36.1712 64.2203 36.4336 64.694 36.4336H68.7393C69.437 36.4336 70.0003 35.8703 70.0003 35.1726V34.859C70.0003 34.1613 69.437 33.598 68.7393 33.598V33.5916Z" fill="#0A2B50"/>
<path d="M13.0009 15.0229C13.3337 15.3557 13.801 15.4581 14.2299 15.3429L15.3884 16.5015L15.3756 16.5143C15.1324 16.7575 15.1324 17.1608 15.3756 17.404L15.9133 17.9417C16.0157 18.0441 22.2181 24.2465 29.4575 31.4858C29.9695 30.6793 30.6544 29.9944 31.4673 29.4759C24.228 22.2366 18.0256 16.0342 17.9232 15.9318L17.3855 15.3941C17.1422 15.1445 16.739 15.1509 16.4894 15.3941H16.483L15.3244 14.2484C15.4396 13.8259 15.3436 13.3523 15.0044 13.0194L12.1432 10.1583C11.6503 9.66539 10.8502 9.66539 10.3574 10.1583L10.1333 10.3823C9.64046 10.8751 9.64046 11.6752 10.1333 12.1681L12.9945 15.0293L13.0009 15.0229Z" fill="#0A2B50"/>
<path d="M40.5378 31.4794C47.7771 24.2401 53.9795 18.0377 54.0819 17.9352L54.6196 17.3976C54.8628 17.1479 54.8628 16.7511 54.6196 16.5079L54.6068 16.4951L55.7654 15.3365C56.1878 15.4517 56.6615 15.3493 56.9943 15.0165L59.8555 12.1553C60.3484 11.6624 60.3484 10.8623 59.8555 10.3695L59.6315 10.1454C59.1386 9.65257 58.3385 9.65257 57.8456 10.1454L54.9845 13.0066C54.6516 13.3394 54.5492 13.8131 54.6644 14.2356L53.5059 15.3941H53.4931C53.2498 15.1381 52.8466 15.1381 52.6033 15.3877L52.0657 15.9254C51.9633 16.0278 45.7608 22.2302 38.5215 29.4695C39.328 29.988 40.0129 30.6729 40.5313 31.4794H40.5378Z" fill="#0A2B50"/>
<path d="M57.0006 55.0024C56.6678 54.6696 56.1941 54.5672 55.7717 54.6824L54.6131 53.5238H54.6259C54.8691 53.2678 54.8691 52.8709 54.6259 52.6213L54.0882 52.0836C53.9858 51.9812 47.7834 45.7788 40.544 38.5395C40.032 39.346 39.3407 40.0309 38.5342 40.5493C45.7735 47.7887 51.976 53.9911 52.0784 54.0935L52.616 54.6312C52.8593 54.8744 53.2625 54.8744 53.5058 54.6312L53.5186 54.6184L54.6771 55.7769C54.5619 56.1994 54.6579 56.673 54.9972 57.0059L57.8583 59.867C58.3512 60.3599 59.1513 60.3599 59.6442 59.867L59.8682 59.643C60.3611 59.1502 60.3611 58.35 59.8682 57.8572L57.007 54.996L57.0006 55.0024Z" fill="#0A2B50"/>
<path d="M29.4638 38.5459C22.2244 45.7853 16.022 51.9877 15.9196 52.0901L15.3819 52.6277C15.1387 52.8774 15.1387 53.2742 15.3819 53.5175H15.3947L14.2362 54.6824C13.8137 54.5672 13.34 54.6696 13.0072 55.0025L10.146 57.8636C9.65315 58.3565 9.65315 59.1566 10.146 59.6495L10.37 59.8735C10.8629 60.3664 11.663 60.3664 12.1559 59.8735L15.0171 57.0123C15.3499 56.6795 15.4523 56.2058 15.3371 55.7834L16.4957 54.6248V54.6376C16.7517 54.8808 17.1485 54.8808 17.3982 54.6376L17.9358 54.0999C18.0383 53.9975 24.2407 47.7951 31.48 40.5558C30.6735 40.0373 29.9886 39.3524 29.4702 38.5459H29.4638Z" fill="#0A2B50"/>
</g>
</svg>
