<svg width="22" height="18" viewBox="0 0 22 18" fill="none" xmlns="http://www.w3.org/2000/svg">
<path d="M18.1649 17.9992H12.4768V12.4398H9.33273V17.9832H3.38799C3.38041 17.8712 3.36442 17.7509 3.36442 17.6306C3.36274 15.3163 3.36611 13.0028 3.35938 10.6886C3.35938 10.4757 3.40734 10.3267 3.58659 10.1904C5.91349 8.40963 8.2345 6.62133 10.5572 4.83554C10.622 4.78589 10.6935 4.74381 10.7827 4.68491C10.967 4.8246 11.1446 4.95757 11.3205 5.09306C13.5094 6.77701 15.6983 8.46181 17.888 10.1441C18.058 10.2745 18.1884 10.3898 18.1867 10.6482C18.1741 13.018 18.1792 15.3887 18.1783 17.7585C18.1783 17.8266 18.1699 17.894 18.1632 18L18.1649 17.9992Z" fill="white"/>
<path d="M21.5438 8.2868C21.0363 8.94658 20.5583 9.56681 20.0568 10.219C16.9632 7.83994 13.8882 5.47432 10.7727 3.07757C7.68845 5.44992 4.60499 7.82142 1.48787 10.2182C0.987144 9.56765 0.502408 8.93901 0 8.28512C3.59176 5.52229 7.16668 2.77209 10.7702 0C12.28 1.15966 13.7838 2.31512 15.3693 3.53285V2.05256H18.4999V2.4969C18.4999 3.50676 18.5142 4.51663 18.4915 5.52566C18.4839 5.84545 18.595 6.03312 18.8441 6.21826C19.7429 6.88729 20.6248 7.5799 21.5438 8.2868Z" fill="white"/>
</svg>
