<svg width="20" height="20" viewBox="0 0 20 20" fill="none" xmlns="http://www.w3.org/2000/svg">
<path d="M14.5 1H5.5C3.01472 1 1 3.01472 1 5.5V14.5C1 16.9853 3.01472 19 5.5 19H14.5C16.9853 19 19 16.9853 19 14.5V5.5C19 3.01472 16.9853 1 14.5 1Z" stroke="white" stroke-width="1.5" stroke-linecap="round" stroke-linejoin="round"/>
<path d="M13.5986 9.43327C13.7096 10.1823 13.5817 10.9473 13.2329 11.6194C12.8842 12.2915 12.3324 12.8365 11.656 13.177C10.9797 13.5174 10.2132 13.6359 9.46557 13.5156C8.71798 13.3953 8.02735 13.0423 7.49192 12.5069C6.95649 11.9715 6.60352 11.2809 6.48323 10.5333C6.36293 9.78567 6.48142 9.01918 6.82186 8.34281C7.16229 7.66644 7.70733 7.11464 8.37945 6.76589C9.05157 6.41714 9.81654 6.2892 10.5656 6.40027C11.3296 6.51357 12.0369 6.86959 12.5831 7.41575C13.1292 7.96191 13.4853 8.66924 13.5986 9.43327Z" stroke="white" stroke-width="1.5" stroke-linecap="round" stroke-linejoin="round"/>
<path d="M14.9492 5.05078H14.9592" stroke="white" stroke-width="1.5" stroke-linecap="round" stroke-linejoin="round"/>
</svg>
