<svg width="77" height="80" viewBox="0 0 77 80" fill="none" xmlns="http://www.w3.org/2000/svg">
<g style="mix-blend-mode:multiply" opacity="0.9">
<path d="M44.9857 11.743V60.1811H6.80078C6.80078 60.1811 16.1888 32.2653 44.9857 11.743Z" fill="#0A2B50"/>
<path d="M50.1602 23.2937L69.4409 60.1809H50.1602V23.2937Z" fill="#0A2B50"/>
<path d="M0.00801808 64.6508C0.00801808 67.4063 1.12943 69.7453 2.5873 71.6277H75.1603C75.4647 71.5957 75.7931 71.5797 76.1375 71.5797L76.0814 64.6508H48.1256V10.4454C49.4874 9.84461 52.8116 8.69112 55.3108 10.3573C58.5229 12.496 63.3211 11.719 64.5867 10.8779C65.8523 10.0369 70.1939 8.15444 70.1939 8.15444C66.5973 7.1852 65.1314 9.42006 60.5896 9.13169C56.0478 8.83531 56.8889 3.96509 52.6755 3.96509C50.1602 3.96509 48.8065 4.42167 48.1176 4.79014V4.01315C48.9106 3.72478 49.4794 2.96379 49.4794 2.07465C49.4794 0.929187 48.5502 0 47.3967 0C46.2432 0 45.3221 0.929187 45.3221 2.07465C45.3221 2.9718 45.8908 3.72478 46.6838 4.01315V64.6508H0H0.00801808Z" fill="#0A2B50"/>
<path d="M70.9147 73.9989H4.83008C7.14504 76.0575 9.42796 77.1469 9.42796 77.1469C16.4049 81.088 70.2098 79.7983 70.2098 79.7983C70.2098 79.7983 69.4168 76.418 70.9147 73.9989Z" fill="#0A2B50"/>
</g>
</svg>
