<svg width="90" height="90" viewBox="0 0 90 90" fill="none" xmlns="http://www.w3.org/2000/svg">
<g style="mix-blend-mode:multiply" opacity="0.9">
<path d="M49.3688 45.0168C49.3688 47.4281 47.4101 49.3868 44.9988 49.3868C42.5876 49.3868 40.6289 47.4281 40.6289 45.0168C40.6289 42.6055 42.5876 40.6469 44.9988 40.6469C47.4101 40.6469 49.3688 42.6055 49.3688 45.0168Z" fill="#0A2B50"/>
<path d="M45.0006 54.5468C39.7419 54.5468 35.4707 50.2674 35.4707 45.0168C35.4707 39.7663 39.7501 35.4868 45.0006 35.4868C50.2511 35.4868 54.5388 39.7663 54.5388 45.0168C54.5388 50.2674 50.2594 54.5468 45.0006 54.5468ZM45.0006 37.9146C41.0833 37.9146 37.8984 41.0995 37.8984 45.0168C37.8984 48.9342 41.0833 52.119 45.0006 52.119C48.9179 52.119 52.1028 48.9342 52.1028 45.0168C52.1028 41.0995 48.9179 37.9146 45.0006 37.9146Z" fill="#0A2B50"/>
<path d="M45.0005 68.0597C32.2939 68.0597 21.9492 57.7232 21.9492 45.0083C21.9492 32.2934 32.2857 21.9569 45.0005 21.9569C57.7153 21.9569 68.0517 32.2934 68.0517 45.0083C68.0517 57.7232 57.7153 68.0597 45.0005 68.0597ZM45.0005 27.6354C35.4211 27.6354 27.6277 35.4289 27.6277 45.0083C27.6277 54.5877 35.4211 62.3812 45.0005 62.3812C54.5798 62.3812 62.3732 54.5877 62.3732 45.0083C62.3732 35.4289 54.5798 27.6354 45.0005 27.6354Z" fill="#0A2B50"/>
<path d="M43.8553 18.0066H44.0035V36.6304C44.3327 36.5893 44.6618 36.5646 44.9993 36.5646C45.3367 36.5646 45.6659 36.5893 45.995 36.6304V18.0066H46.1432C46.5876 18.0066 46.9497 17.6445 46.9497 17.1919V14.7312C46.9497 14.2868 46.5876 13.9164 46.1432 13.9164H45.995V12.9453H46.0115C46.4641 12.9453 46.8262 12.5832 46.8262 12.1306V11.1513C46.8262 10.7068 46.4641 10.3365 46.0115 10.3365H45.995V8.2297C46.4888 7.94989 46.8262 7.43143 46.8262 6.82243V1.62125C46.8262 0.724209 46.102 0 45.205 0H44.8017C43.9047 0 43.1805 0.724209 43.1805 1.62125V6.82243C43.1805 7.43143 43.5179 7.94989 44.0117 8.2297V10.3365H43.9952C43.5508 10.3365 43.1887 10.6986 43.1887 11.1513V12.1306C43.1887 12.575 43.5508 12.9453 43.9952 12.9453H44.0117V13.9164H43.8636C43.4192 13.9164 43.0488 14.2785 43.0488 14.7312V17.1919C43.0488 17.6363 43.4109 18.0066 43.8636 18.0066H43.8553Z" fill="#0A2B50"/>
<path d="M36.5479 45.0165C36.5479 44.6791 36.5725 44.3499 36.6137 44.0207H17.99V43.8726C17.99 43.4282 17.6279 43.0579 17.1835 43.0579H14.7228C14.2702 43.0579 13.9163 43.42 13.9163 43.8726V44.0207H12.9452V44.0043C12.9452 43.5599 12.5831 43.1895 12.1387 43.1895H11.1594C10.715 43.1895 10.3529 43.5516 10.3529 44.0043V44.0207H8.2461C7.9663 43.527 7.44783 43.1895 6.83883 43.1895H1.62124C0.724209 43.1895 0 43.9138 0 44.8108V45.214C0 46.1111 0.724209 46.8353 1.62124 46.8353H6.82238C7.43137 46.8353 7.94984 46.4979 8.22964 46.0041H10.3364V46.0206C10.3364 46.465 10.6985 46.8353 11.1429 46.8353H12.1223C12.5667 46.8353 12.9288 46.4732 12.9288 46.0206V46.0041H13.8999V46.1522C13.8999 46.5966 14.262 46.967 14.7064 46.967H17.167C17.6114 46.967 17.9735 46.6049 17.9735 46.1522V46.0041H36.589C36.5478 45.6749 36.5232 45.3457 36.5232 45.0083L36.5479 45.0165Z" fill="#0A2B50"/>
<path d="M46.1338 72.0264H45.9857V53.4108C45.6565 53.4519 45.3273 53.4766 44.9899 53.4766C44.6525 53.4766 44.3233 53.4519 43.9941 53.4108V72.0264H43.846C43.4016 72.0264 43.0312 72.3885 43.0312 72.8329V75.2936C43.0312 75.738 43.3934 76.1001 43.846 76.1001H43.9941V77.0712H43.9777C43.5333 77.0712 43.1712 77.4333 43.1712 77.8777V78.857C43.1712 79.3014 43.5333 79.6635 43.9777 79.6635H43.9941V81.7703C43.5003 82.0501 43.1629 82.5686 43.1629 83.1776V88.3788C43.1629 89.2758 43.8871 90 44.7842 90H45.1874C46.0844 90 46.8087 89.2758 46.8087 88.3788V83.1776C46.8087 82.5686 46.4712 82.0501 45.9775 81.7703V79.6635H45.9939C46.4466 79.6635 46.8087 79.3014 46.8087 78.857V77.8777C46.8087 77.4333 46.4466 77.0712 45.9939 77.0712H45.9775V76.1001H46.1256C46.57 76.1001 46.9321 75.738 46.9321 75.2936V72.8329C46.9321 72.3885 46.57 72.0264 46.1256 72.0264H46.1338Z" fill="#0A2B50"/>
<path d="M88.3787 43.1895H83.1776C82.5686 43.1895 82.0502 43.527 81.7703 44.0207H79.6718V44.0043C79.6718 43.5599 79.3097 43.1895 78.8571 43.1895H77.8777C77.4251 43.1895 77.063 43.5516 77.063 44.0043V44.0207H76.0919V43.8726C76.0919 43.4282 75.7298 43.0579 75.2854 43.0579H72.8247C72.3803 43.0579 72.01 43.42 72.01 43.8726V44.0207H53.3945C53.4357 44.3499 53.4604 44.6791 53.4604 45.0165C53.4604 45.354 53.4357 45.6831 53.3945 46.0123H72.01V46.1605C72.01 46.6049 72.3721 46.9752 72.8247 46.9752H75.2854C75.7298 46.9752 76.0919 46.6131 76.0919 46.1605V46.0123H77.063V46.0288C77.063 46.4732 77.4251 46.8435 77.8777 46.8435H78.8571C79.3015 46.8435 79.6718 46.4814 79.6718 46.0288V46.0123H81.7703C82.0502 46.5061 82.5686 46.8435 83.1776 46.8435H88.3787C89.2758 46.8435 90 46.1193 90 45.2223V44.819C90 43.922 89.2758 43.1978 88.3787 43.1978V43.1895Z" fill="#0A2B50"/>
<path d="M16.7129 19.3153C17.1409 19.7432 17.7416 19.8749 18.293 19.7268L19.7826 21.2164L19.7661 21.2328C19.4534 21.5455 19.4534 22.064 19.7661 22.3767L20.4574 23.068C20.5891 23.1997 28.5636 31.1743 37.8713 40.4821C38.5297 39.4452 39.4103 38.5646 40.4554 37.898C31.1477 28.5902 23.1732 20.6156 23.0415 20.4839L22.3502 19.7926C22.0375 19.4717 21.519 19.4799 21.1981 19.7926H21.1899L19.7003 18.3195C19.8484 17.7763 19.725 17.1673 19.2888 16.7394L15.6102 13.0607C14.9765 12.427 13.9478 12.427 13.3141 13.0607L13.026 13.3487C12.3924 13.9824 12.3924 15.0112 13.026 15.6448L16.7047 19.3235L16.7129 19.3153Z" fill="#0A2B50"/>
<path d="M52.1158 40.4739C61.4235 31.1661 69.398 23.1915 69.5297 23.0598L70.221 22.3686C70.5337 22.0476 70.5337 21.5374 70.221 21.2246L70.2045 21.2082L71.6941 19.7186C72.2373 19.8667 72.8463 19.735 73.2742 19.3071L76.9528 15.6284C77.5865 14.9947 77.5865 13.966 76.9528 13.3323L76.6648 13.0443C76.0311 12.4106 75.0024 12.4106 74.3687 13.0443L70.6901 16.723C70.2621 17.1509 70.1305 17.7599 70.2786 18.3031L68.789 19.7927H68.7726C68.4598 19.4635 67.9414 19.4635 67.6287 19.7844L66.9374 20.4757C66.8057 20.6074 58.8312 28.582 49.5234 37.8898C50.5604 38.5564 51.4409 39.437 52.1075 40.4739H52.1158Z" fill="#0A2B50"/>
<path d="M73.2835 70.7181C72.8556 70.2901 72.2466 70.1585 71.7034 70.3066L70.2139 68.817H70.2303C70.5431 68.4878 70.5431 67.9776 70.2303 67.6566L69.5391 66.9653C69.4074 66.8337 61.4329 58.8591 52.1251 49.5513C51.4668 50.5882 50.578 51.4688 49.541 52.1354C58.8487 61.4432 66.8233 69.4178 66.9549 69.5495L67.6462 70.2408C67.959 70.5535 68.4774 70.5535 68.7901 70.2408L68.8066 70.2243L70.2962 71.7139C70.148 72.257 70.2715 72.866 70.7077 73.294L74.3863 76.9727C75.02 77.6063 76.0487 77.6063 76.6824 76.9727L76.9704 76.6846C77.6041 76.0509 77.6041 75.0222 76.9704 74.3885L73.2918 70.7099L73.2835 70.7181Z" fill="#0A2B50"/>
<path d="M37.8807 49.5594C28.573 58.8672 20.5984 66.8418 20.4668 66.9735L19.7755 67.6648C19.4627 67.9858 19.4627 68.496 19.7755 68.8087H19.7919L18.3024 70.3065C17.7592 70.1584 17.1502 70.2901 16.7223 70.718L13.0436 74.3967C12.4099 75.0304 12.4099 76.0591 13.0436 76.6928L13.3317 76.9808C13.9653 77.6145 14.994 77.6145 15.6277 76.9808L19.3064 73.3022C19.7343 72.8742 19.866 72.2652 19.7179 71.7221L21.2074 70.2325V70.2489C21.5366 70.5617 22.0469 70.5617 22.3678 70.2489L23.0591 69.5576C23.1908 69.426 31.1653 61.4514 40.473 52.1436C39.4361 51.477 38.5555 50.5964 37.8889 49.5594H37.8807Z" fill="#0A2B50"/>
<path d="M44.9997 19.9407C58.8255 19.9407 70.0754 31.1907 70.0754 45.0166C70.0754 58.8425 58.8255 70.0926 44.9997 70.0926C31.1739 70.0926 19.924 58.8425 19.924 45.0166C19.924 31.1907 31.1739 19.9407 44.9997 19.9407ZM44.9997 18.3195C30.2604 18.3195 18.3027 30.269 18.3027 45.0166C18.3027 59.7643 30.2522 71.7138 44.9997 71.7138C59.7472 71.7138 71.6967 59.7643 71.6967 45.0166C71.6967 30.269 59.7472 18.3195 44.9997 18.3195Z" fill="#0A2B50"/>
</g>
</svg>
