<svg width="13" height="12" viewBox="0 0 13 12" fill="none" xmlns="http://www.w3.org/2000/svg">
<path d="M5.49784 7.77078C5.49784 8.25313 5.49784 8.689 5.49784 9.12555C5.49784 9.41725 5.50184 9.70896 5.49517 10.0007C5.49316 10.099 5.48181 10.2055 5.44375 10.2944C5.35426 10.5032 5.13389 10.5652 4.94424 10.446C4.88815 10.4109 4.84073 10.3618 4.79332 10.3139C3.26008 8.76715 1.72617 7.21971 0.192936 5.67226C0.146191 5.6251 0.0947709 5.57794 0.0607138 5.52136C-0.0200885 5.38527 -0.0240952 5.24245 0.0720662 5.11176C0.124821 5.04035 0.1916 4.97904 0.254372 4.91572C1.75689 3.39993 3.25875 1.88415 4.76127 0.369039C4.80067 0.329292 4.8414 0.290892 4.87947 0.249798C4.98831 0.13123 5.11853 0.086093 5.27146 0.144703C5.42638 0.203987 5.48982 0.336703 5.49383 0.490302C5.50251 0.81569 5.4985 1.14108 5.4985 1.46647C5.4985 1.92592 5.4985 2.38537 5.4985 2.88996C5.6561 2.89467 5.79567 2.89534 5.93524 2.9041C7.88851 3.02469 9.59004 3.73543 10.959 5.16026C11.8886 6.12767 12.4061 7.32884 12.7073 8.62703C12.9183 9.53582 13.0165 10.4601 12.9978 11.3952C12.9964 11.4511 12.9978 11.5077 12.9937 11.5636C12.9851 11.7152 12.9056 11.8196 12.766 11.8627C12.6138 11.9092 12.4762 11.8661 12.3807 11.7354C12.3286 11.664 12.2939 11.5798 12.2578 11.4976C11.3797 9.48934 9.80773 8.37237 7.72891 7.90012C7.0057 7.73575 6.27714 7.75057 5.49784 7.77078Z" fill="#0A2B50"/>
</svg>
