<svg width="40" height="40" viewBox="0 0 40 40" fill="none" xmlns="http://www.w3.org/2000/svg">
<path d="M38.9465 19.2422C38.0437 19.1911 35.6062 19.6931 35.2842 19.6214L34.6863 19.2969L34.5186 19.4549L34.1565 19.4342V19.2932L33.3558 19.2859L33.3521 19.1753H33.2525C33.0763 16.1925 31.9159 13.4796 30.0957 11.3392L30.1443 11.2893L30.1005 11.2407L30.6741 10.6816L30.5841 10.5868L30.8284 10.3206L31.0556 10.3133L31.2695 9.65207C31.4493 9.38589 33.5478 8.0513 34.1663 7.37793C34.786 6.71063 34.4056 6.12842 34.2659 5.9935C34.1262 5.84035 33.5538 5.45748 32.8685 6.05428C32.1832 6.66201 30.8065 8.74898 30.5465 8.92522L29.8867 9.12821L29.8672 9.34699L29.606 9.58644L29.5088 9.49407L28.9316 10.0593L28.8004 9.92677L28.7554 9.97539C26.6557 8.11815 23.9485 6.90997 20.9775 6.67538V6.65715H20.9617L20.969 5.86831H20.8244L20.8111 5.49637L20.9739 5.33107L20.6519 4.72334C20.596 4.40367 21.1367 1.97394 21.0954 1.05747C21.0504 0.159236 20.3761 0.00243856 20.1731 7.61589e-06C19.9787 -0.00120786 19.2898 0.142218 19.2484 1.04045C19.1877 1.9557 19.6822 4.39394 19.6263 4.71361L19.2934 5.31527L19.4465 5.48422L19.4246 5.85372L19.2885 5.85129L19.2813 6.64013L19.0832 6.64743V6.65594L18.003 6.7714C15.4403 7.15671 13.1328 8.29074 11.2591 9.91705L10.6808 9.32876L10.5787 9.41992L10.3211 9.17561L10.3138 8.95561L9.65278 8.74169C9.38546 8.5618 8.05614 6.45174 7.37568 5.83063C6.71345 5.22168 6.12898 5.59361 5.9856 5.74555C5.84101 5.87804 5.44853 6.45417 6.05851 7.13119C6.66242 7.8155 8.74267 9.18777 8.91521 9.45639L9.12178 10.1212L9.34779 10.1322L9.58717 10.4032L9.48631 10.4968L10.0611 11.0717C8.1339 13.2146 6.93095 15.992 6.71345 19.0525L5.86166 19.0452V19.1862L5.49835 19.1996L5.33309 19.0392L4.71825 19.3528C4.40719 19.4184 1.96604 18.8739 1.06079 18.9091C0.153111 18.9444 0.00243808 19.6311 7.87369e-06 19.8426C-0.00120723 20.0286 0.137314 20.7177 1.04378 20.7664C1.94782 20.8174 4.39746 20.3264 4.70732 20.3871L5.31608 20.7117L5.48498 20.5524L5.84587 20.5816V20.7165L6.69765 20.7226C6.86291 23.7868 8.04277 26.5593 9.92983 28.7386L9.31984 29.3269L9.41948 29.4302L9.17525 29.694L8.94924 29.7025L8.73173 30.354C8.55433 30.6129 6.45099 31.9633 5.83371 32.6306C5.2128 33.2979 5.59434 33.8886 5.73772 34.0235C5.87989 34.1609 6.45585 34.5522 7.12901 33.9518C7.82041 33.3453 9.18618 31.2741 9.45715 31.0845L10.1218 30.8973L10.1327 30.67L10.3952 30.4184L10.4961 30.512L11.0988 29.9249C13.2434 31.8539 15.9932 33.0827 19.0492 33.3003L19.0407 34.1487H19.1768L19.1926 34.5109L19.0346 34.6787L19.359 35.2852C19.4076 35.6061 18.8718 38.0431 18.9155 38.9583C18.941 39.8651 19.6288 39.9976 19.822 40C20.0237 40.0012 20.7005 39.8809 20.7612 38.9741C20.8196 38.0601 20.3202 35.6146 20.3834 35.2961L20.7151 34.6945L20.5571 34.5231L20.5766 34.1633H20.7199L20.7272 33.3659H20.743V33.3574C23.7176 33.1751 26.4455 32.0228 28.578 30.1948L28.6217 30.2361L28.7542 30.1097L29.3229 30.6785L29.4225 30.5874L29.6801 30.8438L29.6947 31.0711L30.3508 31.2693C30.6072 31.4637 31.9475 33.558 32.6219 34.1767C33.295 34.7868 33.8746 34.4076 34.0168 34.2727C34.159 34.139 34.5514 33.5556 33.9427 32.8785C33.3351 32.2015 31.2597 30.8135 31.0848 30.5509L30.8831 29.8946L30.6546 29.8836L30.4152 29.6138L30.5076 29.5117L29.9499 28.9465L29.9839 28.9125L29.9413 28.8541C31.7992 26.7526 33.0071 24.0518 33.2343 21.0714H33.3351L33.3412 20.956L34.1432 20.9633V20.8283L34.5065 20.8065L34.6717 20.9681L35.2781 20.6545C35.6001 20.5998 38.0279 21.1334 38.9319 21.0982C39.8517 21.0641 39.9988 20.3774 40 20.1914C40.0024 19.9812 39.8675 19.2908 38.9477 19.2422H38.9465ZM30.0531 20.9961L29.5647 21.0398C29.352 22.9263 28.6169 24.634 27.4844 26.0366L27.8052 26.4256C27.3823 26.9349 26.9242 27.3992 26.409 27.8161L26.0275 27.4964C24.6253 28.6329 22.9181 29.3792 21.031 29.5943L20.9824 30.0586L19.9082 30.1073L19.0103 30.0586L18.9702 29.6114C17.0503 29.4242 15.3103 28.6997 13.8838 27.5681L13.5897 27.8112C13.0818 27.3955 12.6067 26.9288 12.1911 26.4134L12.422 26.14C11.2373 24.7094 10.4669 22.9554 10.2555 21.0155L9.93833 20.9864L9.88973 19.9277L9.94805 19.0209L10.247 18.993C10.4402 17.0251 11.1935 15.2457 12.3746 13.7993L12.2033 13.5914C12.6261 13.0821 13.0842 12.6093 13.5897 12.1997L13.8036 12.3723C15.252 11.2042 17.0309 10.4519 18.9896 10.2647L19.0164 9.94622L20.0844 9.89639L20.98 9.94622L21.0152 10.2829C22.9448 10.5041 24.6909 11.2747 26.1126 12.4501L26.4163 12.2021C26.9182 12.6178 27.3933 13.0834 27.8076 13.6011L27.5403 13.9135C28.6691 15.3405 29.3909 17.0737 29.5805 18.9808L30.0507 19.0282L30.103 20.1039L30.0531 20.9936V20.9961Z" fill="white"/>
<path d="M29.5805 18.9844C29.2488 18.9674 28.8794 19.0002 28.476 19.219C27.4626 19.766 26.2062 19.2239 25.9741 19.0452C25.8319 18.113 25.4686 17.2269 24.9024 16.4502C24.9485 16.15 25.4552 14.9017 26.55 14.5759C27.0264 14.4325 27.3143 14.1748 27.5403 13.9184C27.1163 13.3799 26.6399 12.8937 26.1126 12.4549C25.8441 12.6774 25.5743 12.9666 25.4248 13.4504C25.0956 14.5553 23.8233 15.0633 23.5487 15.0962L23.1137 14.7996C22.4211 14.4045 21.6908 14.1469 20.9642 14.0241C20.7722 13.7859 20.2534 12.5485 20.7917 11.536C21.0444 11.0669 21.0553 10.6475 21.014 10.289L19.9958 10.1796L18.9897 10.2707C18.9459 10.6329 18.9508 11.0584 19.212 11.5397C19.7503 12.5558 19.2169 13.7992 19.0298 14.0253C18.1051 14.176 17.2132 14.5358 16.4465 15.1022C16.1439 15.0585 14.9057 14.5528 14.5703 13.4565C14.4136 12.9119 14.1001 12.5996 13.8036 12.3771C13.2763 12.805 12.8024 13.279 12.3734 13.8029C12.5934 14.1007 12.9093 14.4118 13.4524 14.5796C14.5485 14.909 15.0576 16.1816 15.0892 16.4672L14.8097 16.9023C14.3905 17.5769 14.1353 18.3159 14.0175 19.0501C13.772 19.2336 12.5314 19.7441 11.5302 19.213C11.0417 18.9528 10.6079 18.9456 10.2446 18.9954L10.1486 19.8669C10.1449 20.2595 10.213 20.6375 10.2543 21.0191C10.6176 21.0678 11.0417 21.0568 11.535 20.7931C12.5363 20.257 13.8 20.7967 14.0175 20.9669C14.1681 21.9016 14.5387 22.795 15.0843 23.5704C15.0467 23.8719 14.5375 25.1104 13.4476 25.4374C12.947 25.5893 12.6432 25.8713 12.4196 26.1436C12.857 26.6687 13.3407 27.1476 13.8802 27.5718C14.1463 27.3505 14.4197 27.0503 14.5703 26.5483C14.8996 25.4593 16.1706 24.9488 16.4477 24.9172L16.8839 25.2065C17.5765 25.6173 18.3031 25.875 19.0407 25.9904C19.223 26.236 19.7418 27.4757 19.2023 28.4797C18.9763 28.9015 18.9484 29.2783 18.9654 29.6162L19.8196 29.711C20.2327 29.7146 20.6276 29.6466 21.025 29.5992C21.0432 29.2698 21.0128 28.9051 20.7819 28.4943C20.2424 27.4721 20.7856 26.2177 20.963 25.9831C21.8938 25.8397 22.7735 25.4702 23.5572 24.9074C23.8513 24.9694 25.0883 25.4666 25.4248 26.5605C25.5561 27.0029 25.7845 27.28 26.0215 27.5013C26.5598 27.0649 27.0446 26.5812 27.4796 26.0415C27.2584 25.8057 26.979 25.5784 26.55 25.4447C25.4564 25.1092 24.9364 23.8427 24.9048 23.5583L25.1928 23.1219C25.6047 22.4364 25.8538 21.701 25.9801 20.973C26.2232 20.7797 27.4614 20.2704 28.4638 20.8016C28.8709 21.024 29.233 21.058 29.5598 21.0447L29.668 20.0407L29.5769 18.9893L29.5805 18.9844ZM23.6058 22.1653C22.4199 24.1539 19.8378 24.7944 17.8487 23.6105C15.8523 22.4157 15.2107 19.8499 16.3979 17.8528C17.5801 15.8558 20.1671 15.2068 22.1501 16.4004C24.1393 17.5939 24.7966 20.1695 23.6058 22.1653Z" fill="white"/>
</svg>
