<svg width="69" height="64" viewBox="0 0 69 64" fill="none" xmlns="http://www.w3.org/2000/svg">
<path fill-rule="evenodd" clip-rule="evenodd" d="M11.4161 7.49186C13.5485 7.81203 52.4728 60.8349 52.4728 60.8349C52.4728 60.8349 53.2552 65.2891 49.8317 63.6293C49.0212 63.2349 9.26073 9.7766 9.26073 9.7766C9.26073 9.7766 8.88234 7.11021 11.4161 7.4893V7.49186Z" fill="#0A2B50"/>
<path fill-rule="evenodd" clip-rule="evenodd" d="M15.5361 17.2836L10.2999 44.7389C10.2999 44.7389 7.40814 45.7071 7.22917 43.6759C7.05019 41.6499 13.5419 13.7797 13.5419 13.7797L15.5361 17.2862V17.2836Z" fill="#0A2B50"/>
<path fill-rule="evenodd" clip-rule="evenodd" d="M29.1663 0L52.2207 29.9321L48.6873 29.3738L27.6424 2.03373C27.6424 2.03373 27.2615 0.128068 29.1637 0.00256143L29.1663 0Z" fill="#0A2B50"/>
<path fill-rule="evenodd" clip-rule="evenodd" d="M65.5551 49.2781L50.7207 58.458L52.0604 60.274L66.8232 50.8047L65.5551 49.2781Z" fill="#0A2B50"/>
<path fill-rule="evenodd" clip-rule="evenodd" d="M59.5945 38.8633C59.5945 38.8633 67.3287 48.8962 68.5969 50.6763C69.8651 52.4565 67.8861 53.9344 66.1884 52.0748C64.864 50.6225 57.6181 40.2797 57.6181 40.2797L59.5971 38.8633H59.5945Z" fill="#0A2B50"/>
<path fill-rule="evenodd" clip-rule="evenodd" d="M47.296 42.4216C47.296 42.4216 49.5767 44.9318 46.7898 45.8999L41.2109 44.1582L38.805 40.7695L47.2986 42.4216H47.296Z" fill="#0A2B50"/>
<path fill-rule="evenodd" clip-rule="evenodd" d="M30.8946 39.5298L32.9707 42.8647L16.0167 40.0395L19.1871 38.2209L30.8946 39.5298Z" fill="#0A2B50"/>
<path fill-rule="evenodd" clip-rule="evenodd" d="M7.93494 36.6225L7.19859 39.2146L0.244168 38.1056C0.244168 38.1056 -0.198167 35.7133 1.70152 35.9258C3.33274 36.1103 7.9375 36.6225 7.9375 36.6225H7.93494Z" fill="#0A2B50"/>
<path fill-rule="evenodd" clip-rule="evenodd" d="M25.7734 33.7969L11.4376 41.3298L11.8211 38.9503L24.7482 31.9937L25.7734 33.7969Z" fill="#0A2B50"/>
<path fill-rule="evenodd" clip-rule="evenodd" d="M62.7324 37.3088L61.0194 38.2206C61.0194 38.2206 60.7433 33.8561 54.1391 34.6732C49.0051 35.3058 41.0816 29.0843 38.1644 24.5737C35.2471 20.0657 29.029 9.27464 27.61 6.15746C26.9222 4.64625 25.4853 3.10943 25.4853 3.10943C25.4853 3.10943 25.8688 2.31285 27.61 2.47422C27.61 2.47422 28.9728 3.6883 30.8903 7.45351C32.9664 11.5235 36.188 17.7758 37.8473 20.2655C39.2178 22.3222 42.9762 27.7908 46.0904 29.973C48.1716 31.4356 50.5903 33.5282 55.98 33.9099C61.3671 34.2915 62.4461 33.9739 62.7299 37.3088H62.7324Z" fill="#0A2B50"/>
<path fill-rule="evenodd" clip-rule="evenodd" d="M58.0049 40.0009C58.0049 40.0009 58.8972 36.958 53.1291 36.5763C47.3585 36.1972 46.5454 35.3443 45.0778 34.8628C41.5904 33.7204 38.8649 30.6724 37.0905 28.5131C35.3135 26.3539 32.1865 21.8177 30.5604 19.241C28.9497 16.6924 26.6767 12.0384 25.4878 8.88795C24.5239 6.33683 23.2072 4.06234 21.1157 4.69756C19.0243 5.33278 19.2748 5.65038 19.2748 5.65038C19.2748 5.65038 21.3407 6.00898 24.0304 12.8273C25.8713 17.4941 28.5943 21.4028 30.494 24.5123C32.5573 27.8856 36.262 33.6717 41.2069 35.7285C41.2069 35.7285 46.4048 37.5292 50.2093 37.6572C54.0137 37.7853 56.0413 38.546 56.0413 41.2457L58.0023 40.0009H58.0049Z" fill="#0A2B50"/>
<path fill-rule="evenodd" clip-rule="evenodd" d="M52.1762 42.5468C52.1762 42.5468 53.0634 38.4742 46.9143 38.8917C40.7653 39.3092 36.3906 36.1485 35.7566 35.7285C35.1225 35.3058 27.7692 27.1786 26.6289 24.8913C25.4886 22.6066 19.4699 12.3483 18.8179 10.2864C18.2043 8.35257 16.9003 6.87466 15.916 6.8593C14.3947 6.83368 13.6967 7.23838 13.7606 8.12973C13.8246 9.01853 16.7393 9.40017 18.1072 15.1786C19.475 20.9622 27.9098 27.8881 27.9098 27.8881C27.9098 27.8881 34.9972 37.588 37.5949 38.8943C40.1951 40.2006 44.6312 38.6766 47.8655 40.2646C51.0973 41.8501 50.0208 43.3357 50.0208 43.3357L52.1762 42.5494V42.5468Z" fill="#0A2B50"/>
<path fill-rule="evenodd" clip-rule="evenodd" d="M44.7623 28.8868C44.7623 28.8868 61.862 31.9092 64.6336 32.7673C65.3495 32.9876 66.9935 35.3619 63.9688 36.576C60.9441 37.7901 65.9656 34.6704 62.7339 33.9097C59.5021 33.1464 48.9759 31.9092 48.9759 31.9092L44.4069 28.5538" fill="#0A2B50"/>
<path fill-rule="evenodd" clip-rule="evenodd" d="M35.4438 7.45586C35.4438 7.45586 38.581 3.08105 38.0108 10.9701L35.4438 7.45586Z" fill="#0A2B50"/>
<path fill-rule="evenodd" clip-rule="evenodd" d="M34.5255 11.3492V14.1591L36.7627 17.3352V14.3435L34.5255 11.3492Z" fill="#0A2B50"/>
</svg>
