<svg width="43" height="40" viewBox="0 0 43 40" fill="none" xmlns="http://www.w3.org/2000/svg">
<path fill-rule="evenodd" clip-rule="evenodd" d="M6.08321 31.3869L40.0536 26.3212C39.6205 27.208 39.0943 28.0419 38.4588 28.8003C33.8828 34.2575 24.6405 34.0831 18.272 33.4902C15.2147 33.2054 12.0522 33.1931 9.01747 33.7144C8.75219 33.7601 8.48792 33.8099 8.22424 33.864L6.08301 31.3869H6.08321Z" fill="white"/>
<path fill-rule="evenodd" clip-rule="evenodd" d="M7.4516 35.3247C1.58547 36.8312 0 40 0 40C3.00068 37.8355 6.37128 37.0975 9.8547 37.0406C10.1556 37.0358 10.4571 37.036 10.7592 37.0406C10.8522 37.042 10.9456 37.0441 11.0389 37.0463C15.5078 37.1579 20.1127 38.2405 24.321 38.7507C25.7362 38.9222 27.1068 39.0291 28.4118 39.0127C37.8498 38.8928 43.9045 29.5205 42.8892 20.5258V20.5254C41.5134 33.6117 31.1964 35.9491 18.159 34.7354C14.5329 34.3978 11.5946 34.5398 9.22432 34.9472C8.84181 35.0129 8.4743 35.0856 8.12099 35.1641C7.89193 35.215 7.66866 35.2686 7.4514 35.3245" fill="white"/>
<path fill-rule="evenodd" clip-rule="evenodd" d="M3.60059 0.00791071C22.7596 -0.43519 32.5637 17.8537 35.7611 25.3171L22.0222 27.366C19.9814 14.7269 14.5556 7.84704 3.60059 0.00791071ZM11.5023 28.9346C15.5637 20.314 12.2263 11.9342 8.7231 6.43227H8.7235C8.7235 6.43227 17.4661 10.4364 20.1741 27.6416L11.5023 28.9346Z" fill="white"/>
</svg>
