<svg width="71" height="70" viewBox="0 0 71 70" fill="none" xmlns="http://www.w3.org/2000/svg">
<path d="M68.1771 33.6738C66.5967 33.5844 62.3297 34.4629 61.7661 34.3374L60.7195 33.7695L60.426 34.046L59.7921 34.0098V33.7631L58.3904 33.7503L58.384 33.5568H58.2096C57.9012 28.3369 55.8698 23.5893 52.6834 19.8435L52.7685 19.7563L52.692 19.6712L53.6959 18.6928L53.5385 18.5269L53.9661 18.061L54.3638 18.0483L54.7382 16.8911C55.053 16.4253 58.7265 14.0898 59.8092 12.9114C60.894 11.7436 60.2282 10.7247 59.9836 10.4886C59.739 10.2206 58.7371 9.55059 57.5374 10.595C56.3378 11.6585 53.9278 15.3107 53.4726 15.6191L52.3176 15.9744L52.2836 16.3572L51.8262 16.7763L51.6561 16.6146L50.6457 17.6037L50.416 17.3719L50.3373 17.4569C46.6617 14.2068 41.9226 12.0924 36.7219 11.6819V11.65H36.6942L36.707 10.2695H36.4539L36.4305 9.61866L36.7155 9.32938L36.1518 8.26584C36.054 7.70642 37.0005 3.45439 36.9282 1.85057C36.8495 0.278663 35.669 0.00426748 35.3137 1.33278e-05C34.9734 -0.00211375 33.7674 0.248881 33.695 1.82079C33.5887 3.42248 34.4544 7.6894 34.3566 8.24882L33.7737 9.30172L34.0417 9.59738L34.0035 10.244L33.7652 10.2398L33.7525 11.6202L33.4058 11.633V11.6479L31.5148 11.85C27.0288 12.5242 22.9895 14.5088 19.7095 17.3548L18.697 16.3253L18.5183 16.4849L18.0674 16.0573L18.0546 15.6723L16.8975 15.298C16.4296 14.9831 14.1025 11.2905 12.9114 10.2036C11.7521 9.13794 10.729 9.78883 10.478 10.0547C10.2249 10.2866 9.53783 11.2948 10.6056 12.4796C11.6628 13.6771 15.3043 16.0786 15.6064 16.5487L15.968 17.7122L16.3636 17.7313L16.7826 18.2057L16.6061 18.3695L17.6122 19.3756C14.2387 23.1256 12.1329 27.986 11.7521 33.3419L10.261 33.3292V33.5759L9.62504 33.5993L9.33575 33.3186L8.25945 33.8673C7.71492 33.9822 3.44162 33.0293 1.85695 33.091C0.268025 33.1526 0.00426794 34.3544 1.37832e-05 34.7245C-0.00211329 35.05 0.240374 36.256 1.82717 36.3411C3.40972 36.4305 7.69791 35.5711 8.24031 35.6775L9.30597 36.2454L9.60164 35.9668L10.2334 36.0178V36.2539L11.7245 36.2646C12.0137 41.6269 14.0791 46.4788 17.3825 50.2926L16.3147 51.3221L16.4891 51.5029L16.0616 51.9645L15.6659 51.9794L15.2852 53.1195C14.9746 53.5726 11.2927 55.9358 10.2121 57.1035C9.12517 58.2713 9.79308 59.305 10.0441 59.5412C10.2929 59.7815 11.3012 60.4664 12.4796 59.4157C13.6899 58.3542 16.0807 54.7297 16.5551 54.3979L17.7186 54.0703L17.7377 53.6725L18.1972 53.2322L18.3737 53.396L19.4287 52.3686C23.183 55.7443 27.9966 57.8948 33.3462 58.2755L33.3313 59.7602H33.5695L33.5972 60.3941L33.3207 60.6877L33.8886 61.7491C33.9737 62.3106 33.0356 66.5754 33.1122 68.1771C33.1569 69.7639 34.3608 69.9957 34.699 70C35.0521 70.0021 36.2369 69.7915 36.3432 68.2047C36.4453 66.6052 35.5711 62.3255 35.6817 61.7682L36.2624 60.7153L35.9859 60.4154L36.0199 59.7858H36.2709L36.2837 58.3904H36.3113V58.3755C41.5184 58.0565 46.2937 56.04 50.0267 52.8409L50.1033 52.9132L50.3352 52.692L51.3306 53.6874L51.5051 53.5279L51.956 53.9767L51.9815 54.3745L53.1301 54.7212C53.579 55.0615 55.9251 58.7265 57.1056 59.8092C58.284 60.877 59.2987 60.2133 59.5475 59.9772C59.7964 59.7432 60.4834 58.7222 59.4178 57.5375C58.3542 56.3527 54.7212 53.9235 54.4149 53.4641L54.0618 52.3155L53.6619 52.2963L53.2429 51.8241L53.4045 51.6454L52.4282 50.6563L52.4878 50.5968L52.4133 50.4947C55.6656 46.817 57.7799 42.0906 58.1777 36.875H58.3542L58.3649 36.6729L59.7687 36.6857V36.4496L60.4047 36.4113L60.694 36.6942L61.7554 36.1454C62.3191 36.0497 66.569 36.9835 68.1516 36.9218C69.7617 36.8623 70.0191 35.6605 70.0213 35.335C70.0255 34.967 69.7894 33.7589 68.1792 33.6738H68.1771ZM52.609 36.7431L51.7539 36.8197C51.3817 40.1209 50.0948 43.1095 48.1124 45.5641L48.6739 46.2448C47.9337 47.136 47.1318 47.9486 46.2299 48.6782L45.562 48.1187C43.1074 50.1076 40.1188 51.4136 36.8155 51.7901L36.7304 52.6026L34.85 52.6877L33.2781 52.6026L33.2079 51.8199C29.8472 51.4923 26.8012 50.2246 24.304 48.2443L23.7892 48.6697C22.9001 47.9422 22.0684 47.1254 21.341 46.2235L21.7451 45.7449C19.6712 43.2414 18.3227 40.172 17.9525 36.7772L17.3974 36.7261L17.3123 34.8734L17.4144 33.2866L17.9377 33.2377C18.2759 29.794 19.5946 26.6799 21.6622 24.1487L21.3622 23.785C22.1025 22.8937 22.9044 22.0663 23.7892 21.3495L24.1636 21.6515C26.6991 19.6074 29.8131 18.2908 33.242 17.9632L33.2888 17.4059L35.1585 17.3187L36.7261 17.4059L36.7878 17.9951C40.1656 18.3822 43.2222 19.7308 45.7109 21.7877L46.2427 21.3537C47.1211 22.0812 47.9528 22.8959 48.6782 23.802L48.2102 24.3487C50.1863 26.8459 51.4497 29.8791 51.7816 33.2164L52.6047 33.2994L52.6962 35.1819L52.609 36.7389V36.7431Z" fill="#0A2B50"/>
<path d="M51.7811 33.2228C51.2004 33.193 50.5538 33.2504 49.8476 33.6333C48.0736 34.5905 45.8742 33.6418 45.4679 33.3291C45.2191 31.6976 44.5831 30.147 43.5919 28.7878C43.6727 28.2624 44.5597 26.0779 46.4762 25.5078C47.31 25.2569 47.8141 24.8059 48.2097 24.3571C47.4674 23.4148 46.6336 22.564 45.7104 21.7961C45.2403 22.1854 44.7681 22.6916 44.5065 23.5382C43.9301 25.4717 41.703 26.3608 41.2223 26.4182L40.4608 25.8992C39.2484 25.2079 37.97 24.757 36.698 24.5422C36.3619 24.1252 35.4537 21.9599 36.396 20.188C36.8384 19.367 36.8575 18.6331 36.7852 18.0056L35.0027 17.8142L33.2415 17.9737C33.1649 18.6076 33.1734 19.3521 33.6308 20.1944C34.5731 21.9726 33.6393 24.1486 33.3117 24.5443C31.693 24.808 30.1317 25.4377 28.7895 26.4289C28.2599 26.3523 26.0924 25.4674 25.5053 23.5488C25.2309 22.5959 24.6821 22.0492 24.1631 21.66C23.24 22.4087 22.4104 23.2383 21.6596 24.155C22.0446 24.6762 22.5976 25.2207 23.5484 25.5142C25.467 26.0907 26.3583 28.3177 26.4136 28.8176L25.9244 29.5791C25.1905 30.7596 24.7438 32.0529 24.5375 33.3376C24.1078 33.6588 21.9361 34.5522 20.1834 33.6226C19.3283 33.1675 18.5689 33.1547 17.9329 33.2419L17.7649 34.767C17.7585 35.4541 17.8776 36.1156 17.95 36.7835C18.5859 36.8686 19.3283 36.8494 20.1919 36.3878C21.9446 35.4498 24.1568 36.3942 24.5375 36.692C24.8013 38.3277 25.45 39.8911 26.4051 41.2482C26.3391 41.7757 25.4479 43.9432 23.5399 44.5154C22.6636 44.7813 22.1318 45.2748 21.7404 45.7512C22.5061 46.6701 23.3527 47.5082 24.2971 48.2506C24.763 47.8634 25.2416 47.338 25.5053 46.4596C26.0818 44.5537 28.3067 43.6603 28.7917 43.605L29.5553 44.1113C30.7677 44.8302 32.0397 45.2811 33.3308 45.4832C33.6499 45.9129 34.5582 48.0825 33.6137 49.8395C33.2181 50.5776 33.1692 51.237 33.199 51.8283L34.6943 51.9942C35.4175 52.0006 36.1088 51.8815 36.8044 51.7985C36.8363 51.2221 36.7831 50.584 36.3789 49.865C35.4345 48.0761 36.3853 45.881 36.6959 45.4705C38.3252 45.2195 39.8652 44.5728 41.2372 43.588C41.7519 43.6965 43.9173 44.5665 44.5065 46.4808C44.7362 47.2551 45.1361 47.74 45.5509 48.1272C46.4932 47.3636 47.3419 46.517 48.1034 45.5726C47.7163 45.1599 47.227 44.7621 46.4762 44.5282C44.5618 43.9411 43.6514 41.7247 43.5961 41.2269L44.1002 40.4633C44.8213 39.2637 45.2574 37.9768 45.4786 36.7027C45.904 36.3645 48.0715 35.4732 49.8263 36.4027C50.5389 36.792 51.1728 36.8515 51.7449 36.8282L51.9343 35.0712L51.7747 33.2313L51.7811 33.2228ZM41.3223 38.7893C39.2462 42.2692 34.7262 43.3902 31.2442 41.3184C27.7494 39.2275 26.6263 34.7372 28.7045 31.2424C30.7741 27.7477 35.3026 26.6118 38.774 28.7006C42.2561 30.7894 43.4068 35.2967 41.3223 38.7893Z" fill="#0A2B50"/>
</svg>
