<svg width="67" height="70" viewBox="0 0 67 70" fill="none" xmlns="http://www.w3.org/2000/svg">
<g style="mix-blend-mode:multiply" opacity="0.9">
<path d="M39.362 10.2751V52.6584H5.9502C5.9502 52.6584 14.1647 28.2321 39.362 10.2751Z" fill="#0A2B50"/>
<path d="M43.8901 20.3821L60.7607 52.6584H43.8901V20.3821Z" fill="#0A2B50"/>
<path d="M0.00701582 56.5694C0.00701582 58.9805 0.988252 61.0272 2.26389 62.6743H65.7652C66.0316 62.6462 66.3189 62.6322 66.6203 62.6322L66.5712 56.5694H42.1099V9.13971C43.3015 8.61404 46.2102 7.60473 48.397 9.0626C51.2076 10.934 55.406 10.2541 56.5134 9.5182C57.6208 8.78226 61.4197 7.13513 61.4197 7.13513C58.2726 6.28705 56.99 8.24255 53.0159 7.99023C49.0418 7.7309 49.7778 3.46945 46.091 3.46945C43.8902 3.46945 42.7057 3.86896 42.1029 4.19138V3.5115C42.7968 3.25918 43.2945 2.59332 43.2945 1.81532C43.2945 0.813039 42.4814 0 41.4721 0C40.4628 0 39.6568 0.813039 39.6568 1.81532C39.6568 2.60033 40.1544 3.25918 40.8483 3.5115V56.5694H0H0.00701582Z" fill="#0A2B50"/>
<path d="M62.0501 64.749H4.22607C6.25167 66.5503 8.24922 67.5035 8.24922 67.5035C14.354 70.952 61.4333 69.8235 61.4333 69.8235C61.4333 69.8235 60.7394 66.8657 62.0501 64.749Z" fill="#0A2B50"/>
</g>
</svg>
