<svg width="34" height="40" viewBox="0 0 34 40" fill="none" xmlns="http://www.w3.org/2000/svg">
<path d="M31.8425 20.6986L31.8376 20.6937L31.8326 20.6887L31.7931 20.6368L31.5977 20.3796L31.4023 20.6368L31.3627 20.6887L31.3578 20.6937V20.6986C29.7181 23.1122 29.0058 24.6479 29.2383 25.2637C29.315 25.464 29.4584 25.5159 29.5029 25.5258L29.5326 25.5332H30.7989C30.3685 28.7357 28.5285 31.2062 25.3308 32.8804C23.283 33.9512 21.2822 34.3468 20.6417 34.4507C19.6055 30.034 18.9748 19.7119 18.9847 13.8708H25.6473C25.9218 14.1057 26.273 14.2368 26.6366 14.2368C27.4774 14.2368 28.1625 13.5518 28.1625 12.711C28.1625 11.8702 27.4774 11.1852 26.6366 11.1852C26.273 11.1852 25.9218 11.3162 25.6473 11.5512H18.9971C19.0045 10.6535 19.0168 9.97094 19.0218 9.57774H19.5263V8.56136C19.8404 8.47233 20.1372 8.32643 20.1372 8.05193C20.1372 7.77743 19.8429 7.58702 19.1603 7.45842V6.67202L19.091 6.60031C19.091 6.60031 19.0737 6.583 19.0465 6.5558C20.0086 5.88563 20.5972 4.78022 20.5972 3.60062C20.5972 1.61484 18.9822 0 16.9963 0C15.0104 0 13.3954 1.61484 13.3954 3.60062C13.3954 4.78022 13.9815 5.88563 14.9436 6.5558C14.9164 6.583 14.8991 6.60031 14.8991 6.60031L14.8298 6.67202V7.45842C14.1472 7.58702 13.8529 7.77002 13.8529 8.05193C13.8529 8.33385 14.1497 8.46986 14.4638 8.56136V9.57774H14.9708C14.9782 9.96847 14.9881 10.6535 14.9955 11.5512H8.34527C8.07075 11.3162 7.71957 11.1852 7.35602 11.1852C6.51515 11.1852 5.83009 11.8702 5.83009 12.711C5.83009 13.5518 6.51515 14.2368 7.35602 14.2368C7.71957 14.2368 8.07075 14.1057 8.34527 13.8708H15.0104C15.0227 19.7119 14.3896 30.0365 13.3534 34.4507C12.7104 34.3444 10.7121 33.9512 8.6643 32.8804C5.46407 31.2062 3.62653 28.7357 3.1962 25.5332H4.46245L4.49213 25.5258C4.53417 25.5159 4.68008 25.464 4.75675 25.2637C4.98923 24.6504 4.27696 23.1147 2.63975 20.6986V20.6937L2.63233 20.6887L2.59276 20.6368L2.39738 20.3796L2.202 20.6368L2.16243 20.6887L2.15749 20.6937L2.15254 20.6986C0.522743 23.1122 -0.18952 24.6479 0.0429552 25.2612C0.119622 25.4615 0.265537 25.5134 0.307581 25.5233L0.337258 25.5308H1.5763C1.47985 26.2306 1.36361 27.3459 2.33802 29.6037C3.05276 31.2556 4.20771 32.7815 5.77321 34.1416C7.71709 35.8306 10.3015 37.2674 13.4572 38.4099C14.4119 38.7437 16.514 39.2012 16.7935 39.6587L17.0012 40L17.209 39.6587C17.4885 39.2012 19.5906 38.7462 20.5428 38.4124C23.701 37.2699 26.2854 35.8331 28.2293 34.1441C29.7948 32.7839 30.9497 31.2581 31.6645 29.6062C32.6413 27.3484 32.5251 26.2355 32.4262 25.5332H33.6628L33.6924 25.5258C33.7345 25.5159 33.8804 25.464 33.9571 25.2637C34.1895 24.6504 33.4773 23.1147 31.8401 20.6986H31.8425ZM14.8645 1.26368C14.8348 1.28099 14.8199 1.29335 14.8199 1.29335C14.8199 1.29335 14.8323 1.27852 14.857 1.25379C14.8818 1.22906 14.9164 1.19196 14.9659 1.14992C15.0153 1.10541 15.0771 1.05595 15.1489 1.00155C15.2231 0.949614 15.3071 0.88779 15.4061 0.833385C15.4555 0.806182 15.505 0.774034 15.5594 0.746832C15.6138 0.722102 15.6707 0.6949 15.7301 0.667697C15.7869 0.638022 15.8512 0.618238 15.9155 0.593509C15.9798 0.571252 16.0441 0.54405 16.1134 0.526739C16.2519 0.492117 16.3929 0.447604 16.5437 0.43524C16.6179 0.427821 16.6921 0.41051 16.7688 0.408037L16.9963 0.400618H17.1101L17.2238 0.412983C17.3005 0.420402 17.3747 0.430294 17.4489 0.437713C17.5231 0.442658 17.5948 0.467388 17.6665 0.482226C17.7382 0.499536 17.8075 0.516847 17.8767 0.534158C18.0128 0.576198 18.1389 0.633076 18.2576 0.680062C18.3194 0.702318 18.3738 0.731994 18.4282 0.761669C18.4802 0.791345 18.5321 0.82102 18.5816 0.848223C18.678 0.905101 18.7695 0.952087 18.8388 1.01391C18.9105 1.07079 18.9723 1.11777 19.0243 1.15981C19.1257 1.24142 19.1801 1.28841 19.1801 1.28841C19.1801 1.28841 19.1133 1.25626 18.9971 1.19938C18.9402 1.16971 18.8709 1.13509 18.7918 1.09304C18.7151 1.04606 18.6187 1.01638 18.5197 0.974343C18.4703 0.95456 18.4183 0.932303 18.3639 0.910046C18.3095 0.88779 18.2551 0.86306 18.1958 0.848223C18.0771 0.816074 17.9534 0.774034 17.8248 0.739413C17.6937 0.717156 17.5577 0.685008 17.4192 0.667697C17.35 0.662751 17.2782 0.655332 17.209 0.650386L17.1026 0.640495H16.9963L16.7836 0.64544C16.7144 0.64544 16.6426 0.660278 16.5734 0.665224C16.4349 0.675116 16.2989 0.704791 16.1678 0.731994C16.101 0.741886 16.0392 0.766615 15.9774 0.781453C15.9155 0.798764 15.8537 0.811128 15.7944 0.833385C15.6781 0.875425 15.5668 0.910046 15.4679 0.95456C15.3665 0.994127 15.2775 1.04111 15.1959 1.07573C15.1167 1.11777 15.0475 1.14992 14.9906 1.18454C14.9337 1.21669 14.8892 1.24142 14.862 1.25873L14.8645 1.26368ZM14.9881 3.60062C14.9881 2.49026 15.8908 1.58764 17.0012 1.58764C18.1117 1.58764 19.0144 2.49026 19.0144 3.60062C19.0144 4.40433 18.5296 5.1289 17.7976 5.44791C17.3425 5.11159 17.1348 5.06461 17.0012 5.06461C16.8677 5.06461 16.6599 5.10912 16.2049 5.44791C15.4728 5.13138 14.9881 4.40433 14.9881 3.60062ZM2.35039 20.842C2.36028 20.7901 2.38254 20.711 2.38254 20.711L2.4691 20.8618C5.11041 25.0263 4.39815 25.2389 4.39815 25.2389L2.98104 25.2587H2.86975C3.52018 33.0683 12.3344 34.6906 13.7466 34.9008L13.7664 34.7944C14.9856 29.945 15.2676 15.7626 15.233 13.8708C15.2305 13.7323 15.4679 13.7274 15.4728 13.8708C15.5495 15.7824 15.5767 29.9376 14.4366 34.8019C14.4366 34.8019 14.2289 35.7416 14.9065 36.6393C15.0524 36.8321 15.7028 37.1932 15.7028 37.1932C-0.290917 33.924 2.13523 21.9475 2.35039 20.842ZM7.91989 12.3054C7.90258 12.345 7.88279 12.387 7.86548 12.4266C7.84075 12.481 7.81849 12.5379 7.79623 12.5923C7.78634 12.6195 7.77645 12.6491 7.76903 12.6689C7.76903 12.6788 7.76408 12.6862 7.76161 12.6937V12.7184L7.75666 12.7308C7.75666 12.7604 7.77645 12.8223 7.79623 12.8717C7.81849 12.9261 7.84075 12.983 7.86548 13.0374C7.91494 13.1462 7.96193 13.2476 8.0015 13.3391C8.08064 13.5172 8.12516 13.6482 8.12516 13.6482C8.12516 13.6482 8.01634 13.5666 7.88527 13.4133C7.85312 13.3762 7.81602 13.3342 7.78387 13.2872C7.74924 13.2402 7.71215 13.1932 7.68 13.1388C7.64537 13.0844 7.61075 13.03 7.58354 12.9657C7.55634 12.8989 7.52419 12.842 7.51677 12.7332V12.7184V12.7159V12.711V12.6986V12.6739C7.52419 12.6516 7.53161 12.6269 7.53655 12.6046C7.54892 12.5651 7.56376 12.5329 7.5786 12.5008C7.60828 12.4365 7.6429 12.3796 7.67505 12.3277C7.7072 12.2733 7.7443 12.2238 7.77892 12.1793C7.81355 12.1323 7.84817 12.0903 7.88032 12.0532C8.00892 11.9048 8.11527 11.8232 8.12022 11.8207H15.2503C15.2156 11.0294 15.2181 9.59011 15.2181 9.59011L15.2602 9.58022L15.4407 9.57527C15.4283 9.26368 15.4407 8.89521 15.4357 8.58609C15.3566 8.52674 15.2849 8.45502 15.2231 8.366C15.1513 8.25966 15.1093 8.12117 15.1167 7.98764C15.1241 7.8541 15.1761 7.73045 15.2404 7.62906C15.2725 7.57713 15.3096 7.53014 15.3492 7.48563C15.369 7.46337 15.3888 7.44111 15.411 7.42133C15.4209 7.41144 15.4283 7.40402 15.4382 7.3966L15.4506 6.73879V6.69675L15.4778 6.66955C15.9675 6.18733 16.4621 5.71005 16.9765 5.25502C16.5511 5.77682 16.1035 6.27883 15.6509 6.77836L15.6633 7.451V7.50294L15.6212 7.5425C15.6064 7.55487 15.5866 7.57218 15.5718 7.58949C15.5545 7.6068 15.5396 7.62411 15.5223 7.6439C15.4902 7.68099 15.463 7.71808 15.4382 7.76012C15.3888 7.83926 15.3566 7.92581 15.3541 8.00742C15.3442 8.17063 15.4605 8.32148 15.6188 8.43524L15.6682 8.46986V8.52921C15.6756 8.89521 15.6781 9.26121 15.6781 9.6272V9.73849L15.5693 9.73601L15.4333 9.73107C15.4085 10.238 15.4333 11.2791 15.3987 11.8232H25.8724C25.8724 11.8232 25.9837 11.9097 26.1123 12.0581C26.1444 12.0952 26.1815 12.1372 26.2137 12.1842C26.2483 12.2312 26.2854 12.2782 26.3175 12.3326C26.3497 12.387 26.3868 12.4439 26.414 12.5057C26.4412 12.5725 26.4734 12.6294 26.4808 12.7382V12.753V12.7555V12.7604V12.7728V12.7975C26.4734 12.8198 26.4659 12.8445 26.461 12.8668C26.4486 12.9063 26.4338 12.9385 26.4189 12.9706C26.3893 13.0349 26.3546 13.0918 26.32 13.1437C26.2879 13.1981 26.2508 13.2476 26.2161 13.2921C26.1815 13.3391 26.1469 13.3787 26.1147 13.4182C25.9837 13.5691 25.8749 13.6532 25.8749 13.6532C25.8749 13.6532 25.9169 13.5221 25.996 13.344C26.0356 13.255 26.0826 13.1512 26.1321 13.0423C26.1568 12.9879 26.179 12.9311 26.2013 12.8767C26.2112 12.8495 26.2211 12.8198 26.2285 12.7975C26.2285 12.7876 26.2335 12.7802 26.2359 12.7728V12.7481L26.2409 12.7357C26.2409 12.706 26.2211 12.6442 26.2013 12.5947C26.179 12.5403 26.1568 12.4835 26.1321 12.4291C26.1123 12.387 26.095 12.3475 26.0752 12.3079H7.91989V12.3054ZM31.6224 24.9669C31.6175 25.0238 31.573 25.1771 31.5581 25.2612C30.9299 29.0275 28.5879 33.3304 20.7802 34.8192H20.753C23.0901 34.374 30.5268 32.4105 31.1204 25.2612H31.0091L29.592 25.2389C29.592 25.2389 28.8822 25.0238 31.521 20.8618L31.6076 20.711C31.6076 20.711 31.6298 20.7901 31.6397 20.842C31.6397 20.842 30.3067 22.9243 30.0149 24.7815C29.9852 24.9743 31.6397 24.7518 31.6199 24.9669H31.6224Z" fill="white"/>
</svg>
