<svg width="70" height="70" viewBox="0 0 70 70" fill="none" xmlns="http://www.w3.org/2000/svg">
<g style="mix-blend-mode:multiply" opacity="0.9">
<path d="M34.9967 7.02881C19.5768 7.02881 7.02881 19.5768 7.02881 34.9967C7.02881 50.4166 19.5768 62.9646 34.9967 62.9646C50.4166 62.9646 62.9646 50.4166 62.9646 34.9967C62.9646 19.5768 50.4166 7.02881 34.9967 7.02881ZM62.3285 34.9967C62.3285 35.3308 62.3157 35.6585 62.3028 35.9862C62.2386 35.9733 62.1679 35.9733 62.0908 36.0183C60.7416 36.7957 59.6429 37.9008 58.3194 38.7039C58.5121 37.496 58.6149 36.256 58.6149 34.9967C58.6149 34.7397 58.6021 34.4891 58.5956 34.2321C58.647 34.2193 58.7048 34.2 58.7562 34.155C59.7907 33.2234 61.0435 32.5681 62.1294 31.6878C62.2643 32.7737 62.335 33.8723 62.335 34.9903L62.3285 34.9967ZM61.7567 40.5736C60.8893 39.899 59.887 39.4621 58.8398 39.128C60.0284 38.3698 61.0564 37.3868 62.2707 36.6543C62.1872 37.9907 62.0201 39.295 61.7503 40.5736H61.7567ZM60.2468 45.4566C59.3473 44.7884 58.2615 44.1394 57.5933 43.2464C58.9426 42.6745 60.1055 41.6787 61.564 41.4153C61.2299 42.8095 60.7865 44.1587 60.2468 45.463V45.4566ZM58.133 49.53C57.5034 48.6883 56.7774 47.9494 55.9164 47.3519C57.2464 47.0243 58.5506 46.5874 59.887 46.2854C59.3795 47.4098 58.7884 48.4956 58.133 49.53ZM55.0555 53.5456C54.4644 52.5754 53.8283 51.631 53.385 50.5837C54.792 50.4809 56.1863 50.3331 57.5933 50.3652C56.8288 51.4896 55.9807 52.5497 55.0555 53.5392V53.5456ZM48.2386 58.904C48.0008 57.8953 47.6732 56.9059 47.384 55.91C48.4827 56.424 49.5621 56.9701 50.7122 57.3428C49.9155 57.9081 49.0931 58.4286 48.2321 58.904H48.2386ZM12.0146 34.9967C12.0146 22.3267 22.3267 12.0146 34.9967 12.0146C47.6667 12.0146 57.9788 22.3267 57.9788 34.9967C57.9788 47.6667 47.6667 57.9788 34.9967 57.9788C22.3267 57.9788 12.0146 47.6732 12.0146 34.9967ZM19.3905 52.7039C18.3496 53.1151 17.418 53.7062 16.4735 54.2973C16.7948 52.9995 16.9618 51.5603 16.9875 50.256C17.7264 51.1298 18.5295 51.9458 19.3905 52.7039ZM12.6699 27.3189C12.323 28.3212 12.0403 29.3556 11.8283 30.4157C10.7938 30.1137 9.753 29.7475 8.86635 29.1307C10.2349 28.7581 11.3335 27.8457 12.6635 27.3189H12.6699ZM10.4469 24.2799C11.8283 23.9522 13.1775 23.4896 14.5653 23.1748C13.9549 24.222 13.4217 25.3271 12.9783 26.4708C12.3487 25.5905 11.34 24.9224 10.4469 24.2799ZM12.0017 40.3551C12.2266 41.3317 12.5093 42.2826 12.8563 43.2078C11.6805 43.3877 10.5047 43.4134 9.3161 43.4198C9.86222 42.167 11.083 41.3574 12.0017 40.3551ZM8.60293 38.5304C9.52812 37.8237 10.5433 37.239 11.4363 36.4937C11.5006 37.5024 11.6291 38.4919 11.8154 39.4621C10.7553 39.1151 9.68232 38.8131 8.60293 38.5304ZM14.4561 46.6195C13.4474 46.8893 12.4579 47.2234 11.4556 47.4933C12.1559 46.3818 12.4643 45.0711 13.1518 43.9403C13.5309 44.8655 13.9678 45.7585 14.4625 46.6259L14.4561 46.6195ZM12.5029 20.2578C13.9228 20.2835 15.3299 20.1293 16.7434 20.033C16.1073 20.8104 15.5226 21.6263 14.9893 22.4809C13.9871 21.909 13.1904 21.1509 12.5029 20.2578ZM15.7025 16.4735C17.0004 16.7948 18.4396 16.9618 19.7438 16.9875C18.87 17.7264 18.0541 18.5295 17.2959 19.3905C16.8847 18.3496 16.2936 17.418 15.7025 16.4735ZM50.603 17.2895C51.6438 16.8783 52.5754 16.2872 53.5199 15.6961C53.1986 16.9939 53.0316 18.4331 53.0059 19.7374C52.267 18.8636 51.4639 18.0476 50.603 17.2895ZM55.0105 47.5061C56.0064 48.0779 56.8031 48.8361 57.4969 49.7292C56.077 49.7035 54.67 49.8577 53.2565 49.954C53.8925 49.1766 54.4772 48.3606 55.0169 47.5061H55.0105ZM57.0151 43.5162C57.6447 44.3964 58.6534 45.0646 59.5465 45.7071C58.1587 46.0348 56.8159 46.4974 55.4281 46.8122C56.0385 45.7585 56.5718 44.6599 57.0151 43.5162ZM58.1651 39.5777C59.1996 39.8797 60.2404 40.2459 61.1271 40.8627C59.7585 41.2354 58.6535 42.1413 57.3299 42.6681C57.6769 41.6658 57.9595 40.6314 58.1716 39.5713L58.1651 39.5777ZM57.9981 29.6383C57.7732 28.6617 57.4905 27.7108 57.1436 26.7856C58.3193 26.6057 59.4951 26.58 60.6837 26.5736C60.1376 27.8264 58.9104 28.636 57.9981 29.6383ZM61.3969 31.463C60.4717 32.1697 59.4566 32.7544 58.5635 33.4997C58.4992 32.491 58.3707 31.5015 58.1844 30.5314C59.2445 30.8783 60.3111 31.1867 61.3969 31.463ZM55.5438 23.3675C56.5525 23.0977 57.5419 22.7636 58.5506 22.4937C57.8503 23.6052 57.5419 24.9159 56.8545 26.0467C56.4754 25.1215 56.0321 24.2285 55.5438 23.3675ZM43.4198 60.6773C42.167 60.1312 41.3574 58.904 40.3551 57.9917C41.3317 57.7668 42.2826 57.4777 43.2078 57.1372C43.3877 58.3129 43.4134 59.4887 43.4198 60.6773ZM46.6259 55.5373C46.8957 56.5461 47.2298 57.5355 47.4997 58.5378C46.3882 57.8375 45.0775 57.5291 43.9467 56.8416C44.8719 56.4625 45.765 56.0256 46.6323 55.5309L46.6259 55.5373ZM39.4685 58.178C39.1151 59.2381 38.8131 60.3111 38.5369 61.3905C37.8301 60.4653 37.2454 59.4501 36.5002 58.5571C37.5089 58.4928 38.4983 58.3643 39.4749 58.178H39.4685ZM40.021 58.5314C40.9848 59.4309 41.7815 60.5424 42.9444 61.1463C41.6723 61.5318 40.3616 61.8274 39.0187 62.0266C39.3143 60.8508 39.642 59.6879 40.021 58.5314ZM43.8953 57.5484C45.0775 58.178 46.4332 58.4735 47.4869 59.2959C46.3818 59.8678 45.2381 60.3625 44.0495 60.7801C44.0495 59.7007 44.0174 58.6213 43.8889 57.5484H43.8953ZM49.0995 56.0128C48.9903 55.9614 47.4611 55.2418 47.4611 55.3574C47.4611 55.2611 47.4097 55.1775 47.3391 55.1133C48.1165 54.6314 48.8682 54.1046 49.5878 53.5392C49.9862 54.6057 50.5323 55.6016 50.8214 56.7003C50.2303 56.5075 49.6585 56.2762 49.0931 56.0128H49.0995ZM52.7104 50.5965C53.1215 51.6374 53.7126 52.569 54.3037 53.5135C53.0059 53.1986 51.5667 53.0316 50.2624 52.9995C51.1362 52.2606 51.9522 51.4575 52.7104 50.5965ZM62.0394 30.9747C60.8636 30.6791 59.7007 30.3515 58.5442 29.9724C59.4437 29.0086 60.5488 28.2119 61.1528 27.049C61.5383 28.3212 61.8338 29.6319 62.033 30.9747H62.0394ZM60.793 25.9375C59.7071 25.9375 58.6342 25.9696 57.5612 26.0981C58.1908 24.9224 58.4864 23.5603 59.3088 22.5066C59.8806 23.6117 60.3753 24.7553 60.793 25.9439V25.9375ZM58.9104 21.7548C57.9017 21.9926 56.9123 22.3202 55.9164 22.6029C56.4304 21.5043 56.9765 20.4249 57.3492 19.2748C57.9081 20.0715 58.435 20.8939 58.9104 21.7548ZM54.2074 15.5547C55.139 16.4735 55.9999 17.463 56.7966 18.5038C55.6851 18.7544 54.6957 19.2748 53.642 19.6924C53.6805 18.3625 53.8668 16.8205 54.2074 15.5483V15.5547ZM56.7195 19.1656C56.5268 19.7567 56.3019 20.3285 56.0321 20.8939C55.9807 21.0031 55.2611 22.5323 55.3767 22.5323C55.2803 22.5323 55.1968 22.5837 55.139 22.6543C54.6571 21.8705 54.1303 21.1252 53.5649 20.4056C54.6314 20.0072 55.6273 19.4611 56.726 19.172L56.7195 19.1656ZM53.5584 14.9379C52.5883 15.529 51.6438 16.1651 50.5965 16.6084C50.4937 15.2014 50.346 13.8072 50.3781 12.4001C51.5025 13.1647 52.5626 14.0128 53.5584 14.9379ZM49.9733 16.7369C49.1959 16.1009 48.3799 15.5162 47.5254 14.9829C48.0972 13.9871 48.8554 13.1839 49.7484 12.4965C49.7227 13.9164 49.8769 15.3234 49.9733 16.7369ZM49.5428 11.8604C48.7012 12.49 47.9623 13.2161 47.3648 14.077C47.0371 12.747 46.6002 11.4428 46.2982 10.1064C47.4226 10.6204 48.5084 11.205 49.5428 11.854V11.8604ZM46.8315 14.5653C45.7778 13.9549 44.6791 13.4217 43.5355 12.9783C44.4157 12.3487 45.0839 11.34 45.7264 10.4469C46.0541 11.8347 46.5167 13.1775 46.8315 14.5653ZM45.4694 9.74657C44.8076 10.6461 44.1523 11.7319 43.2528 12.4001C42.681 11.0508 41.6851 9.88792 41.4217 8.42945C42.8159 8.76355 44.1651 9.20687 45.4694 9.74657ZM42.6874 12.6699C41.6851 12.323 40.6507 12.0403 39.5906 11.8283C39.8861 10.7938 40.2588 9.753 40.8756 8.86635C41.2482 10.2349 42.1541 11.34 42.681 12.6699H42.6874ZM40.58 8.2367C39.9118 9.10407 39.4685 10.1064 39.1344 11.1536C38.3762 9.96502 37.3932 8.93703 36.6608 7.72271C37.9972 7.79981 39.3014 7.97328 40.58 8.24313V8.2367ZM35.0031 7.66488C35.3372 7.66488 35.6649 7.67773 35.9926 7.69058C35.9797 7.75483 35.9797 7.82551 36.0247 7.9026C36.8021 9.25185 37.9136 10.3505 38.7103 11.6741C37.5024 11.4813 36.2624 11.3785 35.0031 11.3785C34.7461 11.3785 34.4956 11.3914 34.2386 11.3978C34.2257 11.34 34.2064 11.2886 34.1615 11.2372C33.2298 10.2027 32.5745 8.94987 31.6943 7.86405C32.7801 7.72913 33.8788 7.65846 34.9967 7.65846L35.0031 7.66488ZM33.5061 11.4363C32.4974 11.5006 31.5079 11.6291 30.5378 11.8154C30.8847 10.7553 31.1867 9.68232 31.4694 8.60293C32.1761 9.52812 32.7608 10.5433 33.5061 11.4363ZM30.9811 7.96043C30.6791 9.1362 30.3579 10.2991 29.9788 11.4556C29.0151 10.5561 28.2184 9.45102 27.0554 8.84708C28.3276 8.46158 29.6383 8.16603 30.9811 7.96685V7.96043ZM29.6447 12.0017C28.6681 12.2266 27.7172 12.5093 26.792 12.8563C26.6121 11.6805 26.5864 10.5047 26.58 9.3161C27.8329 9.86222 28.6424 11.0894 29.6447 12.0017ZM25.9439 9.2133C25.9439 10.2991 25.976 11.3721 26.1045 12.4451C24.9288 11.8154 23.5667 11.5199 22.513 10.6975C23.6181 10.1256 24.7617 9.63092 25.9503 9.2133H25.9439ZM26.0531 13.1518C25.128 13.5309 24.2349 13.9678 23.3675 14.4625C23.0977 13.4538 22.7636 12.4643 22.4937 11.462C23.6052 12.1624 24.9159 12.4708 26.0467 13.1582L26.0531 13.1518ZM21.7548 11.0958C21.9926 12.111 22.3202 13.094 22.6094 14.0899C21.5107 13.5759 20.4313 13.0297 19.2812 12.6571C20.0779 12.0981 20.9067 11.5713 21.7613 11.0958H21.7548ZM20.9003 13.9806C21.0095 14.032 22.5387 14.7516 22.5387 14.636C22.5387 14.7323 22.5837 14.8223 22.6608 14.8801C21.8769 15.362 21.1316 15.8888 20.412 16.4542C20.0137 15.3877 19.4676 14.3918 19.1784 13.2932C19.7695 13.4859 20.3413 13.7172 20.9067 13.9806H20.9003ZM18.5102 13.2161C18.7608 14.3276 19.2812 15.317 19.6989 16.3707C18.3689 16.3322 16.8269 16.1458 15.5547 15.8117C16.4735 14.8801 17.463 14.0128 18.5038 13.2225L18.5102 13.2161ZM14.9379 16.4542C15.529 17.4244 16.1715 18.3689 16.6084 19.4162C15.2014 19.519 13.8072 19.6667 12.4001 19.6346C13.1647 18.5102 14.0128 17.4501 14.9379 16.4542ZM11.8604 20.4698C12.49 21.3115 13.2161 22.0568 14.077 22.6479C12.747 22.9756 11.4428 23.4125 10.1064 23.7145C10.6204 22.5901 11.205 21.5043 11.8604 20.4698ZM9.74657 24.5433C10.6461 25.2051 11.7319 25.8604 12.4001 26.7535C11.0508 27.3253 9.88792 28.3212 8.42945 28.5846C8.76355 27.1904 9.20687 25.8411 9.74657 24.5433ZM8.2367 29.4263C9.10407 30.1009 10.1064 30.5378 11.1536 30.8719C9.96502 31.63 8.93702 32.613 7.72271 33.3455C7.79981 32.0155 7.97328 30.7048 8.24313 29.4263H8.2367ZM7.66488 35.0031C7.66488 34.669 7.67773 34.3414 7.69058 34.0137C7.75483 34.0265 7.82551 34.0265 7.9026 33.9816C9.24542 33.2041 10.3505 32.0926 11.6741 31.2959C11.4813 32.5038 11.3785 33.7438 11.3785 35.0031C11.3785 35.2601 11.3914 35.5171 11.3978 35.7677C11.3464 35.7741 11.2886 35.7998 11.2372 35.8448C10.2027 36.7764 8.94345 37.4318 7.86405 38.312C7.73556 37.2262 7.65846 36.1275 7.65846 35.0096L7.66488 35.0031ZM7.96043 39.0187C9.1362 39.3207 10.2991 39.642 11.4556 40.021C10.5497 40.9848 9.45102 41.7815 8.84065 42.9444C8.45515 41.6722 8.1596 40.3616 7.96043 39.0187ZM9.2133 44.0559C10.2991 44.0559 11.3721 44.0238 12.4451 43.8953C11.8154 45.0775 11.5199 46.4332 10.6975 47.4869C10.1256 46.3818 9.63092 45.2381 9.2133 44.0495V44.0559ZM11.0958 48.2386C12.111 48.0008 13.094 47.6732 14.0899 47.3905C13.5759 48.4891 13.0297 49.5685 12.6571 50.7186C12.0981 49.9219 11.5713 49.0931 11.0958 48.2386ZM15.7989 54.4387C14.8673 53.5199 13.9999 52.5304 13.2096 51.4896C14.3212 51.239 15.3106 50.7186 16.3643 50.301C16.3257 51.631 16.1394 53.1729 15.7989 54.4451V54.4387ZM13.2867 50.8278C13.4795 50.2367 13.7108 49.6649 13.9742 49.0995C14.0256 48.9903 14.7452 47.4612 14.6295 47.4612C14.7259 47.4612 14.8094 47.4162 14.8673 47.3391C15.3491 48.1229 15.876 48.8682 16.4478 49.5878C15.3813 49.9862 14.3854 50.5323 13.2867 50.8214V50.8278ZM16.4478 55.0619C17.418 54.4708 18.3625 53.8347 19.4097 53.3914C19.5125 54.792 19.6603 56.1927 19.6218 57.5998C18.4974 56.8352 17.4373 55.9871 16.4414 55.0619H16.4478ZM20.0329 53.2629C20.8104 53.899 21.6263 54.4836 22.4809 55.0233C21.909 56.0192 21.1509 56.8223 20.2578 57.5098C20.2835 56.0899 20.1293 54.6828 20.0329 53.2693V53.2629ZM20.4634 58.1394C21.3051 57.5098 22.044 56.7838 22.6415 55.9228C22.9692 57.2528 23.4061 58.5571 23.708 59.8935C22.5837 59.3795 21.4978 58.7948 20.4634 58.1394ZM23.1748 55.4345C24.222 56.0449 25.3271 56.5782 26.4708 57.0215C25.5905 57.6511 24.9224 58.6599 24.2799 59.5529C23.9522 58.1716 23.496 56.8223 23.1748 55.4345ZM24.5369 60.2533C25.1986 59.3538 25.854 58.2679 26.747 57.5998C27.3189 58.949 28.3147 60.1119 28.5782 61.5704C27.1839 61.2363 25.8347 60.793 24.5304 60.2533H24.5369ZM27.3124 57.3299C28.3147 57.6769 29.3492 57.9595 30.4093 58.1716C30.1073 59.206 29.7411 60.2468 29.1243 61.1335C28.7516 59.765 27.8457 58.6663 27.3189 57.3363L27.3124 57.3299ZM29.4198 61.7631C30.088 60.8958 30.5314 59.8935 30.8654 58.8462C31.6236 60.0348 32.6066 61.0628 33.3391 62.2771C32.0027 62.1936 30.6984 62.0266 29.4198 61.7567V61.7631ZM34.0073 62.3093C34.0201 62.245 34.0137 62.1679 33.9751 62.0972C33.1977 60.748 32.0862 59.6493 31.2895 58.3258C32.4974 58.5185 33.7374 58.6213 34.9967 58.6213C35.2537 58.6213 35.5043 58.6085 35.7613 58.602C35.7677 58.6599 35.787 58.7113 35.8384 58.7627C36.77 59.7971 37.4253 61.0564 38.3056 62.1358C37.2197 62.2643 36.1211 62.3414 35.0031 62.3414C34.669 62.3414 34.3414 62.3285 34.0137 62.3157L34.0073 62.3093ZM51.4832 56.7838C51.2326 55.6723 50.7122 54.6828 50.2946 53.6291C51.6245 53.6677 53.1665 53.854 54.4387 54.1945C53.5199 55.1261 52.5304 55.9935 51.4832 56.7838Z" fill="#0A2B50"/>
<path d="M34.9977 26.5864C30.3589 26.5864 26.5874 30.3579 26.5874 34.9967C26.5874 39.6355 30.3589 43.407 34.9977 43.407C39.6365 43.407 43.408 39.6355 43.408 34.9967C43.408 30.3579 39.6365 26.5864 34.9977 26.5864ZM34.9977 40.7663C31.8109 40.7663 29.2281 38.1835 29.2281 34.9903C29.2281 31.7971 31.8109 29.2207 34.9977 29.2207C38.1845 29.2207 40.7737 31.8035 40.7737 34.9903C40.7737 38.1771 38.1909 40.7663 34.9977 40.7663Z" fill="#0A2B50"/>
<path d="M34.4901 26.6122V0L29.3501 28.7774C30.725 27.5246 32.5176 26.7279 34.4901 26.6122Z" fill="#0A2B50"/>
<path d="M28.7656 29.3621L0.000976562 34.4956H26.6132C26.7289 32.5231 27.5256 30.737 28.772 29.3621H28.7656Z" fill="#0A2B50"/>
<path d="M41.2173 29.3491C42.4702 30.7241 43.2669 32.5166 43.3825 34.4891H69.9947L41.2173 29.3491Z" fill="#0A2B50"/>
<path d="M40.6454 28.7774L35.499 0V26.6122C37.4779 26.7279 39.2641 27.5246 40.639 28.7774H40.6454Z" fill="#0A2B50"/>
<path d="M29.3564 41.229L34.49 70V43.3878C32.5175 43.2721 30.7314 42.4754 29.3564 41.229Z" fill="#0A2B50"/>
<path d="M41.2173 40.6444L69.9947 35.5044H43.3825C43.2604 37.4833 42.4702 39.2694 41.2173 40.6444Z" fill="#0A2B50"/>
<path d="M26.6132 35.5044H0.000976562L28.772 40.6379C27.5256 39.263 26.7353 37.4769 26.6132 35.5044Z" fill="#0A2B50"/>
<path d="M35.499 43.3814V69.9937L40.6326 41.2227C39.2576 42.4691 37.4715 43.2658 35.499 43.3814Z" fill="#0A2B50"/>
<path d="M39.1477 34.9967C39.1477 37.2904 37.2909 39.1473 34.9972 39.1473C32.7035 39.1473 30.8467 37.2904 30.8467 34.9967C30.8467 32.703 32.7035 30.8462 34.9972 30.8462C37.2909 30.8462 39.1477 32.703 39.1477 34.9967Z" fill="#0A2B50"/>
<path d="M33.7971 28.4562L18.769 18.7673L28.4515 33.8018C28.9462 31.084 31.0793 28.9509 33.7971 28.4562Z" fill="#0A2B50"/>
<path d="M36.2007 28.4562C38.9184 28.9509 41.0515 31.0904 41.5463 33.8018L51.2287 18.7673L36.2007 28.4562Z" fill="#0A2B50"/>
<path d="M36.2007 41.5439L51.2287 51.2263L41.5463 36.1919C41.0515 38.9097 38.9184 41.0427 36.2007 41.5375V41.5439Z" fill="#0A2B50"/>
<path d="M28.4515 36.1982L18.769 51.2327L33.7971 41.5502C31.0793 41.0555 28.9462 38.916 28.4515 36.2047V36.1982Z" fill="#0A2B50"/>
</g>
</svg>
