<svg width="65" height="60" viewBox="0 0 65 60" fill="none" xmlns="http://www.w3.org/2000/svg">
<path fill-rule="evenodd" clip-rule="evenodd" d="M9.1253 47.0805L60.0809 39.4819C59.4312 40.8121 58.642 42.0631 57.6886 43.2007C50.8247 51.3864 36.9612 51.1249 27.4085 50.2354C22.8225 49.8083 18.0787 49.7898 13.5267 50.5717C13.1288 50.6404 12.7324 50.7151 12.3368 50.7962L9.125 47.0805H9.1253Z" fill="#0A2B50"/>
<path fill-rule="evenodd" clip-rule="evenodd" d="M11.1774 52.9871C2.3782 55.2469 0 60 0 60C4.50103 56.7533 9.55692 55.6463 14.7821 55.561C15.2334 55.5537 15.6856 55.554 16.1388 55.561C16.2783 55.5631 16.4184 55.5661 16.5583 55.5695C23.2617 55.7368 30.1691 57.3608 36.4815 58.126C38.6043 58.3833 40.6602 58.5437 42.6177 58.5191C56.7746 58.3393 65.8568 44.2807 64.3339 30.7887V30.7881C62.2702 50.4175 46.7946 53.9236 27.2384 52.1031C21.7993 51.5967 17.3919 51.8097 13.8365 52.4209C13.2627 52.5193 12.7114 52.6284 12.1815 52.7462C11.8379 52.8225 11.503 52.903 11.1771 52.9868" fill="#0A2B50"/>
<path fill-rule="evenodd" clip-rule="evenodd" d="M5.40039 0.0118661C34.139 -0.652786 48.8451 26.7805 53.6411 37.9757L33.0328 41.049C29.9716 22.0903 21.8329 11.7706 5.40039 0.0118661ZM17.253 43.402C23.3451 30.471 18.339 17.9013 13.0842 9.64841H13.0848C13.0848 9.64841 26.1986 15.6546 30.2606 41.4624L17.253 43.402Z" fill="#0A2B50"/>
</svg>
