<svg width="43" height="40" viewBox="0 0 43 40" fill="none" xmlns="http://www.w3.org/2000/svg">
<path fill-rule="evenodd" clip-rule="evenodd" d="M35.9898 4.6825C34.6571 4.88261 10.3294 38.0219 10.3294 38.0219C10.3294 38.0219 9.84038 40.8058 11.9801 39.7685C12.4866 39.5219 37.337 6.11047 37.337 6.11047C37.337 6.11047 37.5734 4.44397 35.9898 4.6809V4.6825Z" fill="white"/>
<path fill-rule="evenodd" clip-rule="evenodd" d="M33.415 10.8025L36.6877 27.9621C36.6877 27.9621 38.495 28.5672 38.6069 27.2977C38.7188 26.0315 34.6615 8.61255 34.6615 8.61255L33.415 10.8041V10.8025Z" fill="white"/>
<path fill-rule="evenodd" clip-rule="evenodd" d="M24.8963 0L10.4873 18.7076L12.6957 18.3586L25.8488 1.27108C25.8488 1.27108 26.0868 0.0800428 24.8979 0.00160089L24.8963 0Z" fill="white"/>
<path fill-rule="evenodd" clip-rule="evenodd" d="M2.15295 30.7988L11.4245 36.5363L10.5871 37.6713L1.36035 31.7529L2.15295 30.7988Z" fill="white"/>
<path fill-rule="evenodd" clip-rule="evenodd" d="M5.87845 24.2898C5.87845 24.2898 1.04454 30.5604 0.251942 31.6729C-0.54066 32.7855 0.69619 33.7092 1.75725 32.547C2.58501 31.6393 7.11371 25.1751 7.11371 25.1751L5.87685 24.2898H5.87845Z" fill="white"/>
<path fill-rule="evenodd" clip-rule="evenodd" d="M13.5649 26.5134C13.5649 26.5134 12.1394 28.0822 13.8813 28.6873L17.3681 27.5988L18.8718 25.4808L13.5633 26.5134H13.5649Z" fill="white"/>
<path fill-rule="evenodd" clip-rule="evenodd" d="M23.8161 24.7061L22.5186 26.7904L33.1148 25.0247L31.1333 23.8881L23.8161 24.7061Z" fill="white"/>
<path fill-rule="evenodd" clip-rule="evenodd" d="M38.1657 22.8891L38.6259 24.5092L42.9724 23.816C42.9724 23.816 43.2489 22.3208 42.0616 22.4537C41.042 22.5689 38.1641 22.8891 38.1641 22.8891H38.1657Z" fill="white"/>
<path fill-rule="evenodd" clip-rule="evenodd" d="M27.0166 21.1233L35.9765 25.8315L35.7368 24.3443L27.6574 19.9963L27.0166 21.1233Z" fill="white"/>
<path fill-rule="evenodd" clip-rule="evenodd" d="M3.91699 23.3181L4.98764 23.888C4.98764 23.888 5.16022 21.1601 9.28783 21.6708C12.4966 22.0662 17.4487 18.1777 19.272 15.3586C21.0954 12.5411 24.9817 5.79672 25.8685 3.84848C26.2984 2.90397 27.1965 1.94346 27.1965 1.94346C27.1965 1.94346 26.9568 1.44559 25.8685 1.54645C25.8685 1.54645 25.0168 2.30525 23.8183 4.65851C22.5207 7.20227 20.5073 11.11 19.4702 12.666C18.6137 13.9515 16.2646 17.3693 14.3183 18.7332C13.0175 19.6473 11.5058 20.9552 8.13726 21.1938C4.7703 21.4323 4.09597 21.2338 3.91859 23.3181H3.91699Z" fill="white"/>
<path fill-rule="evenodd" clip-rule="evenodd" d="M6.87196 25.0006C6.87196 25.0006 6.31425 23.0988 9.91931 22.8602C13.526 22.6233 14.0341 22.0902 14.9514 21.7893C17.131 21.0753 18.8345 19.1703 19.9435 17.8207C21.0541 16.4712 23.0084 13.6361 24.0248 12.0256C25.0315 10.4328 26.4521 7.52403 27.1952 5.55497C27.7976 3.96052 28.6206 2.53896 29.9277 2.93597C31.2349 3.33299 31.0783 3.53149 31.0783 3.53149C31.0783 3.53149 29.7871 3.75561 28.106 8.01709C26.9555 10.9339 25.2536 13.3768 24.0663 15.3202C22.7767 17.4285 20.4612 21.0449 17.3707 22.3303C17.3707 22.3303 14.122 23.4557 11.7442 23.5358C9.36642 23.6158 8.0992 24.0913 8.0992 25.7786L6.87356 25.0006H6.87196Z" fill="white"/>
<path fill-rule="evenodd" clip-rule="evenodd" d="M10.5151 26.5918C10.5151 26.5918 9.96062 24.0465 13.8038 24.3074C17.6469 24.5683 20.3811 22.5929 20.7774 22.3303C21.1737 22.0662 25.7695 16.9867 26.4822 15.5571C27.1949 14.1292 30.9566 7.71773 31.3641 6.42904C31.7476 5.22039 32.5626 4.2967 33.1778 4.28709C34.1286 4.27108 34.5648 4.52402 34.5249 5.08112C34.4849 5.63661 32.6632 5.87514 31.8083 9.48667C30.9534 13.1014 25.6816 17.4301 25.6816 17.4301C25.6816 17.4301 21.252 23.4926 19.6284 24.309C18.0033 25.1254 15.2308 24.1729 13.2093 25.1655C11.1895 26.1564 11.8622 27.0849 11.8622 27.0849L10.5151 26.5934V26.5918Z" fill="white"/>
<path fill-rule="evenodd" clip-rule="evenodd" d="M15.1486 18.0544C15.1486 18.0544 4.46124 19.9434 2.72902 20.4797C2.28158 20.6174 1.25407 22.1014 3.14449 22.8602C5.03491 23.619 1.89648 21.6692 3.91633 21.1937C5.93619 20.7166 12.5151 19.9434 12.5151 19.9434L15.3707 17.8463" fill="white"/>
<path fill-rule="evenodd" clip-rule="evenodd" d="M20.9729 4.66004C20.9729 4.66004 19.0121 1.92578 19.3685 6.85641L20.9729 4.66004Z" fill="white"/>
<path fill-rule="evenodd" clip-rule="evenodd" d="M21.5467 7.09338V8.84952L20.1484 10.8346V8.96478L21.5467 7.09338Z" fill="white"/>
</svg>
