<svg width="59" height="70" viewBox="0 0 59 70" fill="none" xmlns="http://www.w3.org/2000/svg">
<path d="M55.2561 36.2226L55.2476 36.2139L55.239 36.2053L55.1703 36.1144L54.8313 35.6643L54.4922 36.1144L54.4236 36.2053L54.415 36.2139V36.2226C51.5696 40.4464 50.3337 43.1339 50.7371 44.2114C50.8701 44.562 51.119 44.6529 51.1963 44.6702L51.2478 44.6832H53.4451C52.6983 50.2875 49.5054 54.6108 43.9563 57.5407C40.4029 59.4145 36.9309 60.107 35.8194 60.2887C34.0212 52.5595 32.9269 34.4958 32.944 24.2739H44.5056C44.982 24.685 45.5914 24.9144 46.2223 24.9144C47.6814 24.9144 48.8702 23.7156 48.8702 22.2442C48.8702 20.7728 47.6814 19.574 46.2223 19.574C45.5914 19.574 44.982 19.8034 44.5056 20.2145H32.9655C32.9784 18.6436 32.9998 17.4492 33.0084 16.7611H33.8839V14.9824C34.4289 14.8266 34.9439 14.5713 34.9439 14.0909C34.9439 13.6105 34.4332 13.2773 33.2487 13.0522V11.676L33.1286 11.5505C33.1286 11.5505 33.0985 11.5202 33.0513 11.4726C34.7208 10.2998 35.7422 8.36538 35.7422 6.30108C35.7422 2.82597 32.9397 0 29.4936 0C26.0474 0 23.245 2.82597 23.245 6.30108C23.245 8.36538 24.2621 10.2998 25.9315 11.4726C25.8843 11.5202 25.8543 11.5505 25.8543 11.5505L25.7341 11.676V13.0522C24.5496 13.2773 24.0389 13.5975 24.0389 14.0909C24.0389 14.5842 24.5539 14.8223 25.099 14.9824V16.7611H25.9787C25.9916 17.4448 26.0088 18.6436 26.0217 20.2145H14.4815C14.0051 19.8034 13.3957 19.574 12.7649 19.574C11.3057 19.574 10.1169 20.7728 10.1169 22.2442C10.1169 23.7156 11.3057 24.9144 12.7649 24.9144C13.3957 24.9144 14.0051 24.685 14.4815 24.2739H26.0474C26.0689 34.4958 24.9702 52.5638 23.172 60.2887C22.0562 60.1026 18.5886 59.4145 15.0351 57.5407C9.48176 54.6108 6.29309 50.2875 5.54635 44.6832H7.74366L7.79516 44.6702C7.86812 44.6529 8.12132 44.562 8.25436 44.2114C8.65777 43.1382 7.42179 40.4507 4.58074 36.2226V36.2139L4.56786 36.2053L4.4992 36.1144L4.16016 35.6643L3.82112 36.1144L3.75246 36.2053L3.74387 36.2139L3.73529 36.2226C0.907113 40.4464 -0.328872 43.1339 0.0745399 44.2071C0.20758 44.5577 0.460785 44.6485 0.533743 44.6658L0.585242 44.6788H2.73534C2.56797 45.9036 2.36626 47.8553 4.05716 51.8065C5.29744 54.6974 7.30162 57.3675 10.0182 59.7478C13.3914 62.7036 17.8762 65.2179 23.3523 67.2173C25.0088 67.8016 28.6567 68.6022 29.1417 69.4028L29.5022 70L29.8627 69.4028C30.3476 68.6022 33.9955 67.8059 35.6477 67.2216C41.1281 65.2223 45.6129 62.7079 48.9861 59.7521C51.7027 57.3719 53.7069 54.7017 54.9472 51.8108C56.6423 47.8597 56.4406 45.9122 56.269 44.6832H58.4148L58.4663 44.6702C58.5392 44.6529 58.7924 44.562 58.9255 44.2114C59.3289 43.1382 58.0929 40.4507 55.2519 36.2226H55.2561ZM25.7942 2.21144C25.7427 2.24173 25.7169 2.26337 25.7169 2.26337C25.7169 2.26337 25.7384 2.2374 25.7813 2.19413C25.8242 2.15085 25.8843 2.08594 25.9702 2.01236C26.056 1.93447 26.1633 1.84791 26.2877 1.7527C26.4165 1.66182 26.5624 1.55363 26.7341 1.45842C26.8199 1.41082 26.9057 1.35456 27.0001 1.30696C27.0946 1.26368 27.1933 1.21607 27.2963 1.16847C27.395 1.11654 27.5066 1.08192 27.6181 1.03864C27.7297 0.999691 27.8413 0.952087 27.9615 0.921793C28.2018 0.861206 28.4464 0.783308 28.7082 0.761669C28.837 0.748686 28.9657 0.718393 29.0987 0.714065L29.4936 0.701082H29.691L29.8884 0.72272C30.0214 0.735703 30.1502 0.753014 30.2789 0.765997C30.4077 0.774652 30.5321 0.817929 30.6566 0.843895C30.7811 0.874189 30.9012 0.904482 31.0214 0.934776C31.2574 1.00835 31.4763 1.10788 31.6823 1.19011C31.7896 1.22906 31.884 1.28099 31.9784 1.33292C32.0685 1.38485 32.1587 1.43679 32.2445 1.48439C32.4119 1.58393 32.5707 1.66615 32.6908 1.77434C32.8153 1.87388 32.9226 1.95611 33.0127 2.02968C33.1887 2.17249 33.2831 2.25471 33.2831 2.25471C33.2831 2.25471 33.1672 2.19845 32.9655 2.09892C32.8668 2.04699 32.7466 1.9864 32.6093 1.91283C32.4762 1.8306 32.3089 1.77867 32.1372 1.7051C32.0514 1.67048 31.9613 1.63153 31.8668 1.59258C31.7724 1.55363 31.678 1.51036 31.575 1.48439C31.369 1.42813 31.1544 1.35456 30.9313 1.29397C30.7038 1.25502 30.4678 1.19876 30.2274 1.16847C30.1073 1.15981 29.9828 1.14683 29.8627 1.13818L29.6781 1.12087H29.4936L29.1245 1.12952C29.0043 1.12952 28.8799 1.15549 28.7597 1.16414C28.5194 1.18145 28.2833 1.23338 28.0559 1.28099C27.94 1.2983 27.8327 1.34158 27.7254 1.36754C27.6181 1.39784 27.5108 1.41947 27.4078 1.45842C27.2061 1.53199 27.013 1.59258 26.8414 1.67048C26.6654 1.73972 26.5109 1.82195 26.3693 1.88253C26.2319 1.95611 26.1118 2.01236 26.0131 2.07295C25.9144 2.12921 25.8371 2.17249 25.7899 2.20278L25.7942 2.21144ZM26.0088 6.30108C26.0088 4.35796 27.5752 2.77836 29.5022 2.77836C31.4291 2.77836 32.9955 4.35796 32.9955 6.30108C32.9955 7.70757 32.1544 8.97558 30.8841 9.53385C30.0944 8.94529 29.7339 8.86306 29.5022 8.86306C29.2704 8.86306 28.9099 8.94096 28.1203 9.53385C26.8499 8.97991 26.0088 7.70757 26.0088 6.30108ZM4.07862 36.4736C4.09578 36.3827 4.13441 36.2442 4.13441 36.2442L4.28462 36.5082C8.86806 43.796 7.63208 44.1682 7.63208 44.1682L5.17298 44.2028H4.97986C6.10855 57.8696 21.4039 60.7085 23.8544 61.0764L23.8887 60.8903C26.0045 52.4037 26.4937 27.5845 26.4337 24.2739C26.4294 24.0315 26.8414 24.0229 26.8499 24.2739C26.983 27.6192 27.0302 52.3907 25.0517 60.9032C25.0517 60.9032 24.6913 62.5478 25.8672 64.1187C26.1204 64.4563 27.2491 65.0881 27.2491 65.0881C-0.504826 59.3669 3.70525 38.408 4.07862 36.4736ZM13.7433 21.5345C13.7133 21.6037 13.679 21.6773 13.6489 21.7465C13.606 21.8417 13.5674 21.9413 13.5288 22.0365C13.5116 22.0841 13.4944 22.136 13.4816 22.1706C13.4816 22.1879 13.473 22.2009 13.4687 22.2139V22.2572L13.4601 22.2788C13.4601 22.3308 13.4944 22.4389 13.5288 22.5255C13.5674 22.6207 13.606 22.7202 13.6489 22.8155C13.7348 23.0059 13.8163 23.1833 13.885 23.3434C14.0223 23.655 14.0995 23.8844 14.0995 23.8844C14.0995 23.8844 13.9107 23.7416 13.6833 23.4733C13.6275 23.4083 13.5631 23.3348 13.5073 23.2526C13.4472 23.1703 13.3828 23.0881 13.3271 22.9929C13.267 22.8977 13.2069 22.8025 13.1597 22.69C13.1125 22.5731 13.0567 22.4736 13.0438 22.2832V22.2572V22.2529V22.2442V22.2226V22.1793C13.0567 22.1403 13.0696 22.0971 13.0781 22.0581C13.0996 21.9889 13.1253 21.9326 13.1511 21.8764C13.2026 21.7638 13.2627 21.6643 13.3185 21.5734C13.3743 21.4782 13.4386 21.3917 13.4987 21.3138C13.5588 21.2315 13.6189 21.158 13.6747 21.093C13.8978 20.8334 14.0824 20.6906 14.091 20.6862H26.4637C26.4036 19.3014 26.4079 16.7827 26.4079 16.7827L26.4809 16.7654L26.7941 16.7567C26.7727 16.2114 26.7941 15.5666 26.7856 15.0257C26.6482 14.9218 26.5238 14.7963 26.4165 14.6405C26.292 14.4544 26.2191 14.2121 26.2319 13.9784C26.2448 13.7447 26.3349 13.5283 26.4465 13.3509C26.5023 13.26 26.5667 13.1777 26.6354 13.0998C26.6697 13.0609 26.704 13.0219 26.7426 12.9873C26.7598 12.97 26.7727 12.957 26.7899 12.944L26.8113 11.7929V11.7193L26.8585 11.6717C27.7083 10.8278 28.5666 9.99258 29.4592 9.19629C28.7211 10.1094 27.9443 10.9879 27.1589 11.8621L27.1804 13.0393V13.1301L27.1074 13.1994C27.0817 13.221 27.0474 13.2513 27.0216 13.2816C26.9916 13.3119 26.9658 13.3422 26.9358 13.3768C26.88 13.4417 26.8328 13.5066 26.7899 13.5802C26.704 13.7187 26.6482 13.8702 26.6439 14.013C26.6268 14.2986 26.8285 14.5626 27.1031 14.7617L27.189 14.8223V14.9261C27.2018 15.5666 27.2061 16.2071 27.2061 16.8476V17.0423L27.0173 17.038L26.7813 17.0294C26.7384 17.9165 26.7813 19.7385 26.7212 20.6906H44.8962C44.8962 20.6906 45.0893 20.842 45.3125 21.1017C45.3683 21.1666 45.4326 21.2402 45.4884 21.3224C45.5485 21.4046 45.6129 21.4869 45.6687 21.5821C45.7245 21.6773 45.7888 21.7768 45.836 21.885C45.8833 22.0019 45.939 22.1014 45.9519 22.2918V22.3178V22.3221V22.3308V22.3524V22.3957C45.939 22.4346 45.9262 22.4779 45.9176 22.5168C45.8961 22.5861 45.8704 22.6423 45.8446 22.6986C45.7931 22.8111 45.733 22.9107 45.673 23.0015C45.6172 23.0968 45.5528 23.1833 45.4927 23.2612C45.4326 23.3434 45.3726 23.4127 45.3168 23.4819C45.0893 23.7459 44.9005 23.893 44.9005 23.893C44.9005 23.893 44.9734 23.6637 45.1108 23.3521C45.1794 23.1963 45.261 23.0145 45.3468 22.8241C45.3897 22.7289 45.4283 22.6294 45.467 22.5342C45.4841 22.4866 45.5013 22.4346 45.5142 22.3957C45.5142 22.3784 45.5228 22.3654 45.5271 22.3524V22.3091L45.5356 22.2875C45.5356 22.2355 45.5013 22.1274 45.467 22.0408C45.4283 21.9456 45.3897 21.8461 45.3468 21.7508C45.3125 21.6773 45.2824 21.608 45.2481 21.5388H13.7433V21.5345ZM54.8742 43.6921C54.8656 43.7917 54.7884 44.06 54.7626 44.2071C53.6725 50.7981 49.6084 58.3283 36.0597 60.9335H36.0125C40.0681 60.1546 52.973 56.7184 54.003 44.2071H53.8099L51.3508 44.1682C51.3508 44.1682 50.1191 43.7917 54.6982 36.5082L54.8484 36.2442C54.8484 36.2442 54.8871 36.3827 54.9042 36.4736C54.9042 36.4736 52.5911 40.1175 52.0846 43.3675C52.0331 43.7051 54.9042 43.3156 54.8699 43.6921H54.8742Z" fill="#0A2B50"/>
</svg>
