<svg width="14" height="14" viewBox="0 0 14 14" fill="none" xmlns="http://www.w3.org/2000/svg">
<path d="M1.4353 1.76971V12.5425H12.5584C12.5636 12.433 12.5734 12.3183 12.5734 12.2043C12.5748 11.4073 12.5702 10.6096 12.5774 9.81259C12.5787 9.66315 12.6003 9.50454 12.6554 9.36755C12.7688 9.08506 13.0755 8.92906 13.3756 8.96904C13.6706 9.00903 13.9085 9.2476 13.955 9.55369C13.9648 9.61793 13.9701 9.68413 13.9701 9.74967C13.9707 10.8967 13.9714 12.043 13.9701 13.1901C13.9701 13.2556 13.9661 13.3212 13.9563 13.386C13.9117 13.6869 13.7426 13.8842 13.4484 13.9582C13.3232 13.9897 13.1902 13.9982 13.0604 13.9982C9.01933 14.0002 4.97827 14.0002 0.937864 13.9995C0.839558 13.9995 0.73994 14.0035 0.643599 13.9884C0.312633 13.9379 0.0911155 13.7295 0.0255777 13.3991C0.00263944 13.2825 0.000673302 13.1606 0.000673302 13.0413C0.000673302 9.12045 0.000673302 5.19896 0.000673302 1.27814C0.000673302 1.19096 -0.00325897 1.10248 0.00788246 1.01662C0.0603127 0.6109 0.3146 0.37101 0.7229 0.338238C0.787783 0.332995 0.853976 0.335616 0.919514 0.335616C2.05528 0.335616 3.19106 0.335616 4.32683 0.335616C4.41399 0.335616 4.50247 0.332995 4.58832 0.344137C5.00711 0.396572 5.25419 0.686931 5.23649 1.10248C5.22011 1.49377 4.94943 1.7625 4.53392 1.76644C3.62754 1.7743 2.72115 1.76971 1.81476 1.76971C1.69679 1.76971 1.57882 1.76971 1.4353 1.76971Z" fill="#0A2B50"/>
<path d="M11.4895 1.47143C11.3709 1.47143 11.2523 1.47078 11.1337 1.47143C10.2161 1.47799 9.29862 1.48847 8.38109 1.49109C7.98983 1.49241 7.74537 1.31216 7.64575 0.969366C7.52123 0.541365 7.80108 0.110742 8.24084 0.056996C8.29458 0.0504416 8.34963 0.0537188 8.40468 0.0530633C9.95531 0.0360219 11.5066 0.0189806 13.0572 0.00193917C13.1116 0.00193917 13.1667 -0.00133802 13.2211 0.00062829C13.687 0.0157034 13.9767 0.289021 13.9964 0.755693C14.0082 1.03884 13.9931 1.3233 13.9898 1.60776C13.9754 2.97304 13.9636 4.33832 13.9446 5.70359C13.9426 5.85303 13.9295 6.01296 13.8758 6.14995C13.7532 6.46259 13.438 6.61138 13.0998 6.54649C12.8029 6.48946 12.5814 6.24761 12.567 5.9271C12.5526 5.60003 12.565 5.27166 12.565 4.94394C12.565 4.15807 12.565 3.37155 12.565 2.51489C12.451 2.62435 12.3697 2.69841 12.293 2.77706C10.861 4.24918 9.43232 5.72326 7.99507 7.19013C7.86268 7.32515 7.6936 7.45492 7.5173 7.51064C7.26367 7.5906 7.02052 7.50474 6.84357 7.28844C6.66269 7.06756 6.60895 6.81653 6.73019 6.55632C6.79245 6.42195 6.89207 6.29808 6.99627 6.19058C8.43942 4.69946 9.88649 3.21162 11.3329 1.72312C11.3919 1.66216 11.4502 1.5999 11.5086 1.53829C11.5027 1.516 11.4961 1.49372 11.4902 1.47209L11.4895 1.47143Z" fill="#0A2B50"/>
</svg>
