<svg width="18" height="18" viewBox="0 0 18 18" fill="none" xmlns="http://www.w3.org/2000/svg">
<path d="M1.84533 2.27535V16.1261H16.146C16.1528 15.9853 16.1654 15.8379 16.1654 15.6912C16.1671 14.6665 16.1612 13.6409 16.1705 12.6162C16.1721 12.4241 16.2 12.2201 16.2707 12.044C16.4165 11.6808 16.8108 11.4802 17.1968 11.5316C17.5759 11.583 17.8818 11.8898 17.9416 12.2833C17.9543 12.3659 17.961 12.451 17.961 12.5353C17.9618 14.01 17.9627 15.4839 17.961 16.9587C17.961 17.0429 17.9559 17.1272 17.9433 17.2106C17.886 17.5974 17.6686 17.8511 17.2903 17.9463C17.1293 17.9868 16.9583 17.9977 16.7915 17.9977C11.596 18.0002 6.40045 18.0002 1.20579 17.9994C1.0794 17.9994 0.951325 18.0045 0.827462 17.9851C0.401946 17.9202 0.117145 17.6522 0.0328847 17.2275C0.00339347 17.0775 0.000865649 16.9207 0.000865649 16.7674C0.000865649 11.7263 0.000865649 6.68438 0.000865649 1.64332C0.000865649 1.53124 -0.00418998 1.41747 0.0101343 1.30708C0.0775427 0.785443 0.404474 0.477013 0.929417 0.434878C1.01283 0.428136 1.09794 0.431507 1.1822 0.431507C2.64243 0.431507 4.10267 0.431507 5.5629 0.431507C5.67497 0.431507 5.78872 0.428136 5.8991 0.442462C6.43753 0.509878 6.75519 0.883197 6.73244 1.41747C6.71138 1.92057 6.36338 2.26608 5.82917 2.27113C4.66384 2.28125 3.49852 2.27535 2.3332 2.27535C2.18153 2.27535 2.02986 2.27535 1.84533 2.27535Z" fill="white"/>
<path d="M14.7711 1.89184C14.6186 1.89184 14.4661 1.891 14.3136 1.89184C13.1339 1.90027 11.9543 1.91375 10.7746 1.91712C10.2716 1.91881 9.95732 1.68706 9.82924 1.24633C9.66915 0.69604 10.0289 0.142382 10.5943 0.0732805C10.6634 0.0648535 10.7342 0.069067 10.805 0.0682243C12.7986 0.0463139 14.793 0.0244036 16.7866 0.00249321C16.8566 0.00249321 16.9274 -0.00172032 16.9973 0.000807801C17.5964 0.02019 17.9688 0.371599 17.9941 0.971605C18.0093 1.33565 17.9899 1.70139 17.9857 2.06712C17.9671 3.82248 17.952 5.57784 17.9275 7.33319C17.925 7.52533 17.9081 7.73095 17.8391 7.90708C17.6815 8.30905 17.2762 8.50034 16.8414 8.41691C16.4597 8.3436 16.1749 8.03264 16.1564 7.62056C16.1378 7.20005 16.1538 6.77785 16.1538 6.3565C16.1538 5.34609 16.1538 4.33485 16.1538 3.23343C16.0072 3.37416 15.9027 3.46939 15.8042 3.57051C13.9631 5.46323 12.1262 7.35847 10.2784 9.24445C10.1081 9.41805 9.89075 9.5849 9.66409 9.65653C9.33801 9.75934 9.0254 9.64895 8.7979 9.37086C8.56534 9.08687 8.49624 8.76411 8.65212 8.42955C8.73217 8.2568 8.86025 8.09753 8.99422 7.95932C10.8496 6.04217 12.7101 4.12923 14.5697 2.21544C14.6456 2.13707 14.7206 2.05701 14.7956 1.9778C14.788 1.94914 14.7795 1.92049 14.772 1.89268L14.7711 1.89184Z" fill="white"/>
</svg>
