<svg width="39" height="44" viewBox="0 0 39 44" fill="none" xmlns="http://www.w3.org/2000/svg">
<path d="M19.2105 7.09766C10.9802 7.09766 4.31152 13.7664 4.31152 21.9967C4.31152 30.227 10.9802 36.8957 19.2105 36.8957C27.4408 36.8957 34.1095 30.227 34.1095 21.9967C34.1095 13.7664 27.4408 7.09766 19.2105 7.09766ZM19.2105 32.8811C13.1987 32.8811 8.32615 28.0085 8.32615 21.9967C8.32615 15.9848 13.1987 11.1123 19.2105 11.1123C25.2224 11.1123 30.0949 15.9848 30.0949 21.9967C30.0949 28.0085 25.2224 32.8811 19.2105 32.8811Z" fill="#0A2B50"/>
<path d="M36.388 30.6961C36.0395 30.5889 35.691 30.4682 35.3559 30.3208C34.6588 30.0125 34.1629 29.731 33.8077 29.483L33.8211 29.4629C33.8747 29.3691 33.8412 29.2551 33.7473 29.2015L33.3854 28.9938C33.3921 28.853 33.3251 28.7123 33.1978 28.6385L28.5732 25.9711C28.4459 25.8973 28.285 25.904 28.1711 25.9845L27.6953 25.7097C27.6014 25.6561 27.4875 25.6896 27.4339 25.7834L27.3668 25.904L27.0719 25.7365C27.0451 25.3411 26.824 24.9657 26.4553 24.7513C26.0867 24.5368 25.6511 24.5368 25.2892 24.711L24.9943 24.5435L25.0747 24.4027C25.1819 24.2151 25.1149 23.9805 24.9339 23.8733L23.2249 22.888C23.2852 22.5998 23.3254 22.3049 23.3254 21.9966C23.3254 21.6883 23.2919 21.3934 23.2249 21.1053L24.9339 20.12C25.1216 20.0128 25.1819 19.7782 25.0747 19.5906L24.9943 19.4498L25.2892 19.2823C25.6444 19.4565 26.08 19.4565 26.4553 19.242C26.824 19.0276 27.0451 18.6522 27.0719 18.2568L27.3668 18.0893L27.4339 18.2099C27.4875 18.3037 27.6081 18.3305 27.6953 18.2836L28.1711 18.0088C28.2917 18.0893 28.4459 18.096 28.5732 18.0222L33.1978 15.3548C33.3251 15.281 33.3988 15.1403 33.3854 14.9995L33.7473 14.7918C33.8412 14.7382 33.868 14.6175 33.8211 14.5304L33.8077 14.5103C34.1629 14.269 34.6588 13.9808 35.3559 13.6792C35.691 13.5318 36.0395 13.4111 36.388 13.3039C37.4001 12.9956 37.9295 12.6002 38.1976 12.2248C38.7405 11.4474 38.1172 10.3683 37.1722 10.4554C36.7097 10.4957 36.0998 10.757 35.3291 11.4809C35.061 11.7289 34.7862 11.9701 34.4913 12.1846C33.8747 12.6337 33.3854 12.9219 32.9967 13.1095L32.9833 13.0894C32.9297 12.9956 32.809 12.9688 32.7219 13.0157L32.36 13.2235C32.2393 13.143 32.0852 13.1363 31.9579 13.2101L27.3333 15.8775C27.206 15.9513 27.1323 16.092 27.1457 16.2327L26.6698 16.5075C26.576 16.5612 26.5492 16.6818 26.5961 16.7689L26.6631 16.8896L26.3682 17.0571C26.013 16.8829 25.5774 16.8829 25.202 17.0973C24.8334 17.3118 24.6122 17.6871 24.5854 18.0826L24.2905 18.2501L24.2101 18.1094C24.1029 17.9217 23.8683 17.8614 23.6806 17.9686L21.9716 18.9538C21.5359 18.5517 21.0132 18.2434 20.4368 18.0625V16.092C20.4368 15.8775 20.2625 15.7033 20.048 15.7033H19.8872V15.3615C20.2156 15.1403 20.4368 14.765 20.4368 14.336C20.4368 13.9071 20.2223 13.5318 19.8872 13.3106V12.9688H20.0279C20.1352 12.9688 20.2223 12.8816 20.2223 12.7744V12.2248C20.3496 12.1645 20.4368 12.0305 20.4368 11.883V6.54136C20.4368 6.39391 20.3496 6.25986 20.2223 6.19954V5.78401C20.2223 5.67677 20.1352 5.58964 20.0279 5.58964H20.0078C19.9743 5.1607 19.981 4.58431 20.0614 3.83366C20.1017 3.47174 20.1687 3.10982 20.2558 2.75461C20.4971 1.72247 20.4167 1.06565 20.2223 0.643412C19.8202 -0.214471 18.5803 -0.214471 18.1781 0.643412C17.9838 1.06565 17.9033 1.72247 18.1446 2.75461C18.225 3.10982 18.2988 3.47174 18.339 3.83366C18.4194 4.59101 18.4261 5.1607 18.3926 5.58964H18.3725C18.2652 5.58964 18.1781 5.67677 18.1781 5.78401V6.19954C18.0508 6.25986 17.9636 6.39391 17.9636 6.54136V11.883C17.9636 12.0305 18.0508 12.1645 18.1781 12.2248V12.7744C18.1781 12.8816 18.2652 12.9688 18.3725 12.9688H18.5132V13.3106C18.1848 13.5318 17.9636 13.9071 17.9636 14.336C17.9636 14.765 18.1781 15.1403 18.5132 15.3615V15.7033H18.3524C18.1379 15.7033 17.9636 15.8775 17.9636 16.092V18.0625C17.3873 18.2434 16.8645 18.5517 16.4288 18.9538L14.7198 17.9686C14.5321 17.8614 14.2975 17.9284 14.1903 18.1094L14.1099 18.2501L13.815 18.0826C13.7882 17.6871 13.567 17.3118 13.1984 17.0973C12.8298 16.8829 12.3941 16.8829 12.0322 17.0571L11.7373 16.8896L11.8043 16.7689C11.8579 16.6751 11.8244 16.5612 11.7306 16.5075L11.2547 16.2327C11.2614 16.092 11.1944 15.9513 11.0671 15.8775L6.44255 13.2101C6.31521 13.1363 6.15436 13.143 6.04042 13.2235L5.6785 13.0157C5.58467 12.9621 5.47073 12.9956 5.41711 13.0894L5.40371 13.1095C5.01498 12.9219 4.51902 12.6337 3.90912 12.1846C3.61422 11.9701 3.33943 11.7289 3.07134 11.4809C2.30059 10.757 1.69069 10.4957 1.22823 10.4554C0.283222 10.375 -0.333381 11.4541 0.202795 12.2248C0.470884 12.6069 1.00036 13.0023 2.01239 13.3039C2.36091 13.4111 2.70942 13.5318 3.04453 13.6792C3.74156 13.9875 4.23752 14.269 4.59274 14.5103L4.57934 14.5304C4.52572 14.6242 4.55923 14.7382 4.65306 14.7918L5.01498 14.9995C5.00828 15.1403 5.0753 15.281 5.20264 15.3548L9.82717 18.0222C9.95451 18.096 10.1154 18.0893 10.2293 18.0088L10.7052 18.2836C10.799 18.3372 10.9129 18.3037 10.9665 18.2099L11.0336 18.0893L11.3285 18.2568C11.3553 18.6522 11.5764 19.0276 11.9451 19.242C12.3137 19.4565 12.7493 19.4565 13.1112 19.2823L13.4061 19.4498L13.3257 19.5906C13.2185 19.7782 13.2855 20.0128 13.4665 20.12L15.1755 21.1053C15.1152 21.3934 15.075 21.6883 15.075 21.9966C15.075 22.3049 15.1085 22.5998 15.1755 22.888L13.4665 23.8733C13.2788 23.9805 13.2185 24.2151 13.3257 24.4027L13.4061 24.5435L13.1112 24.711C12.756 24.5368 12.3204 24.5368 11.9451 24.7513C11.5764 24.9657 11.3553 25.3411 11.3285 25.7365L11.0336 25.904L10.9665 25.7834C10.9129 25.6896 10.7923 25.6628 10.7052 25.7097L10.2293 25.9845C10.1087 25.904 9.95451 25.8973 9.82717 25.9711L5.20264 28.6385C5.0753 28.7123 5.00158 28.853 5.01498 28.9938L4.65306 29.2015C4.55923 29.2551 4.53242 29.3758 4.57934 29.4629L4.59274 29.483C4.23752 29.7243 3.74156 30.0125 3.04453 30.3208C2.70942 30.4682 2.36091 30.5889 2.01239 30.6961C1.00036 31.0044 0.470884 31.3998 0.202795 31.7752C-0.340083 32.5526 0.283222 33.6317 1.22823 33.5446C1.69069 33.5043 2.30059 33.243 3.07134 32.5191C3.33943 32.2711 3.61422 32.0299 3.90912 31.8154C4.52572 31.3663 5.01498 31.0781 5.40371 30.8905L5.41711 30.9106C5.47073 31.0044 5.59137 31.0312 5.6785 30.9843L6.04042 30.7765C6.16106 30.857 6.31521 30.8637 6.44255 30.7899L11.0671 28.1225C11.1944 28.0487 11.2681 27.908 11.2547 27.7673L11.7306 27.4925C11.8244 27.4388 11.8512 27.3182 11.8043 27.2311L11.7373 27.1104L12.0322 26.9429C12.3874 27.1171 12.8231 27.1171 13.1984 26.9027C13.567 26.6882 13.7882 26.3129 13.815 25.9174L14.1099 25.7499L14.1903 25.8906C14.2975 26.0783 14.5321 26.1386 14.7198 26.0314L16.4288 25.0462C16.8645 25.4483 17.3873 25.7566 17.9636 25.9375V27.908C17.9636 28.1225 18.1379 28.2967 18.3524 28.2967H18.5132V28.6385C18.1848 28.8597 17.9636 29.235 17.9636 29.664C17.9636 30.0929 18.1781 30.4682 18.5132 30.6894V31.0312H18.3725C18.2652 31.0312 18.1781 31.1184 18.1781 31.2256V31.7752C18.0508 31.8355 17.9636 31.9695 17.9636 32.117V37.4586C17.9636 37.6061 18.0508 37.7401 18.1781 37.8005V38.216C18.1781 38.3232 18.2652 38.4104 18.3725 38.4104H18.3926C18.4261 38.8393 18.4194 39.4157 18.339 40.1663C18.2988 40.5283 18.2317 40.8902 18.1446 41.2454C17.9033 42.2775 17.9838 42.9343 18.1781 43.3566C18.5803 44.2145 19.8202 44.2145 20.2223 43.3566C20.4167 42.9343 20.4971 42.2775 20.2558 41.2454C20.1754 40.8902 20.1017 40.5283 20.0614 40.1663C19.981 39.409 19.9743 38.8393 20.0078 38.4104H20.0279C20.1352 38.4104 20.2223 38.3232 20.2223 38.216V37.8005C20.3496 37.7401 20.4368 37.6061 20.4368 37.4586V32.117C20.4368 31.9695 20.3496 31.8355 20.2223 31.7752V31.2256C20.2223 31.1184 20.1352 31.0312 20.0279 31.0312H19.8872V30.6894C20.2156 30.4682 20.4368 30.0929 20.4368 29.664C20.4368 29.235 20.2223 28.8597 19.8872 28.6385V28.2967H20.048C20.2625 28.2967 20.4368 28.1225 20.4368 27.908V25.9375C21.0132 25.7566 21.5359 25.4483 21.9716 25.0462L23.6806 26.0314C23.8683 26.1386 24.1029 26.0716 24.2101 25.8906L24.2905 25.7499L24.5854 25.9174C24.6122 26.3129 24.8334 26.6882 25.202 26.9027C25.5707 27.1171 26.0063 27.1171 26.3682 26.9429L26.6631 27.1104L26.5961 27.2311C26.5425 27.3249 26.576 27.4388 26.6698 27.4925L27.1457 27.7673C27.139 27.908 27.206 28.0487 27.3333 28.1225L31.9579 30.7899C32.0852 30.8637 32.2461 30.857 32.36 30.7765L32.7219 30.9843C32.8157 31.0379 32.9297 31.0044 32.9833 30.9106L32.9967 30.8905C33.3854 31.0781 33.8814 31.3663 34.4913 31.8154C34.7862 32.0299 35.061 32.2711 35.3291 32.5191C36.0998 33.243 36.7097 33.5043 37.1722 33.5446C38.1172 33.625 38.7405 32.5459 38.1976 31.7752C37.9295 31.3931 37.4001 30.9977 36.388 30.6961Z" fill="#0A2B50"/>
</svg>
