<svg width="24" height="20" viewBox="0 0 24 20" fill="none" xmlns="http://www.w3.org/2000/svg">
<path d="M16.9995 18.9995V16.9995C16.9995 15.9386 16.578 14.9212 15.8279 14.1711C15.0778 13.4209 14.0604 12.9995 12.9996 12.9995H4.99986C3.93903 12.9995 2.92165 13.4209 2.17153 14.1711C1.42141 14.9212 1 15.9386 1 16.9995V18.9995" stroke="white" stroke-width="1.5" stroke-linecap="round" stroke-linejoin="round"/>
<path d="M8.99693 8.99996C11.206 8.99996 12.9968 7.20911 12.9968 4.99998C12.9968 2.79085 11.206 1 8.99693 1C6.78787 1 4.99707 2.79085 4.99707 4.99998C4.99707 7.20911 6.78787 8.99996 8.99693 8.99996Z" stroke="white" stroke-width="1.5" stroke-linecap="round" stroke-linejoin="round"/>
<path d="M22.9989 18.9994V16.9994C22.9983 16.1131 22.7033 15.2522 22.1603 14.5517C21.6173 13.8512 20.8571 13.351 19.999 13.1294" stroke="white" stroke-width="1.5" stroke-linecap="round" stroke-linejoin="round"/>
<path d="M15.999 1.13037C16.8594 1.35067 17.622 1.85107 18.1666 2.55267C18.7112 3.25428 19.0068 4.11718 19.0068 5.00535C19.0068 5.89351 18.7112 6.75642 18.1666 7.45802C17.622 8.15963 16.8594 8.66003 15.999 8.88033" stroke="white" stroke-width="1.5" stroke-linecap="round" stroke-linejoin="round"/>
</svg>
