<svg width="19" height="16" viewBox="0 0 19 16" fill="none" xmlns="http://www.w3.org/2000/svg">
<path d="M13.4443 14.9999V13.4443C13.4443 12.6192 13.1165 11.8279 12.5331 11.2445C11.9497 10.661 11.1583 10.3333 10.3332 10.3333H4.11108C3.28597 10.3333 2.49465 10.661 1.91121 11.2445C1.32777 11.8279 1 12.6192 1 13.4443V14.9999" stroke="#EF5A38" stroke-width="1.5" stroke-linecap="round" stroke-linejoin="round"/>
<path d="M7.22045 7.22218C8.93865 7.22218 10.3315 5.8293 10.3315 4.11109C10.3315 2.39288 8.93865 1 7.22045 1C5.50225 1 4.10938 2.39288 4.10938 4.11109C4.10938 5.8293 5.50225 7.22218 7.22045 7.22218Z" stroke="#EF5A38" stroke-width="1.5" stroke-linecap="round" stroke-linejoin="round"/>
<path d="M18.1107 14.9996V13.4441C18.1101 12.7547 17.8807 12.0851 17.4584 11.5403C17.0361 10.9955 16.4448 10.6064 15.7773 10.4341" stroke="#EF5A38" stroke-width="1.5" stroke-linecap="round" stroke-linejoin="round"/>
<path d="M12.666 1.10107C13.3352 1.27242 13.9284 1.66162 14.3519 2.20731C14.7755 2.753 15.0054 3.42415 15.0054 4.11494C15.0054 4.80574 14.7755 5.47689 14.3519 6.02258C13.9284 6.56827 13.3352 6.95747 12.666 7.12881" stroke="#EF5A38" stroke-width="1.5" stroke-linecap="round" stroke-linejoin="round"/>
</svg>
