<svg width="19" height="16" viewBox="0 0 19 16" fill="none" xmlns="http://www.w3.org/2000/svg">
<path d="M13.4443 14.9999V13.4443C13.4443 12.6192 13.1165 11.8279 12.5331 11.2445C11.9497 10.661 11.1583 10.3333 10.3332 10.3333H4.11108C3.28597 10.3333 2.49465 10.661 1.91121 11.2445C1.32777 11.8279 1 12.6192 1 13.4443V14.9999" stroke="#0A2B50" stroke-width="1.5" stroke-linecap="round" stroke-linejoin="round"/>
<path d="M7.22143 7.22218C8.93963 7.22218 10.3325 5.8293 10.3325 4.11109C10.3325 2.39288 8.93963 1 7.22143 1C5.50323 1 4.11035 2.39288 4.11035 4.11109C4.11035 5.8293 5.50323 7.22218 7.22143 7.22218Z" stroke="#0A2B50" stroke-width="1.5" stroke-linecap="round" stroke-linejoin="round"/>
<path d="M18.1107 14.9999V13.4443C18.1101 12.755 17.8807 12.0854 17.4584 11.5406C17.0361 10.9958 16.4448 10.6067 15.7773 10.4343" stroke="#0A2B50" stroke-width="1.5" stroke-linecap="round" stroke-linejoin="round"/>
<path d="M12.667 1.10132C13.3362 1.27266 13.9293 1.66186 14.3529 2.20755C14.7765 2.75325 15.0064 3.42439 15.0064 4.11519C15.0064 4.80598 14.7765 5.47713 14.3529 6.02282C13.9293 6.56852 13.3362 6.95771 12.667 7.12906" stroke="#0A2B50" stroke-width="1.5" stroke-linecap="round" stroke-linejoin="round"/>
</svg>
