<svg width="40" height="54" viewBox="0 0 40 54" fill="none" xmlns="http://www.w3.org/2000/svg">
<g opacity="0.9">
<path d="M33.8923 35.547C31.9483 31.7784 34.9179 29.3813 31.9483 19.5603C29.8847 12.7277 24.7256 10.7585 21.7812 10.1985V10.2803C23.6686 9.44984 24.9962 7.56239 24.9962 5.36666C24.9962 2.40965 22.5865 0 19.6295 0C16.6725 0 14.2628 2.40965 14.2628 5.36666C14.2628 7.56239 15.5904 9.44984 17.4778 10.2803V10.1985C14.5334 10.7648 9.37434 12.7277 7.31073 19.5603C4.34114 29.3813 7.31073 31.7784 5.36665 35.547C3.42258 39.3156 0 43.1975 0 43.1975H39.2527C39.2527 43.1975 35.8238 39.3156 33.8861 35.547H33.8923ZM16.1251 5.37295C16.1251 3.44145 17.698 1.86858 19.6295 1.86858C21.561 1.86858 23.1339 3.44145 23.1339 5.37295C23.1339 7.30444 21.561 8.87732 19.6295 8.87732C17.698 8.87732 16.1251 7.30444 16.1251 5.37295Z" fill="#0A2B50"/>
<path d="M0.00634766 44.1287V48.237H12.3377C13.8288 51.0871 16.3013 51.9616 17.9434 52.2195C17.9434 52.251 17.9371 52.2762 17.9371 52.3076C17.9371 53.2451 18.6984 54 19.6296 54C20.5607 54 21.322 53.2388 21.322 52.3076C21.322 52.2762 21.3157 52.251 21.3157 52.2195C22.9641 51.9616 25.4303 51.0808 26.9214 48.237H39.2591V44.1287H0.00634766Z" fill="#0A2B50"/>
</g>
</svg>
