<svg width="49" height="54" viewBox="0 0 49 54" fill="none" xmlns="http://www.w3.org/2000/svg">
<path opacity="0.9" d="M0.941338 35.3516C0.941338 35.3516 3.37873 38.0164 4.62824 38.5843C4.62824 38.5843 1.62493 41.727 3.21063 42.7559C4.80194 43.7791 7.23373 42.0812 7.57553 43.2225C7.91732 44.3638 7.97896 46.7475 7.97896 46.7475C7.97896 46.7475 10.478 39.2308 21.4883 38.3144C25.248 38.0052 27.6238 37.0045 29.1367 35.7845C29.1367 35.7845 33.9722 38.8766 36.9587 39.4782C36.9587 39.4782 37.7488 43.9365 40.3935 47.113C41.7999 48.9401 44.4054 51.5432 49 54C49 54 47.5712 50.8123 47.4815 49.5698C47.4143 48.6928 46.9884 47.0455 46.7419 46.1403C46.5234 43.155 45.8118 37.4767 45.2795 36.6615C44.6855 35.7395 31.7814 29.6283 31.7085 29.6002C31.7758 28.7119 33.4343 27.9473 34.8799 28.0598C36.3536 28.1722 38.0569 26.9353 38.169 26.2495H38.1522L44.5342 26.3338L45.0273 26.0527C45.6549 22.8369 43.9403 22.5333 43.9403 22.5333C43.9403 22.5333 41.5253 22.4827 39.5306 22.477C39.497 22.3871 37.7768 18.0525 33.0589 19.1769C28.2906 20.3182 30.7896 24.3042 26.2454 24.0737C21.7068 23.8432 21.7068 13.8191 22.3848 10.2884C22.9563 7.33118 0 0 0 0C1.37278 4.96429 4.04551 7.57293 6.1187 8.90536C8.64014 11.3004 12.2822 13.8134 12.2822 13.8134C12.2822 13.8134 14.2097 23.9556 19.4375 27.2614C19.4375 27.2614 13.7615 34.7781 11.4922 35.3516C9.22287 35.9194 0.930131 35.3516 0.930131 35.3516H0.941338ZM33.6304 21.7068C33.6304 21.0884 34.1235 20.5936 34.7399 20.5936C35.3562 20.5936 35.8493 21.094 35.8493 21.7068C35.8493 22.3196 35.3506 22.82 34.7399 22.82C34.1291 22.82 33.6304 22.3196 33.6304 21.7068Z" fill="#0A2B50"/>
</svg>
