<svg width="60" height="60" viewBox="0 0 60 60" fill="none" xmlns="http://www.w3.org/2000/svg">
<path d="M30.0027 45.6412C38.6425 45.6412 45.6466 38.6372 45.6466 29.9973C45.6466 21.3575 38.6425 14.3534 30.0027 14.3534C21.3628 14.3534 14.3588 21.3575 14.3588 29.9973C14.3588 38.6372 21.3628 45.6412 30.0027 45.6412ZM30.0027 60C29.1643 60 28.4826 59.8825 28.4826 58.5262C28.4933 57.7555 28.5734 56.9812 28.6659 56.2176C28.8261 54.8898 29.0095 53.5531 29.3708 52.2626C28.6837 52.227 28.0697 51.7642 27.8667 51.1021C27.84 51.0291 27.8294 50.9526 27.8133 50.8778C23.8049 50.472 19.8979 48.8789 16.7866 46.3105C16.7279 46.3585 16.6567 46.3941 16.589 46.4315C15.9821 46.7519 15.2078 46.6558 14.7041 46.1894C14.2894 46.9797 13.7002 47.7754 13.1733 48.4856C12.4631 49.4414 11.7173 50.3794 10.9021 51.248C9.94275 52.2074 9.3785 51.8087 8.78578 51.216C8.19306 50.6233 7.79436 50.059 8.75374 49.0997C9.30552 48.5621 9.9107 48.0708 10.5159 47.5974C11.5678 46.7715 12.6429 45.9563 13.8105 45.2995C13.3495 44.7886 13.2445 44.0268 13.5685 43.4145C13.6023 43.3451 13.6468 43.2828 13.6895 43.2187C11.1246 40.1003 9.5298 36.2058 9.12219 32.192C9.04566 32.1849 8.9709 32.16 8.89792 32.1386C8.2429 31.9357 7.76231 31.3216 7.73739 30.6345C6.8848 30.8998 5.90583 31.0457 5.03188 31.1757C3.85356 31.3501 2.66456 31.4854 1.47378 31.5227C0.11747 31.5227 0 30.8428 0 30.0027C0 29.1625 0.11747 28.4826 1.47378 28.4826C2.2445 28.4933 3.01878 28.5734 3.78237 28.6659C5.11021 28.8261 6.44694 29.0095 7.73739 29.3708C7.77121 28.6837 8.23578 28.0714 8.89792 27.8667C8.9709 27.8418 9.04743 27.8294 9.12219 27.8133C9.52802 23.8049 11.1211 19.8997 13.6895 16.7866C13.6415 16.7279 13.6059 16.6567 13.5685 16.5908C13.2481 15.9839 13.3442 15.2096 13.8105 14.7059C13.0203 14.2911 12.2246 13.702 11.5144 13.1751C10.5586 12.4649 9.62057 11.7209 8.75196 10.9039C7.79257 9.94453 8.19128 9.38206 8.784 8.78756C9.37672 8.19484 9.94096 7.79614 10.9004 8.75374C11.4379 9.30552 11.9292 9.91071 12.4026 10.5159C13.2285 11.5678 14.0437 12.6429 14.7005 13.8106C15.2114 13.3496 15.9732 13.2445 16.5855 13.5685C16.6549 13.6023 16.7172 13.6468 16.7813 13.6895C19.8997 11.1246 23.7942 9.5298 27.808 9.12219C27.8151 9.04566 27.84 8.9709 27.8614 8.89792C28.0661 8.23578 28.6784 7.77122 29.3654 7.7374C29.0041 6.44695 28.8208 5.11021 28.6606 3.78237C28.568 3.01878 28.4879 2.24273 28.4773 1.4738C28.4773 0.117481 29.1572 0 29.9973 0C30.8375 0 31.5174 0.117481 31.5174 1.4738C31.48 2.66458 31.3447 3.85357 31.1703 5.03189C31.0404 5.90584 30.8944 6.88481 30.6292 7.7374C31.3163 7.7641 31.9321 8.2429 32.1333 8.89792C32.1582 8.9709 32.1706 9.04743 32.1866 9.12219C36.1951 9.52802 40.1003 11.1211 43.2134 13.6895C43.2721 13.6415 43.3433 13.6059 43.4092 13.5685C44.0215 13.2445 44.7833 13.3496 45.2941 13.8106C45.9509 12.6429 46.7661 11.5678 47.592 10.5159C48.0673 9.91071 48.5585 9.30552 49.0943 8.75374C50.0537 7.79436 50.6161 8.19306 51.2106 8.78756C51.8034 9.38028 52.2021 9.94453 51.2445 10.9039C50.3759 11.7191 49.4396 12.4649 48.482 13.1751C47.7718 13.702 46.9762 14.2911 46.1877 14.7059C46.654 15.2096 46.7501 15.9839 46.4297 16.5908C46.3959 16.6602 46.3514 16.7243 46.3087 16.7866C48.8736 19.9051 50.4684 23.7996 50.876 27.8133C50.9526 27.8205 51.0273 27.8454 51.1003 27.8667C51.7624 28.0714 52.227 28.6837 52.2608 29.3708C53.5513 29.0095 54.888 28.8261 56.2158 28.6659C56.9794 28.5734 57.7555 28.4933 58.5244 28.4826C59.8807 28.4826 59.9982 29.1625 59.9982 30.0027C59.9982 30.8428 59.8807 31.5227 58.5244 31.5227C57.3336 31.4854 56.1446 31.3501 54.9663 31.1757C54.0924 31.0457 53.1134 30.8998 52.2608 30.6345C52.2341 31.3216 51.7553 31.9375 51.1003 32.1386C51.0273 32.1653 50.9508 32.176 50.876 32.192C50.4702 36.2004 48.8771 40.1056 46.3087 43.2187C46.3568 43.2775 46.3924 43.3487 46.4297 43.4145C46.7537 44.0268 46.6487 44.7886 46.1859 45.2995C47.3535 45.9563 48.4286 46.7715 49.4805 47.5974C50.0857 48.0726 50.6909 48.5639 51.2427 49.0997C52.2021 50.059 51.8034 50.6215 51.2089 51.216C50.6161 51.8087 50.0519 52.2074 49.0925 51.248C48.2773 50.3794 47.5315 49.4432 46.8213 48.4856C46.2945 47.7754 45.7053 46.9797 45.2906 46.1894C44.7868 46.6558 44.0126 46.7537 43.4056 46.4315C43.3362 46.3977 43.2721 46.3532 43.2098 46.3105C40.0896 48.8754 36.1969 50.4702 32.1831 50.8778C32.176 50.9543 32.151 51.0291 32.1297 51.1021C31.9268 51.7571 31.3127 52.2377 30.6256 52.2626C30.8909 53.1152 31.0368 54.0924 31.1667 54.9681C31.3412 56.1464 31.4765 57.3354 31.5138 58.5262C31.5138 59.8825 30.8339 60 29.9938 60H30.0027Z" fill="#0A2B50"/>
<path d="M30.196 45.0359C28.4642 41.6273 21.3391 42.2984 19.4149 36.9069C19.0305 36.9069 18.6442 37.2914 18.2598 37.6777C18.2598 34.5966 20.1857 32.2862 20.1857 32.2862C20.1857 32.2862 21.7253 35.3673 22.496 36.5225C21.7253 36.138 20.9564 36.5225 20.9564 36.5225C22.6865 39.2422 25.8548 40.7659 27.5297 39.6178C28.4642 38.977 28.498 38.0443 28.6849 36.923C29.0693 34.6126 29.0426 23.431 29.0426 23.431L24.1015 23.6233V21.377L29.0426 21.5051V19.5792C29.0426 19.5792 27.503 18.8085 27.503 17.2689C27.503 15.7292 29.0426 14.9585 30.1978 14.9585C31.353 14.9585 32.8927 15.7292 32.8927 17.2689C32.8927 18.8085 31.353 19.5792 31.353 19.5792V21.5051L36.2941 21.377V23.6233L31.353 23.431C31.353 23.431 31.3797 34.6126 31.766 36.923C31.9475 38.0105 32.0454 38.977 32.9211 39.6178C34.5711 40.8264 37.5454 39.2885 39.0548 36.5225C39.0548 36.5225 38.6703 36.138 37.5152 36.5225C38.2859 35.7518 40.21 32.2862 40.21 32.2862C40.21 32.2862 41.7496 34.5966 41.7496 37.6777C41.2358 37.1638 40.8508 36.9069 40.5945 36.9069C39.0548 42.2984 31.7927 41.6825 30.1978 45.0359H30.196ZM30.196 18.8103C31.0469 18.8103 31.7357 18.1215 31.7357 17.2706C31.7357 16.4198 31.0469 15.731 30.196 15.731C29.3452 15.731 28.6564 16.4198 28.6564 17.2706C28.6564 18.1215 29.3452 18.8103 30.196 18.8103Z" fill="#0A2B50"/>
<path d="M30.0031 50.0892C18.907 50.0892 9.91113 41.0934 9.91113 29.9972C9.91113 18.9011 18.907 9.90527 30.0031 9.90527C41.0992 9.90527 50.0951 18.9011 50.0951 29.9972C50.0951 41.0934 41.0992 50.0892 30.0031 50.0892ZM30.0031 46.661C39.2054 46.661 46.6669 39.2013 46.6669 29.9972C46.6669 20.7932 39.2072 13.3334 30.0031 13.3334C20.799 13.3334 13.3393 20.7949 13.3393 29.9972C13.3393 39.1995 20.799 46.661 30.0031 46.661Z" fill="white"/>
</svg>
