<svg width="46" height="54" viewBox="0 0 46 54" fill="none" xmlns="http://www.w3.org/2000/svg">
<path d="M43.0811 27.9431L43.0744 27.9364L43.0677 27.9298L43.0141 27.8597L42.7498 27.5125L42.4855 27.8597L42.4319 27.9298L42.4252 27.9364V27.9431C40.2068 31.2015 39.2432 33.2747 39.5577 34.106C39.6614 34.3764 39.8555 34.4465 39.9157 34.4598L39.9559 34.4699H41.669C41.0868 38.7932 38.5974 42.1283 34.271 44.3885C31.5005 45.8341 28.7936 46.3682 27.927 46.5084C26.525 40.5459 25.6718 26.6111 25.6852 18.7256H34.6993C35.0707 19.0427 35.5459 19.2197 36.0377 19.2197C37.1754 19.2197 38.1022 18.2949 38.1022 17.1598C38.1022 16.0247 37.1754 15.1 36.0377 15.1C35.5459 15.1 35.0707 15.2769 34.6993 15.5941H25.7019C25.7119 14.3822 25.7287 13.4608 25.7354 12.93H26.418V11.5578C26.8429 11.4377 27.2444 11.2407 27.2444 10.8701C27.2444 10.4995 26.8462 10.2425 25.9227 10.0689V9.00723L25.8291 8.91042C25.8291 8.91042 25.8056 8.88705 25.7688 8.85032C27.0704 7.9456 27.8668 6.45329 27.8668 4.86083C27.8668 2.18003 25.6818 0 22.995 0C20.3081 0 18.1232 2.18003 18.1232 4.86083C18.1232 6.45329 18.9162 7.9456 20.2178 8.85032C20.181 8.88705 20.1576 8.91042 20.1576 8.91042L20.0639 9.00723V10.0689C19.1404 10.2425 18.7422 10.4895 18.7422 10.8701C18.7422 11.2507 19.1437 11.4343 19.5687 11.5578V12.93H20.2546C20.2646 13.4574 20.278 14.3822 20.2881 15.5941H11.2907C10.9193 15.2769 10.4441 15.1 9.95226 15.1C8.81461 15.1 7.88777 16.0247 7.88777 17.1598C7.88777 18.2949 8.81461 19.2197 9.95226 19.2197C10.4441 19.2197 10.9193 19.0427 11.2907 18.7256H20.3081C20.3249 26.6111 19.4683 40.5492 18.0663 46.5084C17.1964 46.3649 14.4928 45.8341 11.7223 44.3885C7.39256 42.1283 4.90648 38.7932 4.32427 34.4699H6.03743L6.07758 34.4598C6.13446 34.4465 6.33188 34.3764 6.4356 34.106C6.75013 33.278 5.78648 31.2048 3.57142 27.9431V27.9364L3.56138 27.9298L3.50785 27.8597L3.24351 27.5125L2.97918 27.8597L2.92564 27.9298L2.91895 27.9364L2.91226 27.9431C0.707241 31.2015 -0.256409 33.2747 0.0581158 34.1026C0.161842 34.373 0.359256 34.4432 0.416138 34.4565L0.456291 34.4665H2.13264C2.00215 35.4113 1.84488 36.917 3.16321 39.965C4.13021 42.1951 5.69279 44.255 7.81081 46.0911C10.4408 48.3713 13.9374 50.311 18.2069 51.8534C19.4984 52.3041 22.3425 52.9217 22.7206 53.5393L23.0017 54L23.2827 53.5393C23.6608 52.9217 26.5049 52.3074 27.7932 51.8567C32.066 50.3143 35.5626 48.3747 38.1925 46.0945C40.3106 44.2583 41.8732 42.1985 42.8402 39.9683C44.1618 36.9203 44.0046 35.418 43.8707 34.4699H45.5437L45.5839 34.4598C45.6408 34.4465 45.8382 34.3764 45.9419 34.106C46.2564 33.278 45.2928 31.2048 43.0777 27.9431H43.0811ZM20.1107 1.70597C20.0706 1.72934 20.0505 1.74603 20.0505 1.74603C20.0505 1.74603 20.0672 1.726 20.1007 1.69261C20.1342 1.65923 20.181 1.60915 20.2479 1.5524C20.3148 1.4923 20.3985 1.42553 20.4955 1.35209C20.5959 1.28198 20.7097 1.19852 20.8435 1.12507C20.9104 1.08835 20.9773 1.04495 21.051 1.00822C21.1246 0.974838 21.2015 0.938114 21.2818 0.901391C21.3588 0.861329 21.4458 0.834621 21.5328 0.801237C21.6198 0.77119 21.7068 0.734467 21.8005 0.711097C21.9878 0.664359 22.1786 0.604266 22.3827 0.587573C22.483 0.577558 22.5834 0.554189 22.6872 0.55085L22.995 0.540835H23.1489L23.3028 0.557527C23.4065 0.567542 23.5069 0.580896 23.6073 0.590912C23.7077 0.597589 23.8047 0.630974 23.9018 0.651005C23.9988 0.674374 24.0925 0.697743 24.1862 0.721113C24.3702 0.777867 24.5408 0.854652 24.7015 0.918083C24.7851 0.94813 24.8587 0.988192 24.9323 1.02825C25.0026 1.06832 25.0729 1.10838 25.1398 1.1451C25.2703 1.22189 25.3941 1.28532 25.4878 1.36878C25.5848 1.44556 25.6684 1.509 25.7387 1.56575C25.8759 1.67592 25.9495 1.73935 25.9495 1.73935C25.9495 1.73935 25.8592 1.69595 25.7019 1.61917C25.6249 1.5791 25.5313 1.53236 25.4242 1.47561C25.3205 1.41218 25.19 1.37212 25.0561 1.31536C24.9892 1.28866 24.9189 1.25861 24.8453 1.22856C24.7717 1.19852 24.6981 1.16513 24.6178 1.1451C24.4572 1.1017 24.2899 1.04495 24.1159 0.998207C23.9386 0.968161 23.7545 0.92476 23.5672 0.901391C23.4735 0.894714 23.3764 0.884699 23.2827 0.878022L23.1389 0.864668H22.995L22.7072 0.871345C22.6135 0.871345 22.5165 0.891376 22.4228 0.898053C22.2354 0.911407 22.0514 0.951468 21.8741 0.988192C21.7837 1.00155 21.7001 1.03493 21.6164 1.05496C21.5328 1.07833 21.4491 1.09502 21.3688 1.12507C21.2116 1.18182 21.061 1.22856 20.9272 1.28866C20.79 1.34207 20.6695 1.4055 20.5591 1.45224C20.452 1.509 20.3583 1.5524 20.2814 1.59913C20.2044 1.64253 20.1442 1.67592 20.1074 1.69929L20.1107 1.70597ZM20.278 4.86083C20.278 3.36186 21.4993 2.14331 23.0017 2.14331C24.504 2.14331 25.7253 3.36186 25.7253 4.86083C25.7253 5.94584 25.0695 6.92402 24.0791 7.35468C23.4634 6.90065 23.1824 6.83722 23.0017 6.83722C22.821 6.83722 22.5399 6.89731 21.9243 7.35468C20.9338 6.92736 20.278 5.94584 20.278 4.86083ZM3.17994 28.1368C3.19332 28.0666 3.22344 27.9598 3.22344 27.9598L3.34055 28.1635C6.91408 33.7855 5.95043 34.0726 5.95043 34.0726L4.03317 34.0993H3.8826C4.7626 44.6422 16.6878 46.8323 18.5983 47.116L18.6251 46.9725C20.2747 40.4257 20.6561 21.2795 20.6093 18.7256C20.6059 18.5386 20.9272 18.5319 20.9338 18.7256C21.0376 21.3062 21.0744 40.4157 19.5319 46.9825C19.5319 46.9825 19.2508 48.2511 20.1676 49.463C20.365 49.7234 21.245 50.2108 21.245 50.2108C-0.393593 45.7973 2.88884 29.6291 3.17994 28.1368ZM10.7151 16.6123C10.6917 16.6657 10.665 16.7225 10.6415 16.7759C10.6081 16.8493 10.578 16.9261 10.5478 16.9996C10.5345 17.0363 10.5211 17.0764 10.511 17.1031C10.511 17.1164 10.5043 17.1264 10.501 17.1364V17.1698L10.4943 17.1865C10.4943 17.2266 10.5211 17.31 10.5478 17.3768C10.578 17.4503 10.6081 17.527 10.6415 17.6005C10.7085 17.7474 10.772 17.8843 10.8256 18.0078C10.9326 18.2482 10.9929 18.4251 10.9929 18.4251C10.9929 18.4251 10.8456 18.3149 10.6683 18.1079C10.6248 18.0579 10.5746 18.0011 10.5311 17.9377C10.4843 17.8743 10.4341 17.8108 10.3906 17.7374C10.3437 17.6639 10.2969 17.5905 10.2601 17.5037C10.2233 17.4135 10.1798 17.3368 10.1697 17.1899V17.1698V17.1665V17.1598V17.1431V17.1097C10.1798 17.0797 10.1898 17.0463 10.1965 17.0163C10.2132 16.9628 10.2333 16.9194 10.2534 16.876C10.2935 16.7892 10.3404 16.7125 10.3839 16.6423C10.4274 16.5689 10.4776 16.5021 10.5244 16.442C10.5713 16.3786 10.6181 16.3219 10.6616 16.2718C10.8356 16.0715 10.9795 15.9613 10.9862 15.958H20.6327C20.5859 14.8896 20.5892 12.9466 20.5892 12.9466L20.6461 12.9333L20.8904 12.9266C20.8736 12.506 20.8904 12.0085 20.8837 11.5912C20.7766 11.5111 20.6796 11.4143 20.5959 11.2941C20.4989 11.1505 20.442 10.9636 20.452 10.7833C20.4621 10.603 20.5323 10.4361 20.6193 10.2992C20.6628 10.2291 20.713 10.1657 20.7666 10.1056C20.7933 10.0755 20.8201 10.0455 20.8502 10.0188C20.8636 10.0054 20.8736 9.99543 20.887 9.98541L20.9037 9.09737V9.04062L20.9405 9.00389C21.6031 8.35289 22.2723 7.70856 22.9682 7.09428C22.3927 7.7987 21.7871 8.47641 21.1748 9.15079L21.1915 10.0589V10.129L21.1346 10.1824C21.1145 10.1991 21.0878 10.2224 21.0677 10.2458C21.0443 10.2692 21.0242 10.2926 21.0008 10.3193C20.9573 10.3693 20.9205 10.4194 20.887 10.4762C20.8201 10.583 20.7766 10.6998 20.7732 10.81C20.7599 11.0304 20.9171 11.234 21.1313 11.3876L21.1982 11.4343V11.5144C21.2082 12.0085 21.2116 12.5026 21.2116 12.9967V13.147L21.0643 13.1436L20.8803 13.1369C20.8469 13.8213 20.8803 15.2268 20.8335 15.9613H35.0038C35.0038 15.9613 35.1544 16.0781 35.3284 16.2785C35.3719 16.3285 35.4221 16.3853 35.4656 16.4487C35.5124 16.5121 35.5626 16.5756 35.6061 16.649C35.6496 16.7225 35.6998 16.7993 35.7366 16.8827C35.7734 16.9729 35.8169 17.0496 35.8269 17.1965V17.2166V17.2199V17.2266V17.2433V17.2767C35.8169 17.3067 35.8068 17.3401 35.8002 17.3701C35.7834 17.4236 35.7633 17.467 35.7433 17.5104C35.7031 17.5972 35.6563 17.6739 35.6094 17.7441C35.5659 17.8175 35.5157 17.8843 35.4689 17.9444C35.4221 18.0078 35.3752 18.0612 35.3317 18.1146C35.1544 18.3183 35.0072 18.4318 35.0072 18.4318C35.0072 18.4318 35.064 18.2548 35.1711 18.0145C35.2246 17.8943 35.2882 17.7541 35.3551 17.6072C35.3886 17.5337 35.4187 17.4569 35.4488 17.3835C35.4622 17.3468 35.4756 17.3067 35.4856 17.2767C35.4856 17.2633 35.4923 17.2533 35.4957 17.2433V17.2099L35.5024 17.1932C35.5024 17.1531 35.4756 17.0697 35.4488 17.0029C35.4187 16.9295 35.3886 16.8527 35.3551 16.7792C35.3284 16.7225 35.3049 16.6691 35.2782 16.6156H10.7151V16.6123ZM42.7833 33.7053C42.7766 33.7821 42.7163 33.9891 42.6963 34.1026C41.8464 39.1871 38.6777 44.9961 28.1144 47.0059H28.0776C31.2395 46.4049 41.301 43.7542 42.104 34.1026H41.9535L40.0362 34.0726C40.0362 34.0726 39.0759 33.7821 42.6461 28.1635L42.7632 27.9598C42.7632 27.9598 42.7933 28.0666 42.8067 28.1368C42.8067 28.1368 41.0032 30.9478 40.6084 33.455C40.5682 33.7154 42.8067 33.4149 42.7799 33.7053H42.7833Z" fill="#0A2B50"/>
</svg>
