<svg width="50" height="50" viewBox="0 0 50 50" fill="none" xmlns="http://www.w3.org/2000/svg">
<path d="M42.6796 7.32035C32.9153 -2.43816 17.0847 -2.43816 7.32033 7.32035C-2.44402 17.0847 -2.44402 32.9095 7.32033 42.6738C17.0788 52.4382 32.9095 52.4382 42.6738 42.6738C52.4382 32.9095 52.4382 17.0789 42.6738 7.32035H42.6796ZM48.6526 31.0546L40.9706 30.168C42.0497 26.8141 42.0497 23.186 40.9706 19.832L48.6526 18.9454C49.6617 22.9118 49.6617 27.0882 48.6526 31.0546ZM13.5324 36.4734C7.19784 30.1388 7.19784 19.867 13.5324 13.5324C19.867 7.19786 30.1388 7.19786 36.4734 13.5324C42.808 19.867 42.808 30.1388 36.4734 36.4734C30.1388 42.808 19.8728 42.808 13.5324 36.4734ZM31.0546 1.34742L30.168 9.0294C26.814 7.95031 23.1859 7.95031 19.832 9.0294L18.9454 1.34742C22.9118 0.338317 27.0882 0.338317 31.0546 1.34742ZM1.3474 18.9454L9.02938 19.832C7.95029 23.186 7.95029 26.8141 9.02938 30.168L1.3474 31.0546C0.338297 27.0882 0.338297 22.9118 1.3474 18.9454ZM18.9454 48.6526L19.832 40.9706C23.1859 42.0497 26.814 42.0497 30.168 40.9706L31.0487 48.6526C27.0823 49.6617 22.9118 49.6617 18.9396 48.6526H18.9454Z" fill="#0A2B50"/>
</svg>
