<svg width="55" height="50" viewBox="0 0 55 50" fill="none" xmlns="http://www.w3.org/2000/svg">
<path fill-rule="evenodd" clip-rule="evenodd" d="M7.67799 39.2338L50.5504 32.9016C50.0037 34.0102 49.3397 35.0526 48.5376 36.0006C42.7625 42.8221 31.0982 42.6041 23.0609 41.8629C19.2024 41.507 15.2111 41.4916 11.3812 42.1432C11.0464 42.2004 10.7129 42.2627 10.3801 42.3302L7.67773 39.2338H7.67799Z" fill="white"/>
<path fill-rule="evenodd" clip-rule="evenodd" d="M9.40429 44.1559C2.00094 46.0391 0 50 0 50C3.78702 47.2944 8.04087 46.3719 12.4371 46.3008C12.8169 46.2947 13.1974 46.295 13.5786 46.3008C13.696 46.3026 13.8139 46.3051 13.9316 46.3079C19.5716 46.4474 25.3833 47.8007 30.6943 48.4384C32.4804 48.6528 34.2101 48.7864 35.8571 48.7659C47.7683 48.6161 55.4098 36.9005 54.1284 25.6572V25.6566C52.3921 42.0146 39.3714 44.9364 22.9175 43.4193C18.3412 42.9973 14.633 43.1747 11.6416 43.6841C11.1588 43.7661 10.695 43.8569 10.2491 43.9552C9.96001 44.0187 9.67824 44.0858 9.40404 44.1557" fill="white"/>
<path fill-rule="evenodd" clip-rule="evenodd" d="M4.54492 0.00988844C28.7246 -0.543991 41.0979 22.3172 45.1331 31.6466L27.794 34.2076C25.2184 18.4087 18.3707 9.80884 4.54492 0.00988844ZM14.5173 36.1685C19.643 25.3926 15.431 14.9178 11.0098 8.04038H11.0103C11.0103 8.04038 22.0439 13.0455 25.4615 34.5522L14.5173 36.1685Z" fill="white"/>
</svg>
