<svg width="144" height="46" viewBox="0 0 144 46" fill="none" xmlns="http://www.w3.org/2000/svg">
<path d="M50.861 5.46518H53.7681L60.6911 16.3743L60.0018 17.5432L58.7731 17.9627L50.861 5.46518ZM59.792 17.3633L67.3145 5.46518H68.1237L60.3914 17.693L59.792 17.3633ZM55.2666 7.89276L53.7681 5.46518H55.9259C55.9259 5.46518 55.9259 5.67497 55.836 5.70494C55.3565 5.88476 54.2776 6.30434 55.2666 7.89276ZM49.5723 5.46518H51.3405L52.3295 7.77288C51.1307 6.06458 50.1417 5.88476 49.6622 5.70494C49.5723 5.67497 49.5723 5.49515 49.5723 5.46518ZM65.2166 5.46518H67.4044L65.9359 7.653C67.0148 6.09455 65.816 5.88476 65.3365 5.70494C65.2466 5.67497 65.2166 5.46518 65.2166 5.46518ZM66.7151 7.68297L68.1237 5.46518H69.8919C69.8919 5.49515 69.8919 5.67497 69.802 5.70494C69.3225 5.88476 67.8839 5.9447 66.7151 7.68297ZM58.2935 26.4443V17.1535H60.6911V26.4443H58.2935ZM62.849 26.4443H60.6911V24.1666C60.6911 25.9048 62.2796 26.0247 62.789 26.2045C62.849 26.2345 62.849 26.4443 62.849 26.4443ZM58.2935 24.1666V26.4443H56.1057C56.1057 26.4443 56.1357 26.2345 56.2256 26.2045C56.7051 26.0247 58.2935 25.9048 58.2935 24.1666Z" fill="#0A2B50"/>
<path d="M76.184 5.07556H76.8733L86.3738 26.4443H83.7065L75.2849 7.50315L76.184 5.07556ZM66.7135 26.4443L76.184 5.07556L76.8733 5.19545L67.4627 26.4443H66.7135ZM67.7025 24.2265L67.0431 26.4443H65.2749C65.2749 26.4443 65.2749 26.2345 65.3648 26.2045C65.8443 26.0247 67.1031 25.6051 67.7025 24.2265ZM87.8423 26.4443H85.145L85.3848 24.2265C85.9842 25.6051 87.2429 26.0247 87.7225 26.2045C87.8124 26.2345 87.8423 26.4443 87.8423 26.4443ZM69.6206 26.4443H67.4627L68.4517 24.1965C67.7325 25.8749 69.0511 26.0247 69.5307 26.2045C69.6206 26.2345 69.6206 26.4443 69.6206 26.4443ZM82.7175 24.1965L83.7065 26.4443H81.5486C81.5486 26.4443 81.5486 26.2345 81.6386 26.2045C82.1181 26.0247 83.4368 25.8749 82.7175 24.1965ZM68.5716 24.0167L67.9422 23.8069C68.4218 22.3684 69.5906 21.6191 70.9992 21.2595C71.8384 21.0497 72.7375 20.8998 73.6066 20.8399C74.4158 20.75 75.195 20.69 75.9742 20.6301C77.143 20.5102 79.9303 20.3604 79.9303 18.712C79.9303 18.2624 79.8104 17.8129 79.6306 17.3933L80.2599 17.1535C80.4397 17.663 80.5896 18.1725 80.5896 18.742C80.5896 19.0716 80.4697 19.4912 80.2599 19.7909C78.2519 22.5782 69.9502 19.9707 68.5716 24.0167Z" fill="#0A2B50"/>
<path d="M104.923 23.3873C103.574 25.5152 100.727 26.8939 97.8498 26.8939C90.657 26.8939 87.0306 21.4093 87.0306 15.9547C87.0306 8.19246 92.9047 5.01562 97.9097 5.01562C101.626 5.01562 104.593 6.93372 104.593 9.81085C104.593 10.9797 103.904 11.4592 103.274 11.4592C102.675 11.4592 102.135 11.0696 102.135 10.4402C102.135 9.69097 103.095 9.15151 103.095 8.58208C103.095 6.93372 100.847 5.67497 98.0595 5.67497C84.4831 5.67497 88.5291 26.0847 98.599 26.0847C100.937 26.0847 103.304 25.0057 104.683 23.1176L104.923 23.3873Z" fill="#0A2B50"/>
<path d="M106.33 5.46518H122.994V6.15449H106.33V5.46518ZM115.861 26.4443H113.463V5.46518H115.861V26.4443ZM118.019 26.4443H115.861V24.1666C115.861 25.9048 117.449 26.0247 117.929 26.2045C118.019 26.2345 118.019 26.4443 118.019 26.4443ZM113.463 24.1666V26.4443H111.305C111.305 26.4443 111.305 26.2345 111.395 26.2045C111.875 26.0247 113.463 25.9048 113.463 24.1666ZM119.367 6.15449L122.994 5.46518L123.863 9.51115C123.863 9.51115 123.683 9.48118 123.653 9.42124C123.473 8.91175 121.855 6.15449 119.367 6.15449ZM105.431 9.51115L106.33 5.46518L109.957 6.15449C107.439 6.15449 105.851 8.91175 105.671 9.42124C105.641 9.48118 105.431 9.51115 105.431 9.51115Z" fill="#0A2B50"/>
<path d="M124.969 5.46518H127.876L134.799 16.3743L134.11 17.5432L132.881 17.9627L124.969 5.46518ZM133.9 17.3633L141.422 5.46518H142.232L134.499 17.693L133.9 17.3633ZM129.374 7.89276L127.876 5.46518H130.034C130.034 5.46518 130.034 5.67497 129.944 5.70494C129.464 5.88476 128.385 6.30434 129.374 7.89276ZM123.68 5.46518H125.448L126.437 7.77288C125.239 6.06458 124.25 5.88476 123.77 5.70494C123.68 5.67497 123.68 5.49515 123.68 5.46518ZM139.325 5.46518H141.512L140.044 7.653C141.123 6.09455 139.924 5.88476 139.444 5.70494C139.354 5.67497 139.325 5.46518 139.325 5.46518ZM140.823 7.68297L142.232 5.46518H144C144 5.49515 144 5.67497 143.91 5.70494C143.43 5.88476 141.992 5.9447 140.823 7.68297ZM132.401 26.4443V17.1535H134.799V26.4443H132.401ZM136.957 26.4443H134.799V24.1666C134.799 25.9048 136.387 26.0247 136.897 26.2045C136.957 26.2345 136.957 26.4443 136.957 26.4443ZM132.401 24.1666V26.4443H130.214C130.214 26.4443 130.244 26.2345 130.334 26.2045C130.813 26.0247 132.401 25.9048 132.401 24.1666Z" fill="#0A2B50"/>
<path d="M69.0017 38.3256H70.3415L73.8674 43.1914H72.3866L69.0017 38.3256ZM67.2388 33.3188H68.4376V43.1914H67.2388V33.3188ZM67.9016 34.3766V33.3188H69.9184C70.5578 33.3188 71.1266 33.4411 71.625 33.6855C72.1327 33.9206 72.5323 34.2591 72.8238 34.701C73.1246 35.1429 73.2751 35.6694 73.2751 36.2806C73.2751 36.8823 73.1246 37.4089 72.8238 37.8602C72.5323 38.3021 72.1327 38.6453 71.625 38.8897C71.1266 39.1248 70.5578 39.2423 69.9184 39.2423H67.9016V38.1846H69.9184C70.3415 38.1846 70.7129 38.1093 71.0326 37.9589C71.3617 37.8085 71.6156 37.5922 71.7942 37.3101C71.9823 37.0281 72.0763 36.6849 72.0763 36.2806C72.0763 35.8763 71.9823 35.5331 71.7942 35.251C71.6156 34.9689 71.3617 34.7527 71.0326 34.6023C70.7129 34.4518 70.3415 34.3766 69.9184 34.3766H67.9016Z" fill="#0A2B50"/>
<path d="M79.0374 43.1914V42.0631H84.0159V43.1914H79.0374ZM79.0374 34.4471V33.3188H84.0159V34.4471H79.0374ZM79.0374 38.3961V37.2678H83.7339V38.3961H79.0374ZM78.3745 33.3188H79.5733V43.1914H78.3745V33.3188Z" fill="#0A2B50"/>
<path d="M96.8474 33.3188H98.0462V43.685L90.5713 35.8434V43.1914H89.3725V32.8252L96.8474 40.6668V33.3188Z" fill="#0A2B50"/>
<path d="M102.565 34.4471V33.3188H108.841V34.4471H106.302V43.1914H105.103V34.4471H102.565Z" fill="#0A2B50"/>
<path d="M112.892 40.2296L113.315 39.1013H117.687L118.11 40.2296H112.892ZM115.473 35.5472L113.809 39.468L113.696 39.7219L112.229 43.1914H110.889L115.473 32.8252L120.057 43.1914H118.717L117.278 39.8065L117.165 39.5244L115.473 35.5472Z" fill="#0A2B50"/>
<path d="M124.501 33.3188H125.7V42.0631H129.579V43.1914H124.501V33.3188Z" fill="#0A2B50"/>
<path fill-rule="evenodd" clip-rule="evenodd" d="M7.03832 35.967L46.3407 30.1621C45.8396 31.1783 45.2309 32.134 44.4955 33.0031C39.2013 39.2565 28.5083 39.0567 21.1403 38.3772C17.6031 38.051 13.9442 38.0368 10.4331 38.6341C10.1262 38.6866 9.82047 38.7437 9.5154 38.8056L7.03809 35.967H7.03832Z" fill="#0A2B50"/>
<path fill-rule="evenodd" clip-rule="evenodd" d="M8.6212 40.479C1.83432 42.2053 0 45.8364 0 45.8364C3.47167 43.3561 7.37131 42.5105 11.4015 42.4453C11.7496 42.4397 12.0984 42.4399 12.4479 42.4453C12.5556 42.4469 12.6637 42.4492 12.7715 42.4518C17.9419 42.5796 23.2696 43.8202 28.1384 44.4048C29.7757 44.6014 31.3615 44.7239 32.8713 44.7051C43.7906 44.5677 50.7958 33.8277 49.6211 23.5205C48.0294 38.5164 36.093 41.1944 21.0092 39.8036C16.814 39.4168 13.4145 39.5795 10.6722 40.0464C10.2296 40.1216 9.80442 40.2049 9.39566 40.2949C9.13064 40.3532 8.87256 40.4149 8.6212 40.479Z" fill="#0A2B50"/>
<path fill-rule="evenodd" clip-rule="evenodd" d="M4.16626 0.00906507C26.3325 -0.498695 37.6755 20.4589 41.3746 29.0115L25.4793 31.3593C23.1182 16.8759 16.8408 8.99211 4.16626 0.00906507ZM13.3082 33.1569C18.0071 23.2783 14.1459 13.6757 10.0928 7.37089H10.0933C10.0933 7.37089 20.2081 11.9593 23.3411 31.6752L13.3082 33.1569Z" fill="#0A2B50"/>
</svg>
