<svg width="172" height="56" viewBox="0 0 172 56" fill="none" xmlns="http://www.w3.org/2000/svg">
<path d="M60.7507 6.85434H64.2231L72.4923 19.8844L71.669 21.2805L70.2013 21.7817L60.7507 6.85434ZM71.4184 21.0657L80.4036 6.85434H81.3702L72.1344 21.4595L71.4184 21.0657ZM66.013 9.75389L64.2231 6.85434H66.8005C66.8005 6.85434 66.8005 7.10492 66.6931 7.14071C66.1204 7.35549 64.8317 7.85665 66.013 9.75389ZM59.2114 6.85434H61.3235L62.5048 9.6107C61.0729 7.57028 59.8916 7.35549 59.3188 7.14071C59.2114 7.10492 59.2114 6.89013 59.2114 6.85434ZM77.8978 6.85434H80.511L78.7569 9.46752C80.0456 7.60607 78.6137 7.35549 78.041 7.14071C77.9336 7.10492 77.8978 6.85434 77.8978 6.85434ZM79.6877 9.50331L81.3702 6.85434H83.4822C83.4822 6.89013 83.4822 7.10492 83.3748 7.14071C82.8021 7.35549 81.0838 7.42709 79.6877 9.50331ZM69.6285 31.9122V20.8152H72.4923V31.9122H69.6285ZM75.0698 31.9122H72.4923V29.1916C72.4923 31.2679 74.3896 31.4111 74.9982 31.6258C75.0698 31.6616 75.0698 31.9122 75.0698 31.9122ZM69.6285 29.1916V31.9122H67.0153C67.0153 31.9122 67.0511 31.6616 67.1585 31.6258C67.7313 31.4111 69.6285 31.2679 69.6285 29.1916Z" fill="white"/>
<path d="M90.9978 6.38898H91.8211L103.169 31.9122H99.983L89.9238 9.28853L90.9978 6.38898ZM79.6857 31.9122L90.9978 6.38898L91.8211 6.53216L80.5807 31.9122H79.6857ZM80.867 29.2632L80.0795 31.9122H77.9674C77.9674 31.9122 77.9674 31.6616 78.0748 31.6258C78.6476 31.4111 80.1511 30.9099 80.867 29.2632ZM104.923 31.9122H101.701L101.988 29.2632C102.704 30.9099 104.207 31.4111 104.78 31.6258C104.887 31.6616 104.923 31.9122 104.923 31.9122ZM83.1581 31.9122H80.5807L81.762 29.2274C80.9028 31.2321 82.4779 31.4111 83.0507 31.6258C83.1581 31.6616 83.1581 31.9122 83.1581 31.9122ZM98.8016 29.2274L99.983 31.9122H97.4055C97.4055 31.9122 97.4055 31.6616 97.5129 31.6258C98.0857 31.4111 99.6608 31.2321 98.8016 29.2274ZM81.9052 29.0127L81.1534 28.7621C81.7262 27.0438 83.1223 26.1489 84.8048 25.7193C85.8071 25.4688 86.881 25.2898 87.9192 25.2182C88.8857 25.1108 89.8164 25.0392 90.7472 24.9676C92.1433 24.8244 95.4725 24.6454 95.4725 22.6766C95.4725 22.1396 95.3293 21.6027 95.1145 21.1015L95.8662 20.8152C96.081 21.4237 96.26 22.0323 96.26 22.7124C96.26 23.1062 96.1168 23.6073 95.8662 23.9653C93.4678 27.2944 83.5519 24.1801 81.9052 29.0127Z" fill="white"/>
<path d="M125.325 28.2609C123.714 30.8025 120.313 32.4492 116.876 32.4492C108.285 32.4492 103.953 25.8983 103.953 19.3833C103.953 10.1119 110.97 6.31738 116.948 6.31738C121.387 6.31738 124.931 8.60839 124.931 12.0449C124.931 13.441 124.107 14.0137 123.356 14.0137C122.64 14.0137 121.995 13.5484 121.995 12.7966C121.995 11.9017 123.141 11.2574 123.141 10.5772C123.141 8.60839 120.456 7.10492 117.127 7.10492C100.911 7.10492 105.743 31.4826 117.771 31.4826C120.564 31.4826 123.392 30.194 125.038 27.9388L125.325 28.2609Z" fill="white"/>
<path d="M127.006 6.85434H146.909V7.67767H127.006V6.85434ZM138.39 31.9122H135.526V6.85434H138.39V31.9122ZM140.967 31.9122H138.39V29.1916C138.39 31.2679 140.287 31.4111 140.86 31.6258C140.967 31.6616 140.967 31.9122 140.967 31.9122ZM135.526 29.1916V31.9122H132.948C132.948 31.9122 132.948 31.6616 133.056 31.6258C133.629 31.4111 135.526 31.2679 135.526 29.1916ZM142.578 7.67767L146.909 6.85434L147.948 11.6869C147.948 11.6869 147.733 11.6511 147.697 11.5795C147.482 10.971 145.549 7.67767 142.578 7.67767ZM125.932 11.6869L127.006 6.85434L131.338 7.67767C128.33 7.67767 126.433 10.971 126.218 11.5795C126.183 11.6511 125.932 11.6869 125.932 11.6869Z" fill="white"/>
<path d="M149.269 6.85434H152.741L161.01 19.8844L160.187 21.2805L158.719 21.7817L149.269 6.85434ZM159.936 21.0657L168.922 6.85434H169.888L160.652 21.4595L159.936 21.0657ZM154.531 9.75389L152.741 6.85434H155.319C155.319 6.85434 155.319 7.10492 155.211 7.14071C154.638 7.35549 153.35 7.85665 154.531 9.75389ZM147.729 6.85434H149.842L151.023 9.6107C149.591 7.57028 148.41 7.35549 147.837 7.14071C147.729 7.10492 147.729 6.89013 147.729 6.85434ZM166.416 6.85434H169.029L167.275 9.46752C168.564 7.60607 167.132 7.35549 166.559 7.14071C166.452 7.10492 166.416 6.85434 166.416 6.85434ZM168.206 9.50331L169.888 6.85434H172C172 6.89013 172 7.10492 171.893 7.14071C171.32 7.35549 169.602 7.42709 168.206 9.50331ZM158.147 31.9122V20.8152H161.01V31.9122H158.147ZM163.588 31.9122H161.01V29.1916C161.01 31.2679 162.908 31.4111 163.516 31.6258C163.588 31.6616 163.588 31.9122 163.588 31.9122ZM158.147 29.1916V31.9122H155.533C155.533 31.9122 155.569 31.6616 155.677 31.6258C156.249 31.4111 158.147 31.2679 158.147 29.1916Z" fill="white"/>
<path d="M82.4182 46.105H84.0186L88.2301 51.9167H86.4613L82.4182 46.105ZM80.3125 40.1248H81.7444V51.9167H80.3125V40.1248ZM81.1043 41.3882V40.1248H83.5132C84.2769 40.1248 84.9564 40.2707 85.5516 40.5627C86.158 40.8435 86.6353 41.2478 86.9835 41.7756C87.3429 42.3035 87.5226 42.9324 87.5226 43.6623C87.5226 44.3811 87.3429 45.01 86.9835 45.549C86.6353 46.0769 86.158 46.4868 85.5516 46.7788C84.9564 47.0595 84.2769 47.1999 83.5132 47.1999H81.1043V45.9365H83.5132C84.0186 45.9365 84.4622 45.8467 84.8441 45.667C85.2371 45.4873 85.5404 45.229 85.7537 44.8921C85.9784 44.5552 86.0907 44.1452 86.0907 43.6623C86.0907 43.1794 85.9784 42.7695 85.7537 42.4326C85.5404 42.0957 85.2371 41.8374 84.8441 41.6577C84.4622 41.478 84.0186 41.3882 83.5132 41.3882H81.1043Z" fill="white"/>
<path d="M94.4053 51.9167V50.569H100.352V51.9167H94.4053ZM94.4053 41.4724V40.1248H100.352V41.4724H94.4053ZM94.4053 46.1892V44.8415H100.015V46.1892H94.4053ZM93.6136 40.1248H95.0455V51.9167H93.6136V40.1248Z" fill="white"/>
<path d="M115.678 40.1248H117.11V52.5063L108.182 43.1401V51.9167H106.75V39.5352L115.678 48.9013V40.1248Z" fill="white"/>
<path d="M122.508 41.4724V40.1248H130.004V41.4724H126.972V51.9167H125.54V41.4724H122.508Z" fill="white"/>
<path d="M134.843 48.3791L135.348 47.0315H140.57L141.076 48.3791H134.843ZM137.926 42.7864L135.938 47.4694L135.803 47.7727L134.051 51.9167H132.451L137.926 39.5352L143.401 51.9167H141.8L140.082 47.8737L139.947 47.5368L137.926 42.7864Z" fill="white"/>
<path d="M148.71 40.1248H150.142V50.569H154.774V51.9167H148.71V40.1248Z" fill="white"/>
<path fill-rule="evenodd" clip-rule="evenodd" d="M8.40653 43.286L55.3512 36.3525C54.7526 37.5663 54.0255 38.7078 53.1472 39.7458C46.8236 47.2151 34.0513 46.9764 25.2506 46.1649C21.0256 45.7751 16.6552 45.7582 12.4615 46.4717C12.0949 46.5343 11.7297 46.6025 11.3653 46.6765L8.40625 43.286H8.40653Z" fill="white"/>
<path fill-rule="evenodd" clip-rule="evenodd" d="M10.2976 48.6754C2.191 50.7374 0 55.0745 0 55.0745C4.14673 52.112 8.80465 51.1019 13.6185 51.024C14.0343 51.0174 14.4509 51.0176 14.8684 51.024C14.997 51.0259 15.1261 51.0287 15.2549 51.0318C21.4306 51.1845 27.7943 52.6663 33.6098 53.3645C35.5656 53.5993 37.4596 53.7457 39.263 53.7232C52.3056 53.5591 60.6729 40.7311 59.2699 28.4199C57.3686 46.3313 43.1112 49.53 25.0944 47.8688C20.0834 47.4068 16.0229 47.6011 12.7473 48.1588C12.2187 48.2486 11.7109 48.3481 11.2226 48.4556C10.9061 48.5252 10.5978 48.5989 10.2976 48.6754Z" fill="white"/>
<path fill-rule="evenodd" clip-rule="evenodd" d="M4.97656 0.337976C31.453 -0.268503 45.0015 24.7637 49.42 34.9791L30.4339 37.7833C27.6137 20.484 20.1156 11.0675 4.97656 0.337976ZM15.8962 39.9304C21.5087 28.1312 16.8967 16.6616 12.0555 9.13109H12.0561C12.0561 9.13109 24.1377 14.6116 27.8799 38.1606L15.8962 39.9304Z" fill="white"/>
</svg>
