<svg width="164" height="52" viewBox="0 0 164 52" fill="none" xmlns="http://www.w3.org/2000/svg">
<path d="M57.7003 6.2H60.9983L68.8523 18.576L68.0703 19.902L66.6763 20.378L57.7003 6.2ZM67.8323 19.698L76.3663 6.2H77.2843L68.5123 20.072L67.8323 19.698ZM62.6983 8.954L60.9983 6.2H63.4463C63.4463 6.2 63.4463 6.438 63.3443 6.472C62.8003 6.676 61.5763 7.152 62.6983 8.954ZM56.2383 6.2H58.2443L59.3663 8.818C58.0063 6.88 56.8843 6.676 56.3403 6.472C56.2383 6.438 56.2383 6.234 56.2383 6.2ZM73.9863 6.2H76.4683L74.8023 8.682C76.0263 6.914 74.6663 6.676 74.1223 6.472C74.0203 6.438 73.9863 6.2 73.9863 6.2ZM75.6863 8.716L77.2843 6.2H79.2903C79.2903 6.234 79.2903 6.438 79.1883 6.472C78.6443 6.676 77.0123 6.744 75.6863 8.716ZM66.1323 30V19.46H68.8523V30H66.1323ZM71.3003 30H68.8523V27.416C68.8523 29.388 70.6543 29.524 71.2323 29.728C71.3003 29.762 71.3003 30 71.3003 30ZM66.1323 27.416V30H63.6503C63.6503 30 63.6843 29.762 63.7863 29.728C64.3303 29.524 66.1323 29.388 66.1323 27.416Z" fill="#0A2B50"/>
<path d="M86.4284 5.758H87.2104L97.9884 30H94.9624L85.4084 8.512L86.4284 5.758ZM75.6844 30L86.4284 5.758L87.2104 5.894L76.5344 30H75.6844ZM76.8064 27.484L76.0584 30H74.0524C74.0524 30 74.0524 29.762 74.1544 29.728C74.6984 29.524 76.1264 29.048 76.8064 27.484ZM99.6544 30H96.5944L96.8664 27.484C97.5464 29.048 98.9744 29.524 99.5184 29.728C99.6204 29.762 99.6544 30 99.6544 30ZM78.9824 30H76.5344L77.6564 27.45C76.8404 29.354 78.3364 29.524 78.8804 29.728C78.9824 29.762 78.9824 30 78.9824 30ZM93.8404 27.45L94.9624 30H92.5144C92.5144 30 92.5144 29.762 92.6164 29.728C93.1604 29.524 94.6564 29.354 93.8404 27.45ZM77.7924 27.246L77.0784 27.008C77.6224 25.376 78.9484 24.526 80.5464 24.118C81.4984 23.88 82.5184 23.71 83.5044 23.642C84.4224 23.54 85.3064 23.472 86.1904 23.404C87.5164 23.268 90.6784 23.098 90.6784 21.228C90.6784 20.718 90.5424 20.208 90.3384 19.732L91.0524 19.46C91.2564 20.038 91.4264 20.616 91.4264 21.262C91.4264 21.636 91.2904 22.112 91.0524 22.452C88.7744 25.614 79.3564 22.656 77.7924 27.246Z" fill="#0A2B50"/>
<path d="M119.031 26.532C117.501 28.946 114.271 30.51 111.007 30.51C102.847 30.51 98.7335 24.288 98.7335 18.1C98.7335 9.294 105.397 5.69 111.076 5.69C115.292 5.69 118.658 7.866 118.658 11.13C118.658 12.456 117.875 13 117.161 13C116.481 13 115.869 12.558 115.869 11.844C115.869 10.994 116.958 10.382 116.958 9.736C116.958 7.866 114.408 6.438 111.245 6.438C95.8435 6.438 100.433 29.592 111.857 29.592C114.509 29.592 117.196 28.368 118.76 26.226L119.031 26.532Z" fill="#0A2B50"/>
<path d="M120.628 6.2H139.532V6.982H120.628V6.2ZM131.44 30H128.72V6.2H131.44V30ZM133.888 30H131.44V27.416C131.44 29.388 133.242 29.524 133.786 29.728C133.888 29.762 133.888 30 133.888 30ZM128.72 27.416V30H126.272C126.272 30 126.272 29.762 126.374 29.728C126.918 29.524 128.72 29.388 128.72 27.416ZM135.418 6.982L139.532 6.2L140.518 10.79C140.518 10.79 140.314 10.756 140.28 10.688C140.076 10.11 138.24 6.982 135.418 6.982ZM119.608 10.79L120.628 6.2L124.742 6.982C121.886 6.982 120.084 10.11 119.88 10.688C119.846 10.756 119.608 10.79 119.608 10.79Z" fill="#0A2B50"/>
<path d="M141.773 6.2H145.071L152.925 18.576L152.143 19.902L150.749 20.378L141.773 6.2ZM151.905 19.698L160.439 6.2H161.357L152.585 20.072L151.905 19.698ZM146.771 8.954L145.071 6.2H147.519C147.519 6.2 147.519 6.438 147.417 6.472C146.873 6.676 145.649 7.152 146.771 8.954ZM140.311 6.2H142.317L143.439 8.818C142.079 6.88 140.957 6.676 140.413 6.472C140.311 6.438 140.311 6.234 140.311 6.2ZM158.059 6.2H160.541L158.875 8.682C160.099 6.914 158.739 6.676 158.195 6.472C158.093 6.438 158.059 6.2 158.059 6.2ZM159.759 8.716L161.357 6.2H163.363C163.363 6.234 163.363 6.438 163.261 6.472C162.717 6.676 161.085 6.744 159.759 8.716ZM150.205 30V19.46H152.925V30H150.205ZM155.373 30H152.925V27.416C152.925 29.388 154.727 29.524 155.305 29.728C155.373 29.762 155.373 30 155.373 30ZM150.205 27.416V30H147.723C147.723 30 147.757 29.762 147.859 29.728C148.403 29.524 150.205 29.388 150.205 27.416Z" fill="#0A2B50"/>
<path d="M78.2803 43.48H79.8003L83.8003 49H82.1203L78.2803 43.48ZM76.2803 37.8H77.6403V49H76.2803V37.8ZM77.0323 39V37.8H79.3203C80.0456 37.8 80.6909 37.9387 81.2563 38.216C81.8323 38.4827 82.2856 38.8667 82.6163 39.368C82.9576 39.8693 83.1283 40.4667 83.1283 41.16C83.1283 41.8427 82.9576 42.44 82.6163 42.952C82.2856 43.4533 81.8323 43.8427 81.2563 44.12C80.6909 44.3867 80.0456 44.52 79.3203 44.52H77.0323V43.32H79.3203C79.8003 43.32 80.2216 43.2347 80.5843 43.064C80.9576 42.8933 81.2456 42.648 81.4483 42.328C81.6616 42.008 81.7683 41.6187 81.7683 41.16C81.7683 40.7013 81.6616 40.312 81.4483 39.992C81.2456 39.672 80.9576 39.4267 80.5843 39.256C80.2216 39.0853 79.8003 39 79.3203 39H77.0323Z" fill="#0A2B50"/>
<path d="M89.6654 49V47.72H95.3134V49H89.6654ZM89.6654 39.08V37.8H95.3134V39.08H89.6654ZM89.6654 43.56V42.28H94.9934V43.56H89.6654ZM88.9134 37.8H90.2734V49H88.9134V37.8Z" fill="#0A2B50"/>
<path d="M109.87 37.8H111.23V49.56L102.75 40.664V49H101.39V37.24L109.87 46.136V37.8Z" fill="#0A2B50"/>
<path d="M116.357 39.08V37.8H123.477V39.08H120.597V49H119.237V39.08H116.357Z" fill="#0A2B50"/>
<path d="M128.072 45.64L128.552 44.36H133.512L133.992 45.64H128.072ZM131 40.328L129.112 44.776L128.984 45.064L127.32 49H125.8L131 37.24L136.2 49H134.68L133.048 45.16L132.92 44.84L131 40.328Z" fill="#0A2B50"/>
<path d="M141.243 37.8H142.603V47.72H147.003V49H141.243V37.8Z" fill="#0A2B50"/>
<path fill-rule="evenodd" clip-rule="evenodd" d="M7.98488 40.8031L52.5722 34.2177C52.0037 35.3706 51.3131 36.4547 50.4788 37.4407C44.4728 44.535 32.3419 44.3083 23.9831 43.5375C19.9703 43.1673 15.8193 43.1512 11.8362 43.8289C11.488 43.8884 11.1411 43.9532 10.7951 44.0235L7.98462 40.8031H7.98488Z" fill="#0A2B50"/>
<path fill-rule="evenodd" clip-rule="evenodd" d="M9.78046 45.9222C2.08098 47.8806 0 52 0 52C3.9385 49.1862 8.36251 48.2268 12.9346 48.1529C13.3295 48.1465 13.7253 48.1468 14.1218 48.1529C14.2439 48.1547 14.3665 48.1573 14.4889 48.1602C20.3545 48.3053 26.3986 49.7127 31.9221 50.3759C33.7796 50.5989 35.5785 50.7379 37.2914 50.7166C49.679 50.5607 57.6262 38.3766 56.2935 26.6835C54.4877 43.6957 40.9463 46.7338 23.8342 45.1561C19.0749 44.7172 15.2183 44.9017 12.1072 45.4314C11.6052 45.5167 11.1228 45.6113 10.6591 45.7134C10.3584 45.7795 10.0656 45.8495 9.78046 45.9222Z" fill="#0A2B50"/>
<path fill-rule="evenodd" clip-rule="evenodd" d="M4.72656 0.010284C29.8734 -0.56575 42.7416 23.2099 46.9383 32.9124L28.9056 35.5759C26.2269 19.145 19.1054 10.2012 4.72656 0.010284ZM15.0978 37.6152C20.4286 26.4083 16.0481 15.5145 11.45 8.36199H11.4506C11.4506 8.36199 22.9255 13.5674 26.4798 35.9342L15.0978 37.6152Z" fill="#0A2B50"/>
</svg>
