<svg width="143" height="46" viewBox="0 0 143 46" fill="none" xmlns="http://www.w3.org/2000/svg">
<path d="M50.3795 5.41344H53.2591L60.1167 16.2193L59.4339 17.3771L58.2168 17.7927L50.3795 5.41344ZM59.2261 17.199L66.6774 5.41344H67.479L59.8198 17.5255L59.2261 17.199ZM54.7435 7.81804L53.2591 5.41344H55.3966C55.3966 5.41344 55.3966 5.62124 55.3075 5.65093C54.8325 5.82905 53.7638 6.24466 54.7435 7.81804ZM49.103 5.41344H50.8545L51.8342 7.6993C50.6467 6.00717 49.6671 5.82905 49.1921 5.65093C49.103 5.62124 49.103 5.44312 49.103 5.41344ZM64.5994 5.41344H66.7665L65.3118 7.58055C66.3806 6.03685 65.1931 5.82905 64.7181 5.65093C64.6291 5.62124 64.5994 5.41344 64.5994 5.41344ZM66.0837 7.61024L67.479 5.41344H69.2305C69.2305 5.44312 69.2305 5.62124 69.1414 5.65093C68.6664 5.82905 67.2415 5.88842 66.0837 7.61024ZM57.7418 26.194V16.9912H60.1167V26.194H57.7418ZM62.2541 26.194H60.1167V23.9378C60.1167 25.6596 61.6901 25.7784 62.1948 25.9565C62.2541 25.9862 62.2541 26.194 62.2541 26.194ZM57.7418 23.9378V26.194H55.5747C55.5747 26.194 55.6044 25.9862 55.6934 25.9565C56.1684 25.7784 57.7418 25.6596 57.7418 23.9378Z" fill="white"/>
<path d="M75.463 5.02751H76.1458L85.5564 26.194H82.9143L74.5724 7.43212L75.463 5.02751ZM66.0821 26.194L75.463 5.02751L76.1458 5.14626L66.8242 26.194H66.0821ZM67.0617 23.9972L66.4086 26.194H64.6571C64.6571 26.194 64.6571 25.9862 64.7462 25.9565C65.2212 25.7784 66.468 25.3628 67.0617 23.9972ZM87.011 26.194H84.3393L84.5768 23.9972C85.1705 25.3628 86.4173 25.7784 86.8923 25.9565C86.9814 25.9862 87.011 26.194 87.011 26.194ZM68.9617 26.194H66.8242L67.8039 23.9675C67.0914 25.6299 68.3976 25.7784 68.8726 25.9565C68.9617 25.9862 68.9617 26.194 68.9617 26.194ZM81.9347 23.9675L82.9143 26.194H80.7769C80.7769 26.194 80.7769 25.9862 80.8659 25.9565C81.3409 25.7784 82.6471 25.6299 81.9347 23.9675ZM67.9226 23.7894L67.2992 23.5816C67.7742 22.1566 68.932 21.4144 70.3272 21.0582C71.1585 20.8504 72.0491 20.702 72.91 20.6426C73.7115 20.5535 74.4833 20.4942 75.2552 20.4348C76.413 20.316 79.1738 20.1676 79.1738 18.5349C79.1738 18.0896 79.0551 17.6443 78.8769 17.2287L79.5004 16.9912C79.6785 17.4958 79.8269 18.0005 79.8269 18.5645C79.8269 18.8911 79.7082 19.3067 79.5004 19.6036C77.5114 22.3644 69.2882 19.7817 67.9226 23.7894Z" fill="white"/>
<path d="M103.93 23.166C102.594 25.2737 99.7737 26.6393 96.9238 26.6393C89.799 26.6393 86.207 21.2066 86.207 15.8037C86.207 8.11491 92.0255 4.96814 96.9832 4.96814C100.664 4.96814 103.603 6.86807 103.603 9.71798C103.603 10.8757 102.92 11.3507 102.297 11.3507C101.703 11.3507 101.169 10.9648 101.169 10.3414C101.169 9.59923 102.119 9.06487 102.119 8.50083C102.119 6.86807 99.8924 5.62124 97.1316 5.62124C83.6836 5.62124 87.6913 25.8377 97.6659 25.8377C99.9815 25.8377 102.327 24.769 103.692 22.8988L103.93 23.166Z" fill="white"/>
<path d="M105.324 5.41344H121.83V6.09623H105.324V5.41344ZM114.764 26.194H112.39V5.41344H114.764V26.194ZM116.902 26.194H114.764V23.9378C114.764 25.6596 116.338 25.7784 116.813 25.9565C116.902 25.9862 116.902 26.194 116.902 26.194ZM112.39 23.9378V26.194H110.252C110.252 26.194 110.252 25.9862 110.341 25.9565C110.816 25.7784 112.39 25.6596 112.39 23.9378ZM118.238 6.09623L121.83 5.41344L122.691 9.42111C122.691 9.42111 122.513 9.39142 122.483 9.33205C122.305 8.82738 120.702 6.09623 118.238 6.09623ZM104.434 9.42111L105.324 5.41344L108.916 6.09623C106.423 6.09623 104.849 8.82738 104.671 9.33205C104.641 9.39142 104.434 9.42111 104.434 9.42111Z" fill="white"/>
<path d="M123.786 5.41344H126.666L133.523 16.2193L132.841 17.3771L131.624 17.7927L123.786 5.41344ZM132.633 17.199L140.084 5.41344H140.886L133.227 17.5255L132.633 17.199ZM128.15 7.81804L126.666 5.41344H128.803C128.803 5.41344 128.803 5.62124 128.714 5.65093C128.239 5.82905 127.171 6.24466 128.15 7.81804ZM122.51 5.41344H124.261L125.241 7.6993C124.054 6.00717 123.074 5.82905 122.599 5.65093C122.51 5.62124 122.51 5.44312 122.51 5.41344ZM138.006 5.41344H140.173L138.719 7.58055C139.787 6.03685 138.6 5.82905 138.125 5.65093C138.036 5.62124 138.006 5.41344 138.006 5.41344ZM139.49 7.61024L140.886 5.41344H142.637C142.637 5.44312 142.637 5.62124 142.548 5.65093C142.073 5.82905 140.648 5.88842 139.49 7.61024ZM131.149 26.194V16.9912H133.523V26.194H131.149ZM135.661 26.194H133.523V23.9378C133.523 25.6596 135.097 25.7784 135.602 25.9565C135.661 25.9862 135.661 26.194 135.661 26.194ZM131.149 23.9378V26.194H128.981C128.981 26.194 129.011 25.9862 129.1 25.9565C129.575 25.7784 131.149 25.6596 131.149 23.9378Z" fill="white"/>
<path d="M68.3483 37.9638H69.6755L73.168 42.7835H71.7011L68.3483 37.9638ZM66.6021 33.0044H67.7895V42.7835H66.6021V33.0044ZM67.2586 34.0522V33.0044H69.2564C69.8897 33.0044 70.4531 33.1255 70.9468 33.3676C71.4497 33.6005 71.8455 33.9357 72.1342 34.3735C72.4322 34.8112 72.5813 35.3327 72.5813 35.9381C72.5813 36.5342 72.4322 37.0557 72.1342 37.5028C71.8455 37.9405 71.4497 38.2804 70.9468 38.5226C70.4531 38.7554 69.8897 38.8718 69.2564 38.8718H67.2586V37.8241H69.2564C69.6755 37.8241 70.0434 37.7496 70.36 37.6006C70.686 37.4515 70.9374 37.2373 71.1144 36.9579C71.3007 36.6785 71.3938 36.3386 71.3938 35.9381C71.3938 35.5376 71.3007 35.1977 71.1144 34.9183C70.9374 34.6389 70.686 34.4247 70.36 34.2757C70.0434 34.1267 69.6755 34.0522 69.2564 34.0522H67.2586Z" fill="white"/>
<path d="M78.289 42.7835V41.6659H83.2205V42.7835H78.289ZM78.289 34.122V33.0044H83.2205V34.122H78.289ZM78.289 38.0336V36.916H82.9411V38.0336H78.289ZM77.6324 33.0044H78.8199V42.7835H77.6324V33.0044Z" fill="white"/>
<path d="M95.9305 33.0044H97.118V43.2724L89.7139 35.505V42.7835H88.5264V32.5154L95.9305 40.2828V33.0044Z" fill="white"/>
<path d="M101.594 34.122V33.0044H107.811V34.122H105.296V42.7835H104.109V34.122H101.594Z" fill="white"/>
<path d="M111.823 39.8497L112.242 38.7321H116.573L116.992 39.8497H111.823ZM114.38 35.2117L112.731 39.0954L112.62 39.3468L111.167 42.7835H109.84L114.38 32.5154L118.92 42.7835H117.593L116.168 39.4306L116.056 39.1512L114.38 35.2117Z" fill="white"/>
<path d="M123.323 33.0044H124.51V41.6659H128.352V42.7835H123.323V33.0044Z" fill="white"/>
<path fill-rule="evenodd" clip-rule="evenodd" d="M6.97142 35.6265L45.902 29.8766C45.4056 30.8832 44.8026 31.8298 44.0743 32.6906C38.8302 38.8849 28.2383 38.687 20.94 38.014C17.4362 37.6908 13.8119 37.6767 10.3341 38.2684C10.0301 38.3204 9.72725 38.3769 9.42507 38.4383L6.97119 35.6265H6.97142Z" fill="white"/>
<path fill-rule="evenodd" clip-rule="evenodd" d="M8.53963 40.0961C1.81697 41.8061 0 45.4028 0 45.4028C3.43883 42.946 7.30157 42.1084 11.2936 42.0438C11.6385 42.0382 11.984 42.0385 12.3302 42.0438C12.4368 42.0454 12.5438 42.0477 12.6507 42.0502C17.7721 42.1769 23.0495 43.4057 27.8722 43.9848C29.494 44.1795 31.0648 44.3008 32.5603 44.2822C43.3764 44.1461 50.3152 33.5078 49.1517 23.2982C47.575 38.1521 35.7515 40.8048 20.8104 39.4272C16.6549 39.044 13.2876 39.2051 10.5712 39.6676C10.1328 39.7421 9.71166 39.8246 9.30677 39.9138C9.04426 39.9715 8.78862 40.0326 8.53963 40.0961Z" fill="white"/>
<path fill-rule="evenodd" clip-rule="evenodd" d="M4.12695 0.00897926C26.0835 -0.493974 37.3191 20.2653 40.9833 28.7369L25.2384 31.0625C22.8996 16.7161 16.6816 8.90699 4.12695 0.00897926ZM13.1824 32.843C17.8369 23.058 14.0122 13.5462 9.99742 7.30112H9.99788C9.99788 7.30112 20.017 11.8461 23.1204 31.3753L13.1824 32.843Z" fill="white"/>
</svg>
