<svg width="230" height="73" viewBox="0 0 230 73" fill="none" xmlns="http://www.w3.org/2000/svg">
<path d="M81.0017 8.70388H85.6316L96.6575 26.0779L95.5597 27.9394L93.6027 28.6076L81.0017 8.70388ZM95.2256 27.653L107.206 8.70388H108.495L96.1802 28.178L95.2256 27.653ZM88.0182 12.5701L85.6316 8.70388H89.0683C89.0683 8.70388 89.0683 9.03799 88.9251 9.08572C88.1614 9.37211 86.443 10.0403 88.0182 12.5701ZM78.9492 8.70388H81.7654L83.3405 12.3791C81.4312 9.65849 79.8561 9.37211 79.0924 9.08572C78.9492 9.03799 78.9492 8.75161 78.9492 8.70388ZM103.865 8.70388H107.349L105.011 12.1882C106.729 9.70622 104.82 9.37211 104.056 9.08572C103.913 9.03799 103.865 8.70388 103.865 8.70388ZM106.252 12.236L108.495 8.70388H111.311C111.311 8.75161 111.311 9.03799 111.168 9.08572C110.404 9.37211 108.113 9.46757 106.252 12.236ZM92.839 42.1154V27.3189H96.6575V42.1154H92.839ZM100.094 42.1154H96.6575V38.4879C96.6575 41.2562 99.1873 41.4472 99.9987 41.7336C100.094 41.7813 100.094 42.1154 100.094 42.1154ZM92.839 38.4879V42.1154H89.3546C89.3546 42.1154 89.4024 41.7813 89.5456 41.7336C90.3093 41.4472 92.839 41.2562 92.839 38.4879Z" fill="white"/>
<path d="M121.332 8.08338H122.43L137.561 42.1154H133.313L119.9 11.9496L121.332 8.08338ZM106.249 42.1154L121.332 8.08338L122.43 8.2743L107.442 42.1154H106.249ZM107.824 38.5833L106.774 42.1154H103.958C103.958 42.1154 103.958 41.7813 104.101 41.7336C104.865 41.4472 106.869 40.7789 107.824 38.5833ZM139.899 42.1154H135.604L135.986 38.5833C136.94 40.7789 138.945 41.4472 139.709 41.7336C139.852 41.7813 139.899 42.1154 139.899 42.1154ZM110.879 42.1154H107.442L109.017 38.5356C107.872 41.2085 109.972 41.4472 110.736 41.7336C110.879 41.7813 110.879 42.1154 110.879 42.1154ZM131.737 38.5356L133.313 42.1154H129.876C129.876 42.1154 129.876 41.7813 130.019 41.7336C130.783 41.4472 132.883 41.2085 131.737 38.5356ZM109.208 38.2492L108.206 37.9151C108.97 35.624 110.831 34.4307 113.074 33.858C114.411 33.5239 115.843 33.2852 117.227 33.1898C118.516 33.0466 119.757 32.9511 120.998 32.8556C122.859 32.6647 127.298 32.4261 127.298 29.8009C127.298 29.0849 127.107 28.3689 126.821 27.7007L127.823 27.3189C128.11 28.1303 128.349 28.9417 128.349 29.8486C128.349 30.3736 128.158 31.0419 127.823 31.5192C124.625 35.9581 111.404 31.8056 109.208 38.2492Z" fill="white"/>
<path d="M167.102 37.2469C164.954 40.6357 160.42 42.8314 155.838 42.8314C144.382 42.8314 138.607 34.0966 138.607 25.4096C138.607 13.0474 147.962 7.98792 155.933 7.98792C161.852 7.98792 166.577 11.0427 166.577 15.6248C166.577 17.4863 165.479 18.25 164.477 18.25C163.522 18.25 162.663 17.6295 162.663 16.6272C162.663 15.4339 164.191 14.5748 164.191 13.6679C164.191 11.0427 160.611 9.03799 156.172 9.03799C134.549 9.03799 140.993 41.5426 157.031 41.5426C160.754 41.5426 164.525 39.8243 166.72 36.8173L167.102 37.2469Z" fill="white"/>
<path d="M169.344 8.70388H195.883V9.80168H169.344V8.70388ZM184.523 42.1154H180.704V8.70388H184.523V42.1154ZM187.959 42.1154H184.523V38.4879C184.523 41.2562 187.052 41.4472 187.816 41.7336C187.959 41.7813 187.959 42.1154 187.959 42.1154ZM180.704 38.4879V42.1154H177.268C177.268 42.1154 177.267 41.7813 177.411 41.7336C178.174 41.4472 180.704 41.2562 180.704 38.4879ZM190.107 9.80168L195.883 8.70388L197.267 15.1475C197.267 15.1475 196.981 15.0998 196.933 15.0043C196.646 14.1929 194.069 9.80168 190.107 9.80168ZM167.912 15.1475L169.344 8.70388L175.12 9.80168C171.11 9.80168 168.58 14.1929 168.294 15.0043C168.246 15.0998 167.912 15.1475 167.912 15.1475Z" fill="white"/>
<path d="M199.028 8.70388H203.658L214.684 26.0779L213.587 27.9394L211.63 28.6076L199.028 8.70388ZM213.252 27.653L225.233 8.70388H226.522L214.207 28.178L213.252 27.653ZM206.045 12.5701L203.658 8.70388H207.095C207.095 8.70388 207.095 9.03799 206.952 9.08572C206.188 9.37211 204.47 10.0403 206.045 12.5701ZM196.976 8.70388H199.792L201.367 12.3791C199.458 9.65849 197.883 9.37211 197.119 9.08572C196.976 9.03799 196.976 8.75161 196.976 8.70388ZM221.892 8.70388H225.376L223.037 12.1882C224.756 9.70622 222.846 9.37211 222.083 9.08572C221.94 9.03799 221.892 8.70388 221.892 8.70388ZM224.278 12.236L226.522 8.70388H229.338C229.338 8.75161 229.338 9.03799 229.195 9.08572C228.431 9.37211 226.14 9.46757 224.278 12.236ZM210.866 42.1154V27.3189H214.684V42.1154H210.866ZM218.121 42.1154H214.684V38.4879C214.684 41.2562 217.214 41.4472 218.026 41.7336C218.121 41.7813 218.121 42.1154 218.121 42.1154ZM210.866 38.4879V42.1154H207.381C207.381 42.1154 207.429 41.7813 207.572 41.7336C208.336 41.4472 210.866 41.2562 210.866 38.4879Z" fill="white"/>
<path d="M109.894 61.0392H112.028L117.643 68.7885H115.284L109.894 61.0392ZM107.086 53.0654H108.995V68.7885H107.086V53.0654ZM108.142 54.75V53.0654H111.354C112.372 53.0654 113.278 53.2601 114.072 53.6494C114.88 54.0237 115.517 54.5628 115.981 55.2666C116.46 55.9704 116.7 56.809 116.7 57.7823C116.7 58.7407 116.46 59.5792 115.981 60.298C115.517 61.0018 114.88 61.5484 114.072 61.9377C113.278 62.3121 112.372 62.4992 111.354 62.4992H108.142V60.8146H111.354C112.028 60.8146 112.619 60.6948 113.128 60.4552C113.652 60.2156 114.057 59.8712 114.341 59.422C114.641 58.9728 114.79 58.4262 114.79 57.7823C114.79 57.1384 114.641 56.5918 114.341 56.1426C114.057 55.6934 113.652 55.349 113.128 55.1094C112.619 54.8698 112.028 54.75 111.354 54.75H108.142Z" fill="white"/>
<path d="M125.877 68.7885V66.9915H133.806V68.7885H125.877ZM125.877 54.8623V53.0654H133.806V54.8623H125.877ZM125.877 61.1515V59.3546H133.357V61.1515H125.877ZM124.821 53.0654H126.73V68.7885H124.821V53.0654Z" fill="white"/>
<path d="M154.242 53.0654H156.151V69.5746L144.246 57.086V68.7885H142.337V52.2792L154.242 64.7678V53.0654Z" fill="white"/>
<path d="M163.347 54.8623V53.0654H173.343V54.8623H169.3V68.7885H167.391V54.8623H163.347Z" fill="white"/>
<path d="M179.795 64.0715L180.469 62.2746H187.432L188.106 64.0715H179.795ZM183.905 56.6143L181.255 62.8586L181.075 63.2629L178.739 68.7885H176.605L183.905 52.2792L191.205 68.7885H189.071L186.78 63.3977L186.601 62.9485L183.905 56.6143Z" fill="white"/>
<path d="M198.284 53.0654H200.194V66.9915H206.371V68.7885H198.284V53.0654Z" fill="white"/>
<path fill-rule="evenodd" clip-rule="evenodd" d="M11.2094 57.2813L73.8037 48.0364C73.0056 49.6548 72.0361 51.1768 70.865 52.5609C62.4333 62.5202 45.4033 62.202 33.6686 61.1199C28.0352 60.6002 22.2078 60.5777 16.6161 61.529C16.1273 61.6125 15.6403 61.7034 15.1544 61.8021L11.209 57.2813H11.2094Z" fill="white"/>
<path fill-rule="evenodd" clip-rule="evenodd" d="M13.7304 64.4676C2.92141 67.217 0 72.9999 0 72.9999C5.52911 69.0498 11.7398 67.703 18.1584 67.5991C18.7128 67.5902 19.2684 67.5906 19.825 67.5991C19.9964 67.6017 20.1686 67.6054 20.3404 67.6095C28.5749 67.8131 37.06 69.7889 44.8142 70.7199C47.4219 71.033 49.9474 71.2281 52.352 71.1982C69.7425 70.9794 80.8992 53.8748 79.0284 37.4594C76.4933 61.3419 57.4829 65.607 33.46 63.3921C26.7785 62.776 21.3644 63.035 16.9969 63.7787C16.292 63.8984 15.6149 64.0311 14.9639 64.1745C14.5418 64.2673 14.1308 64.3656 13.7304 64.4676Z" fill="white"/>
<path fill-rule="evenodd" clip-rule="evenodd" d="M6.63574 0.0144371C41.9385 -0.794226 60.0037 32.5831 65.8951 46.204L40.5797 49.9431C36.8193 26.8766 26.8216 14.3209 6.63574 0.0144371ZM21.1956 52.8059C28.6792 37.0732 22.5297 21.78 16.0746 11.7389H16.0753C16.0753 11.7389 32.1845 19.0465 37.1743 50.4461L21.1956 52.8059Z" fill="white"/>
</svg>
